<?xml version="1.0" standalone="no"?>
<!DOCTYPE svg PUBLIC "-//W3C//DTD SVG 1.1//EN" "http://www.w3.org/Graphics/SVG/1.1/DTD/svg11.dtd" >
<svg xmlns="http://www.w3.org/2000/svg" xmlns:xlink="http://www.w3.org/1999/xlink" version="1.1">
<metadata>
Created by FontForge 20170924 at Mon Dec 21 11:10:54 2015
 By www-data
2015 Iconian Fonts - www.iconian.com
</metadata>
<defs>
<font id="FlashRogersChrome" horiz-adv-x="229" >
  <font-face 
    font-family="Flash Rogers Chrome"
    font-weight="400"
    font-stretch="normal"
    units-per-em="1000"
    panose-1="0 0 0 0 0 0 0 0 0 0"
    ascent="800"
    descent="-200"
    x-height="644"
    cap-height="697"
    bbox="-60 -213 1293 805"
    underline-thickness="50"
    underline-position="-125"
    unicode-range="U+0020-2122"
  />
<missing-glyph horiz-adv-x="500" 
 />
    <glyph glyph-name=".notdef" horiz-adv-x="500" 
 />
    <glyph glyph-name=".null" horiz-adv-x="0" 
 />
    <glyph glyph-name="nonmarkingreturn" horiz-adv-x="500" 
 />
    <glyph glyph-name="space" unicode=" " horiz-adv-x="286" 
 />
    <glyph glyph-name="space" unicode="&#xa0;" horiz-adv-x="286" 
 />
    <glyph glyph-name="FL0021h" unicode="!" 
d="M27 -12h-7l12 65h1l10 45h-1l11 46h163l-1 -6l20 -20l-9 -37h1l-12 -54l-1 -5l-10 -54h-157zM74 211h-7l11 56v1l13 53h10l-3 3h-7l11 51h12l-5 5h-7l13 49h13l-7 7h-7l11 46h20l-11 11h-7l8 43h23l-13 13h-7l11 41h23l-15 15h-7l11 39h163l-2 -6l21 -20l-9 -33h-24v-1
l21 -20l-9 -35h-23l19 -19l-7 -37h-21l17 -17l-9 -40h-14l13 -13l-11 -43h-13l11 -11l-10 -45h-9l9 -9l-12 -48h-6l5 -5l-10 -51h-157zM304 617l4 15h-138l-4 -15h138zM292 561l4 17h-138l-4 -17h138zM280 505l4 19h-138l-4 -19h138zM268 448l5 22h-138l-5 -22h138zM63 132
l-5 -22h138l5 22h-138zM256 392l6 25h-138l-6 -25h138zM244 336l6 27h-138l-6 -27h138zM232 279l7 30h-138l-7 -30h138zM220 223l7 33h-138l-7 -33h138zM173 0l8 41h-138l-8 -41h138zM184 54l9 41h-138l-9 -41h138z" />
    <glyph glyph-name="FL0022h" unicode="&#x22;" horiz-adv-x="404" 
d="M313 482h6l-5 5zM324 536h8l-6 6zM307 521l2 8h-9zM336 590h10l-8 8zM295 463l3 10h-11zM311 584l9 -9l2 10h-11v-1zM145 482l-11 11h-7l8 43h23l-13 13h-7l11 41h23l-15 15h-7l11 39h164l-2 -6l9 -9l4 15h164l-2 -6l21 -20l-9 -33h-24v-1l21 -20l-9 -35h-23l19 -19
l-7 -37h-25l17 -17q-15 -12 -30.5 -22.5t-28.5 -17.5h-96l13 -13v-18q-2 0 -2.5 -0.5t-1.5 -0.5q-4 -1 -21 -1l-20 20h-6v26h17l-7 7h-7l2 10q-25 -20 -46 -30h-96l13 -13v-18q-2 0 -2.5 -0.5t-1.5 -0.5q-4 -1 -21 -1l-20 20h-6v26h17l-7 7h-7l11 46h20zM123 415
q4 0 7.5 0.5t8.5 1.5h-16v-2zM298 415q4 0 7.5 0.5t8.5 1.5h-16v-2zM480 617l4 15h-139l-4 -15h139zM305 617l4 15h-139l-4 -15h139zM310 470l-5 -22h90q19 10 34 22h-119zM135 470l-5 -22h90q19 10 34 22h-119zM468 561l4 17h-139l-4 -17h139zM293 561l4 17h-139l-4 -17
h139zM281 505l4 19h-139l-4 -19h139zM456 505l4 19h-139l-4 -19h139z" />
    <glyph glyph-name="FL0023h" unicode="#" horiz-adv-x="612" 
d="M355 304l7 -7h15l3 18h-12l-3 -11h-10zM314 63q3 8 7 19t9 25h1q2 6 4.5 13t4.5 15h-10l1 -1l-14 -53h1zM556 304l7 -7h69l-1 -5l21 -21l-4 -24h-7l5 -5l-10 -51h-5l3 -3l-10 -53h-93l1 -1l-14 -53h1l-11 -59h-1l-11 -56h-1l-12 -57l-10 -50l-21 19v-2l-59 53l-19 17
l-59 53l-12 10l-8 -43h-1l-12 -57l-10 -50l-21 19v-2l-59 53l-19 17l-59 53l-24 22q1 1 3 4.5t4 5.5q1 1 4 7l0.5 1t2.5 3h-10l8.5 8.5t4.5 5.5q2 2 3 3.5t3 3.5q3 8 7 19t9 25h1q2 6 4.5 13t4.5 15h-56l-20 20h-7l11 59h1l11 54h1l5 29h91l3 18h-58l-20 20h-7l7 40h13l-5 5
h-7l13 49h13l-7 7h-7l11 46h111l-11 11h-7l8 43h23l-13 13h-7l11 41h23l-15 15h-7l11 39h163l-2 -6l21 -20l-9 -33h-24v-1l21 -20l-9 -35h-23l19 -19l-6 -28h34l-11 11h-7l8 43h23l-13 13h-7l11 41h23l-15 15h-7l11 39h163l-2 -6l21 -20l-9 -33h-24v-1l21 -20l-9 -35h-23
l19 -19l-6 -28h68l-2 -6l21 -20l-9 -40h-14l13 -13l-11 -43h-13l11 -11l-6 -34h-93l-3 -11h-10zM451 -66h-45l38 -34zM250 -66h-45l38 -34zM395 617l4 15h-138l-4 -15h138zM596 617l4 15h-138l-4 -15h138zM383 561l4 17h-138l-4 -17h138zM584 561l4 17h-138l-4 -17h138z
M572 505l4 19h-138l-4 -19h138zM371 505l4 19h-138l-4 -19h138zM453 -59l10 46h-116l51 -46h55zM252 -59l10 46h-116l51 -46h55zM488 110l9 38h-141q-5 -19 -12 -38h144zM287 110l9 38h-141q-5 -19 -12 -38h144zM276 54l8 41h-146q-4 -11 -8 -21.5t-8 -19.5h154zM477 54
l8 41h-146q-4 -11 -8 -21.5t-8 -19.5h154zM134 -2h130l9 43h-157q-3 -5 -5.5 -9.5t-4.5 -8.5zM335 -2h130l9 43h-157q-3 -5 -5.5 -9.5t-4.5 -8.5zM531 309h-138l-5 -24h-63l5 24h-138l-5 -24h-91l-1 -6h522l1 6h-92zM398 336h138l3 11h92l3 16h-522l-3 -16h91l-3 -11h138
l3 11h63zM652 448l5 22h-522l-5 -22h522zM640 392l6 25h-522l-6 -25h522zM605 223l7 33h-522l-7 -33h522zM593 167l7 35h-522l-7 -35h522z" />
    <glyph glyph-name="FL0024h" unicode="$" horiz-adv-x="432" 
d="M284 718h-7l7 33h163l-1 -6l20 -20l-6 -27h-156zM230 144l-5 16h1l-14 54h1l-15 54l-14 53h8l-3 3h-5l-14 51h10l-5 5h-5l-14 49h11l-7 7h-5l-13 46h13l-11 11h-6v21q0 3 0.5 8t3.5 14h23l-13 13h-6q0 10 1 14v4q0 1 0.5 2t0.5 2t0.5 1.5t0.5 1.5q1 2 1 4q0 3 5 12h24
l-15 15h-14q25 16 42.5 26.5t28.5 12.5h67l-17 17h-7l10 36h163l-2 -6l21 -20l-7 -27h79l-2 -6l21 -20l-9 -33h-24v-1l21 -20l-9 -35h-23l19 -19l-7 -37h-193l17 -17l9 -40h-9l13 -13l12 -43h-9l11 -11l12 -45h-7l9 -9l13 -48h-5l5 -5l14 -51h-3l3 -3l14 -53h-2l1 -1l4 -14
q2 -8 2 -12v-7v-23h-1q-1 -3 -1 -8v-5q-1 -6 -2 -13.5l-1 -7.5q-1 -1 -1 -2t-1 -2l3 -2l-1.5 -3t-5.5 -8q-12 -19 -24.5 -30.5t-25.5 -18.5q-8 -8 -18.5 -9t-16.5 -1h-25l-11 -47l1 -1l-14 -64h-156l-20 20h-7l11 53l8 39h-70l-20 20h-7l12 65h1l10 45h-1l11 46h177z
M430 730l2 9h-138l-2 -9h138zM418 673l3 12h-138l-3 -12h138zM314 448l-5 22h-151l6 -22h150zM329 392l-7 25h-150l7 -25h150zM343 336l-7 27h-150l7 -27h150zM358 279l-8 30h-150l8 -30h150zM508 617l4 15h-288q-8 -2 -15.5 -6t-15.5 -9h315zM372 223l-9 33h-149l9 -33h149
zM386 167l-9 35h-149l9 -35h149zM496 561l4 17h-337q-2 -4 -2.5 -7.5t-1.5 -6.5q-1 -1 -1 -3h338zM262 -59l10 46h-138l-10 -46h138zM261 -66h-138l-10 -46h138zM484 505l4 19h-337q-1 -3 -1 -10v-9h334zM63 132l-5 -22h336v14q0 10 -1 15l-3 9h-148l5 -16h-184zM43 41
l-8 -41h102l-1 -2h138l1 2h32q5 0 13.5 1t15.5 7q25 10 40 33h-333zM55 95l-9 -41h338q2 4 2.5 7.5t2.5 8.5q2 6 2.5 12t1.5 13h-338z" />
    <glyph glyph-name="FL0025h" unicode="%" horiz-adv-x="668" 
d="M280 484q-1 -1 -2 -1l-1 -1h5zM394 463l6 10h-15zM258 463q1 2 1.5 5t2.5 5h-19l13 -14zM612 321q18 -10 36 -35l5 -5q7 -6 12.5 -14.5t11.5 -19.5h-4l5 -5q4 -14 5 -26.5t3 -24.5h-3l3 -3q-2 -13 -3 -25t-5 -28l1 -1q-8 -32 -16 -53h1q-8 -17 -15 -30.5t-14 -23.5h1
q-25 -27 -51 -43t-54 -16h-20q-34 0 -58 24l-6 6q-24 13 -41 44l-2 4t-3 7h2q-6 22 -6 54v13q0 7 1 15h-1l1 -1l-33 -56h-1l-32 -56h-1l-31 -54h-159l-20 20h-8l37 65h1l26 45l5 9l29 48l3 5l32 54h2l30 53l22 37h-125l-20 20h-4q-17 16 -30 51h11l-5 5h-5q-3 9 -3.5 13.5
t-0.5 9.5v26h11l-7 7h-7q5 14 5.5 17t0.5 5q0 6 1 12t3 12h19l-11 11h-7l8 25q1 2 2 5.5t6 12.5h28l-13 13h-8q8 15 11 20t5 9q2 2 3.5 4.5t3.5 6.5v1h62l-15 15h-5l-6 20q30 18 62 19h26q31 0 79 -39h-5l20 -20h-10v-1l20 -20q0 -14 1 -16q0 -2 2 -7t4 -12h-20l19 -19
q0 -3 -0.5 -10t-0.5 -9v-9h27l-11 11h-8l24 43h30l-13 13h-8l23 41h33l-15 15h-8l22 39h167l-3 -5l21 -21l-19 -33h-34l21 -21l-20 -35h-31l19 -19l-21 -37h-28l17 -17l-23 -40h-22l13 -13l-25 -43h-18l11 -11l-18 -31q1 1 5 3h99zM270 632q-14 -1 -26.5 -5t-23.5 -10h122
q-18 15 -46 15h-26zM226 453q0 4 0.5 8t1.5 9h-93q-2 -8 -2 -12q0 -7 -1 -10h94v5zM638 617l9 15h-138l-9 -15h138zM271 462q-3 -7 -7 -14h97q2 5 3 10.5t3 11.5h-93q-1 -1 -3 -8zM605 561l10 17h-138l-10 -17h138zM572 505l11 19h-138l-11 -19h138zM538 448l13 22h-138
l-13 -22h138zM179 578q-3 -5 -6 -8.5t-5 -8.5h203q-1 5 -1.5 8.5t-1.5 8.5h-189zM556 167h92q2 9 3 17.5t2 17.5h-112q8 -2 11.5 -10t3.5 -18v-7zM427 202q-4 -9 -6.5 -18t-4.5 -17h94q3 11 10.5 21.5t19.5 13.5h-113zM504 392l15 25h-137l-15 -25h137zM505 141q0 5 1 7h-93
q-2 -10 -3 -19.5t-1 -18.5h108q-8 1 -10 8.5t-2 16.5v6zM471 336l16 27h-137l-16 -27h137zM633 110q7 16 12 38h-94q-1 -1 -1 -2q-5 -11 -12 -22.5t-15 -13.5h110zM262 518q10 -3 13 -13h98q0 5 0.5 9.5t0.5 9.5h-224q-2 -5 -3.5 -9.5t-3.5 -9.5h99q9 10 19 13h1zM437 279
l18 30h-137l-18 -30h137zM516 309q-25 -11 -44 -30h167q-11 19 -30 30h-93zM138 363q6 -16 17 -27h134q17 11 29 27h-180zM404 223l19 33h-137l-19 -33h137zM370 167l21 35h-137l-21 -35h137zM336 110l23 38h-137l-23 -38h137zM508 0q25 0 46 11t38 30h-172q9 -19 25.5 -30
t42.5 -11h20zM130 417v-2v-12q0 -8 1 -11h207q3 6 6.5 12t5.5 13h-220zM303 54l24 41h-137l-24 -41h137zM295 41h-137l-24 -41h137zM453 256q-11 -17 -18 -33h218q-1 8 -2 16.5t-3 16.5h-195zM409 95q0 -23 6 -41h188q13 16 24 41h-218z" />
    <glyph glyph-name="FL0026h" unicode="&#x26;" horiz-adv-x="524" 
d="M264 113h1h-1zM567 546q0 -1 -1 -1v1h1zM324 214v11q0 8 -9 22h-7l5 -5q-36 -28 -45 -51h-5l3 -3l-5 -26v-2q-1 -5 -1.5 -8.5t-0.5 -5.5v-4h36q2 2 2.5 3t2.5 3l1 1q0 1 1 2l-1 -1l1 1q0 1 2 3l5 5q0 6 3 11q1 4 2 6.5t2 4.5v-1q0 1 0.5 2t0.5 3q1 1 1 2t1 3l4 24h1z
M486 644q13 -3 49 -39h-4l13 -13h-1q0 1 -1 1l9 -8h-9q0 -2 1 -3l18 -18q2 -6 2.5 -10.5t2.5 -7.5q-2 0 -1 -2t11 -15h-21l19 -19q0 -19 -1 -23q-1 -2 -1 -5l-5 -9h-19l17 -17q-6 -28 -14 -36h-173l-20 20h-7l7 33h-45l17 -17q-12 -23 -15 -40h-15l13 -13q0 -6 1 -13t5 -15
h243l-1 -6l20 -20l-10 -45h-9l9 -9l-12 -48h-6l5 -5l-4 -24h-39v-5q0 -3 0.5 -7t2.5 -15h-4l3 -3q-1 -9 -2.5 -27t-2.5 -26h-3l1 -1q-2 -12 -3 -17t-1 -6h1q-2 -5 -3 -8l-2 -6l-4 -16q-5 -13 -9 -21t-7 -13q-2 -4 -5.5 -8.5t-8.5 -10.5l1 -1q-30 -30 -55.5 -44.5
t-35.5 -14.5h-230q-19 0 -41 22l-6 6q-12 7 -25 20.5t-24 36.5h1q-2 4 -2.5 8t-1.5 9q-3 9 -3 37q0 22 4 31q0 5 1 7q0 5 2 9v-1q0 1 2 5q8 27 19 53h-1q8 15 18.5 29t21.5 27h-4q20 17 37.5 30t31.5 21l-6 6h-3q-20 20 -41 51h13l-5 5h-5q-5 12 -6 21t-3 18q0 2 -0.5 5
t-0.5 5h13l-7 7h-6v23q0 4 0.5 9t3.5 14h20l-11 11h-6q3 20 5.5 27.5t5.5 15.5h27l-13 13h-10q3 3 5.5 7t5.5 9q2 4 4.5 6t3.5 4q1 1 2.5 4.5t5.5 10.5h41l-15 15h-12q49 36 64 39h238zM525 452q3 3 6 18h-161l-4 -18h159zM134 470q-1 -3 -1 -11v-11h151q1 7 9 22h-159z
M288 392q-7 11 -7 25h-147q1 -7 2 -13t3 -12h149zM251 632q-15 -3 -31 -15h287q-12 12 -24 15h-232zM239 223q8 20 25 33h-145q-14 -15 -24 -33h144zM523 250l1 6h-199q11 -11 11 -31v-2h148q-1 5 -1 13q0 9 -1 14h41zM227 167v2q0 4 0.5 8.5t1.5 9.5l3 15h-148
q-4 -8 -7 -17l-6 -18h156zM334 202l-3 -15q-2 -5 -3 -10t-3 -10h156q1 8 1.5 17t1.5 18h-150zM178 578q-3 -5 -6 -8.5t-6 -8.5h371q-2 5 -3 8.5t-3 8.5h-353zM540 507q1 5 1.5 8.5t0.5 8.5h-395q-2 -5 -3.5 -9.5t-2.5 -9.5h398zM541 336l6 27h-396q5 -8 10.5 -14.5
t11.5 -12.5h368zM529 279l7 30h-350q-13 -7 -23.5 -14.5t-20.5 -15.5h387zM355 0q9 0 29 10t41 31h-353q11 -22 26.5 -31.5t26.5 -9.5h230zM467 110q2 6 3.5 12t3.5 12q2 5 3 14h-163q-2 -3 -5.5 -8t-8.5 -10h-64q-5 5 -6.5 10t-1.5 8h-163q-1 -4 -1.5 -7t-1.5 -7
q-4 -8 -4 -24h409zM61 75q1 -12 6 -21h369q7 9 15 21q6 10 10 20h-403q0 -11 3 -20z" />
    <glyph glyph-name="FL0027h" unicode="'" horiz-adv-x="227" 
d="M144 482l-11 11h-7l8 43h23l-13 13h-7l11 41h23l-15 15h-7l11 39h164l-2 -6l21 -20l-9 -33h-24v-1l21 -20l-9 -35h-23l19 -19l-7 -37h-25l17 -17q-15 -12 -30.5 -22.5t-28.5 -17.5h-96l13 -13v-18q-2 0 -2.5 -0.5t-1.5 -0.5q-4 -1 -21 -1l-20 20h-6v26h17l-7 7h-7l11 46
h20zM122 415q4 0 7.5 0.5t8.5 1.5h-16v-2zM304 617l4 15h-139l-4 -15h139zM134 470l-5 -22h90q19 10 34 22h-119zM292 561l4 17h-139l-4 -17h139zM280 505l4 19h-139l-4 -19h139z" />
    <glyph glyph-name="FL0028h" unicode="(" horiz-adv-x="375" 
d="M196 536l-13 13h-10q17 17 24.5 25.5t12.5 15.5h36l-15 15h-12l54 39h196l-1 -6l20 -20l-6 -33h-25v-1l21 -20l-9 -35h-93l18 -19q-1 0 -6.5 -4t-12 -8.5t-12.5 -9t-7 -5.5l-10 -10h-29l17 -17l-12 -24q-2 -5 -9 -16h-17l13 -13q-2 -7 -8 -22t-8 -21h-17l11 -11
q0 -2 -0.5 -8t-0.5 -8q-2 -11 -10 -29h-13l9 -9v-14q-3 -8 -4 -16t-2 -18h-6l5 -5q-3 -26 -3 -51h-3l3 -3q0 -11 0.5 -19t1.5 -14q0 -3 0.5 -9.5t0.5 -9.5l2 -2q3 -12 11 -27h77l-1 -6l20 -20l-10 -55l-1 -4h-1l-12 -48l1 -1l-9 -41h-111q-43 0 -89 41l-5 5q-6 5 -12.5 10
t-13.5 11h5q-8 11 -16 24t-15 30h1q-3 11 -6 23.5t-7 30.5h1q-4 12 -5 18t-1 8t3 5q0 2 -0.5 4t-0.5 5v37v13q0 8 2 17h1v13l-3 3q0 2 2 10t7 27h-2l13 54h9l-3 3h-7l8 32l1 1q0 2 0.5 6t4.5 12h11l-5 5h-8q1 2 2 5t2 5q2 4 3.5 8.5t3.5 12.5q1 2 2.5 8.5t2.5 9.5h18l-7 7
h-6q0 1 0.5 4t0.5 4q1 6 7 19q2 7 3 8.5l3 4.5l0.5 2t2.5 4h26l-11 11h-8q7 15 12.5 24.5t11.5 18.5h26zM451 617l3 15h-178l-21 -15h196zM176 524q-3 -5 -6 -9.5t-5 -9.5h155q5 5 9.5 10t9.5 9h-163zM147 470q-2 -5 -4.5 -11t-4.5 -11h148q3 5 5.5 11t5.5 11h-150zM312 -36
l5 23h-174q26 -23 65 -23h104zM127 417q-2 -7 -4 -13l-4 -12h145q2 6 4.5 12t4.5 13h-146zM111 363q-1 -2 -1 -6t-1 -5l-4 -16h142q2 6 4 12.5t4 14.5h-144zM439 561l4 17h-228q-8 -11 -14 -17h238zM240 309h-140l-7 -30h142q1 8 2 14.5t3 13.5v2zM89 256q-2 -8 -2.5 -16.5
t-1.5 -16.5h145q0 8 0.5 16.5t1.5 16.5h-143zM83 202q-1 -5 -1 -9v-9v-17h151q-1 8 -2 17t-1 18h-147zM82 148q1 -10 1.5 -19.5t2.5 -18.5h171q-14 14 -20 38h-155zM319 -2l10 43h-225q13 -28 28 -43h187zM332 54l8 41h-252q2 -11 5 -21l6 -20h233z" />
    <glyph glyph-name="FL0029h" unicode=")" horiz-adv-x="375" 
d="M260 429l-7 7h-6q0 12 -0.5 19.5t-1.5 14.5q0 2 -0.5 6t-0.5 6h13l-11 11h-5q-3 7 -7.5 14.5t-16.5 21.5h-52l-20 20h-7l11 41h24l-15 15h-7l7 39h194l39 -39h-4l20 -20h-11q0 -1 0.5 -1.5l0.5 -0.5l19 -19q1 -2 2.5 -7t2.5 -7q1 -3 5.5 -12l4.5 -9h-16l19 -19
q0 -13 1 -16q0 -2 2 -8t4 -13h-18l17 -17v-40h-15l13 -13q0 -14 -0.5 -18t-1.5 -9q0 -3 -0.5 -8.5t-0.5 -7.5h-16l11 -11q0 -11 -0.5 -15t-1.5 -7l-6 -23h-9l9 -9l-12 -48h-5l5 -5l-14 -51h-5l3 -3q-5 -13 -9 -26t-11 -27h-1l1 -1q-5 -9 -13 -24.5t-14 -26.5l3 -2
q-1 -1 -6.5 -7.5t-8.5 -9.5q-7 -11 -14 -21t-16 -21q-11 -14 -23 -25t-24 -21l3 -3q-65 -41 -107 -41h-115l-20 20h-7l7 34h-1l16 67l10 54h77q38 29 54 53q4 6 8.5 13.5t10.5 21.5q1 1 3 5l2 4l-1 -1q0 2 7 11h1l19 54q1 5 3 14.5t3 12.5v-1q0 2 0.5 5.5t3.5 9.5v12h13
l-3 3h-6q0 3 1 10t1.5 15t1.5 15t1 11h9l-5 5h-7q4 15 4.5 18.5t0.5 5.5v25h14zM169 632l-3 -15h197l-15 15h-179zM238 524q4 -4 6.5 -9t4.5 -10h156q-1 5 -1.5 9.5t-1.5 9.5h-164zM408 470h-151q1 -5 1.5 -11t0.5 -11h149v10v12zM131 -36q38 0 75 23h-174l-5 -23h104z
M258 417v-13q0 -8 -1 -12h146l2 12t1 13h-148zM396 352q2 8 2 11h-143q-2 -15 -3 -27h140zM158 578l-4 -17h238q-2 4 -3 8t-3 9h-228zM380 279l7 30h-140v-2q-2 -7 -3.5 -13.5t-3.5 -14.5h140zM233 256l-12 -33h145l9 33h-142zM212 202q-5 -9 -9.5 -18t-9.5 -17h152
q4 8 7 17l6 18h-146zM181 148q-15 -24 -36 -38h170q5 9 10.5 18.5t10.5 19.5h-155zM44 41l-10 -43h188q27 20 45 43h-223zM55 95l-8 -41h231q8 9 14.5 19.5t13.5 21.5h-251z" />
    <glyph glyph-name="asterisk" unicode="*" horiz-adv-x="296" 
d="M344 693l-3 -6l21 -20l-12 -23h19v-7l20 -19l4 -33h-46v-2l20 -19l2 -18l-16 -3l6 -7h4l-3 -2l5 -5h-10l19 -19l-59 -37h-39l-12 11l-8 -11h-35l-22 20h-2l-48 43h31l-13 13h-12l26 18l-3 1l2 22l-15 15h-8l21 39h73l-17 17h-6l3 32h113zM242 681l-1 -8h80l4 8h-83z
M229 505l13 19h-61l21 -19h27zM289 505l30 19h-67l7 -19h30zM192 561h131l-9 11l28 6h-157l23 -6zM360 617l-2 15h-173l-8 -15h183z" />
    <glyph glyph-name="FL002Bh" unicode="+" horiz-adv-x="456" 
d="M400 375h93l-1 -6l20 -20l-10 -45h-9l9 -9l-12 -48h-6l5 -5l-4 -24h-118l-6 -27h-4l3 -3l-10 -53h-2l1 -1l-6 -33h-151l-20 20h-7l7 39h1l10 54h1l1 4h-85l-20 20h-7l5 30l13 53h10l-3 3h-7l11 51h130l-5 5h-7l9 49h17l-7 7h-7l8 46h158l-1 -6l20 -20l-7 -40h-17l13 -13z
M315 148h-132l-3 -15h132zM379 448l4 22h-132l-4 -22h132zM367 392l5 25h-132l-5 -25h132zM319 167l7 35h-132l-7 -35h132zM199 223h132l6 27h117l1 6h-366l-1 -6h117zM472 336l6 27h-366l-6 -27h366zM460 279l7 30h-366l-7 -30h366z" />
    <glyph glyph-name="FL002Ch" unicode="," 
d="M10 -88q-2 0 -3 -0.5t-3 -0.5l3 18v2l3 15l12 53l11 54l10 45h-1l11 46h164l-1 -6l20 -20l-9 -37h1l-12 -54l-1 -5l-8 -43l-1 -1q0 -1 -1 -2l3 -3q-22 -17 -49 -35t-53 -29h-14l1 -6q-27 -9 -62 -12zM19 -76q10 1 21.5 3.5t23.5 6.5h-43zM63 132l-5 -22h139l5 22h-139z
M32 -13l-10 -46h60q23 10 43 22.5t34 23.5h-127zM185 54l9 41h-139l-9 -41h139zM182 41h-138l-9 -43h135q3 3 5 8z" />
    <glyph glyph-name="FL002Dh" unicode="-" horiz-adv-x="343" 
d="M80 238h-7l5 30l13 53h10l-3 3h-7l11 51h278l-1 -6l20 -20l-10 -45h-9l9 -9l-12 -48h-6l5 -5l-4 -24h-272zM342 256h-253l-1 -6h253zM359 336l6 27h-253l-6 -27h253zM347 279l7 30h-253l-7 -30h253z" />
    <glyph glyph-name="minus" unicode="." 
d="M27 -12h-7l12 65h1l10 45h-1l11 46h164l-1 -6l20 -20l-9 -37h1l-13 -59l-10 -54h-158zM63 132l-5 -22h139l5 22h-139zM185 54l9 41h-139l-9 -41h139zM174 0l8 41h-139l-8 -41h139z" />
    <glyph glyph-name="FL002Fh" unicode="/" horiz-adv-x="469" 
d="M22 -12h-8l37 65h1l31 54l29 48l3 5l32 54h2l30 53l32 54h14l-3 3h-9l30 51h17l-5 5h-9l29 49h20l-7 7h-8l26 46h27l-11 11h-8l24 43h30l-13 13h-8l23 41h33l-15 15h-8l22 39h167l-3 -5l21 -21l-19 -33h-34l21 -21l-20 -35h-31l19 -19l-21 -37h-28l17 -17l-23 -40h-22
l13 -13l-25 -43h-18l11 -11l-26 -45h-15l9 -9l-28 -48h-10l5 -5l-29 -51h-5l3 -3l-31 -53h-2l1 -1l-33 -56h-1l-32 -56h-1l-31 -54h-159zM539 617l9 15h-138l-9 -15h138zM506 561l10 17h-138l-10 -17h138zM473 505l11 19h-138l-11 -19h138zM439 448l13 22h-138l-13 -22h138z
M405 392l15 25h-137l-15 -25h137zM372 336l16 27h-137l-16 -27h137zM338 279l18 30h-137l-18 -30h137zM305 223l19 33h-137l-19 -33h137zM271 167l21 35h-137l-21 -35h137zM237 110l23 38h-137l-23 -38h137zM172 0l24 41h-137l-24 -41h137zM204 54l24 41h-137l-24 -41h137z
" />
    <glyph glyph-name="FL0040h" unicode="0" horiz-adv-x="551" 
d="M429 429l-7 7h-5q-2 8 -5.5 16.5t-9.5 20.5h-57l17 -17q-5 -5 -16.5 -17t-16.5 -17q-1 -1 -2.5 -3t-2.5 -3h-23l13 -13q-2 -3 -6 -13t-6 -13l-9 -17h-16l11 -11l-6 -23l-2 -8t-5 -14h-11l9 -9q-1 -7 -2.5 -23.5t-2.5 -24.5h-6l5 -5v-51h-2l3 -3q1 -11 2 -20.5t6 -20.5
q6 -3 14 -3h8q15 0 34 16q25 27 39 54h1q17 29 25 54q5 14 9.5 26.5t6.5 26.5h11l-3 3h-7q0 -1 1 6.5t2 12.5q2 10 2 12v8q0 3 0.5 6.5t0.5 5.5h12l-5 5h-6v24q0 2 -0.5 6t-4.5 19h13zM444 644q31 -5 61 -19l-1 -5l20 -20l-3 -10h23q5 -7 6.5 -10t3.5 -5l12 -11q5 -6 7 -10
t4 -6l9 -19h-11v-1l19 -18l2.5 -9t3.5 -13q0 -1 0.5 -7t0.5 -8h-11l17 -17v-20q0 -3 0.5 -10.5t0.5 -9.5h-9l13 -13q-3 -12 -3.5 -16t-0.5 -6q0 -4 -0.5 -8t-2.5 -13h-10l11 -11q-1 -4 -2 -13t-2 -12q-1 -4 -1.5 -7t-0.5 -13h-11l9 -9q-4 -12 -5.5 -17.5t-2.5 -8.5l-4 -22
h-8l5 -5l-18 -51h-3l3 -3q-4 -8 -12.5 -25.5t-13.5 -27.5h-2l1 -1q-11 -22 -16 -30t-10 -15q-2 -2 -6 -8h1q-28 -37 -55 -59h-1q-74 -54 -141 -54h-39q-67 0 -122 55h-1q-17 13 -33 30h3q-8 12 -15 25.5t-13 28.5h1q-4 11 -6.5 22.5t-4.5 25.5q-3 24 -3 59q0 30 3 54h1
q0 2 0.5 4.5t0.5 4.5q2 13 3.5 24.5t3.5 19.5h10l-3 3h-6v4q0 3 1 5q2 5 3 10.5t2 8.5v1q0 2 1 5.5t7 16.5h13l-5 5h-8q2 6 5.5 15.5t5.5 16.5l6 17h16l-7 7h-8q2 3 5 9.5t5 10.5v-1q2 3 3 5l2 4l9 18h26l-11 11h-9l19 29l1.5 2t6.5 12h34l-13 13h-10l17 17q4 4 7.5 7t5.5 5
q3 2 13 12h82l-15 15h-6l-4 21q18 8 37 12t37 6h80zM365 632q-35 -3 -65 -15h194q-23 10 -51 15h-78zM417 470q5 -10 9 -22h150q0 5 -0.5 11t-0.5 11h-158zM298 448q5 6 10 11.5t10 10.5h-164q-3 -5 -5.5 -11t-5.5 -11h155zM432 417q1 -4 1 -13v-12h142q1 4 1 12q0 9 1 13
h-145zM265 392q3 6 6 12.5t6 12.5h-147q-2 -7 -4.5 -13t-4.5 -12h144zM432 363q-1 -7 -1.5 -14t-1.5 -13h139q1 7 2 13.5t2 13.5h-140zM246 336q2 6 3.5 12.5t3.5 14.5h-141q-2 -7 -3.5 -13.5t-3.5 -13.5h141zM423 309q-3 -14 -9 -30h141q2 8 3.5 15t3.5 15h-139zM237 279
q1 16 3 30h-141q-2 -8 -3 -15t-2 -15h143zM405 256q-6 -17 -15 -33h146l12 33h-143zM235 223v14v19h-144q-1 -8 -1.5 -16.5t-0.5 -16.5h146zM245 167q-4 8 -5.5 16.5t-2.5 18.5h-148q0 -9 0.5 -18t1.5 -17h154zM379 202q-11 -22 -24 -35h156q5 10 9 18.5t8 16.5h-149z
M237 578q-5 -5 -9.5 -8.5t-9.5 -8.5h331q-2 4 -4.5 8t-5.5 9h-302zM187 524q-3 -5 -6.5 -9.5t-6.5 -9.5h395q-1 5 -1.5 9.5t-2.5 9.5h-378zM287 0q35 0 65 10.5t57 30.5h-267q39 -41 106 -41h39zM108 95q5 -11 10.5 -21t12.5 -20h294q24 21 40 41h-357zM337 148
q-19 -16 -39 -16h-8q-21 0 -34 16h-162q3 -18 9 -38h374l12 18t12 20h-164z" />
    <glyph glyph-name="FL0031h" unicode="1" horiz-adv-x="303" 
d="M134 493h-7l8 43h23l-13 13h-7l11 41h23l-15 15h-7l11 39h238l-2 -6l21 -20l-9 -33h-24v-1l21 -20l-9 -35h-23l19 -19l-7 -37h-21l17 -17l-9 -40h-14l13 -13l-11 -43h-13l11 -11l-10 -45h-9l9 -9l-12 -48h-6l5 -5l-10 -51h-3l3 -3l-13 -53h-1l1 -1l-11 -56h-1l-10 -56h-1
l-11 -56h-2l-10 -45l1 -1l-12 -61l-21 19v-2l-59 53l-19 17l-59 53l-24 22q1 1 3 4.5t4 5.5q1 1 4 7l0.5 1t2.5 3h-4q11 18 15 27t6 16q1 1 1.5 2.5t1.5 2.5l-1 -2q0 -1 1 2.5t2 6.5q0 1 2 5q1 2 1.5 5t1.5 5t1.5 3.5t1.5 3.5v1q2 4 2 7q1 2 2 7.5t5 20.5q0 3 1 5
q5 14 8.5 27t5.5 27l11 53v1l13 53h10l-3 3h-7l11 51h13l-5 5h-7l9 49h17l-7 7h-7l6 37h-42zM234 -66h-45l38 -34zM343 448l5 22h-139l-4 -22h138zM379 617l4 15h-213l-4 -15h213zM331 392l6 25h-139l-5 -25h138zM367 561l4 17h-213l-4 -17h213zM319 336l6 27h-138l-6 -27
h138zM235 -59l10 46h-115l51 -46h54zM355 505l4 19h-213l-4 -19h213zM307 279l7 30h-138l-7 -30h138zM295 223l7 33h-138l-7 -33h138zM283 167l8 35h-138q-3 -14 -9 -35h139zM271 110l8 38h-140q-2 -10 -5 -19t-6 -19h143zM260 54l8 41h-146q-4 -11 -7.5 -21.5t-8.5 -19.5
h154zM118 -2h130l9 43h-157q-3 -5 -5.5 -9.5t-4.5 -8.5z" />
    <glyph glyph-name="FL0032h" unicode="2" horiz-adv-x="432" 
d="M461 644q13 -3 49 -39h-4l20 -20h-19v-1l20 -20v-12q0 -5 -1 -7q-1 -3 -1 -7q-1 -1 -1 -9h-25l19 -19q-6 -25 -13 -37h-29l17 -17l-28 -40h-22l13 -13l-30 -43h-19l11 -11l-30 -45h-16l9 -9l-32 -48h-8l5 -5l-36 -51h-4l3 -3l-31 -44h142l-1 -6l20 -20l-9 -37h1l-12 -54
l-1 -5l-10 -54h-358l-20 20h-7l11 54h-1l7 27v3q0 3 2 9q2 4 2 5l6 21q0 1 2 5q2 3 4 7l2 4l-1 -1q2 5 5 11.5t7 12.5l7 9h-1l37 56l2 3l38 53l36 54h13l-3 3h-8l34 51h16l-5 5h-8l34 49h19l-7 7h-9l26 37h-136l-20 20h-7l8 43h23l-13 13h-7l11 41h23l-15 15h-7l11 39h300z
M438 448l15 22h-151l-15 -22h151zM399 392l17 25h-150l-17 -25h150zM361 336l18 27h-150l-18 -27h150zM322 279l20 30h-149l-20 -30h149zM170 632l-4 -15h316q-12 12 -24 15h-288zM283 223l23 33h-148l-23 -33h148zM245 167l24 35h-148l-23 -35h147zM158 578l-4 -17h338
q0 2 1 3q1 5 1.5 8.5t0.5 5.5h-337zM146 524l-4 -19h334q4 6 7 19h-337zM232 148h-147l-6 -9q-5 -8 -8 -15l-6 -14h335l5 22h-184zM388 54l9 41h-338q-2 -7 -3 -13t-3 -12l-4 -16h339zM385 41h-338l-9 -41h339z" />
    <glyph glyph-name="FL0033h" unicode="3" horiz-adv-x="445" 
d="M278 375l-5 5h-11q19 15 32 27.5t18 21.5h20l-7 7h-6q0 1 0.5 5.5t0.5 7.5v7q1 4 1 10v7h-167l-20 20h-7l8 43h23l-13 13h-7l11 41h23l-15 15h-7l11 39h285q12 -3 53 -39h-4l20 -20h-12v-2l20 -19q2 -5 3 -10.5l1 -5.5q0 -3 10 -19h-20l19 -19q-4 -11 -4.5 -14t-0.5 -5
q0 -4 -0.5 -7.5t-2.5 -10.5h-22l17 -17q-3 -14 -6 -24.5t-6 -15.5h-19l13 -13q-4 -7 -12.5 -22t-12.5 -21h-20l11 -11q-32 -32 -52 -45h-27q8 -8 16.5 -17.5t17.5 -19.5q4 -5 7 -9t7 -9l3 -2h-5l5 -5q10 -26 14 -51h-2l3 -3v-32q0 -4 -0.5 -8t-2.5 -13h-1l1 -1
q-2 -12 -3 -17t-1 -6h1q-2 -5 -3 -8l-2 -6l-4 -16q-5 -13 -9 -21t-7 -13q-2 -4 -5.5 -8.5t-8.5 -10.5l1 -1q-30 -30 -55.5 -44.5t-35.5 -14.5h-276l-20 20h-7l14 65l8 45l1 4l1 5l10 35h186q2 2 2.5 3t2.5 3l1 1q0 1 1 2l-1 -1q1 2 4 5l4 4q0 6 3 11q1 4 2 6.5t2 4.5v-1
q0 1 0.5 2t0.5 3q1 1 1 2t1 3q0 5 0.5 6.5t1.5 3.5v13q-6 16 -26 34h-12l-20 20h-7l10 54h12l-3 3h-7l11 51h54zM482 448q3 6 7 22h-156v-4q0 -5 -0.5 -9t-1.5 -9h151zM452 392q4 6 7.5 12t7.5 13h-148q-7 -12 -23 -25h156zM170 632l-4 -15h302q-14 12 -25 15h-273zM234 363
l-6 -27h166q18 12 33 27h-193zM222 309l-6 -30h185q-7 8 -14.5 15.5t-17.5 14.5h-147zM251 256q19 -13 25 -33h147q-3 18 -9 33h-163zM278 202v-5l-0.5 -2.5l-1.5 -7.5q-2 -5 -3 -10t-3 -10h155q1 4 1 12v14v9h-148zM158 578l-4 -17h344q-2 5 -2.5 8.5t-2.5 8.5h-335z
M146 524l-4 -19h356q1 3 1 9q0 7 1 10h-354zM259 148q-2 -3 -5.5 -8t-8.5 -10h-182l-5 -20h354q2 6 3.5 12t3.5 12q2 5 3 14h-163zM44 41l-9 -41h265q9 0 29 10t41 31h-326zM55 95l-8 -41h334q7 9 15 21q6 10 10 20h-351z" />
    <glyph glyph-name="FL0034h" unicode="4" horiz-adv-x="469" 
d="M288 375h68l-5 5h-7l9 49h16l-7 7h-7l11 46h20l-11 11h-7l8 43h23l-13 13h-7l11 41h23l-15 15h-7l11 39h163l-2 -6l21 -20l-9 -33h-24v-1l21 -20l-9 -35h-23l19 -19l-7 -37h-21l17 -17l-9 -40h-14l13 -13l-11 -43h-13l11 -11l-10 -45h-9l9 -9l-12 -48h-6l5 -5l-10 -51h-3
l3 -3l-13 -53h-1l1 -1l-11 -56h-1l-10 -56h-1l-11 -56h-2l-10 -45l1 -1l-12 -61l-21 19v-2l-59 53l-19 17l-59 53l-24 22q1 1 3 4.5t4 5.5q1 1 4 7l0.5 1t2.5 3h-4q11 18 15 27t6 16q1 1 1.5 2.5t1.5 2.5l-1 -2q0 -1 1 2.5t2 6.5q0 1 2 5q1 2 1.5 5t1.5 5t1.5 3.5t1.5 3.5v1
q2 4 2 7q1 2 2 7.5t5 20.5q0 3 1 5q5 14 8.5 27t5.5 27l1 4h-209l-20 20h-7l5 30l13 53h10l-3 3h-7l11 51h12l-5 5h-7l13 49h13l-7 7h-7l11 46h20l-11 11h-7l8 43h23l-13 13h-7l11 41h23l-15 15h-7l11 39h162l-2 -6l21 -20l-9 -33h-24v-1l21 -20l-9 -35h-23l19 -19l-7 -37
h-21l17 -17l-9 -40h-16l13 -13zM400 -66h-45l38 -34zM303 617l4 15h-137l-4 -15h137zM545 617l4 15h-138l-4 -15h138zM291 561l4 17h-137l-4 -17h137zM533 561l4 17h-138l-4 -17h138zM279 505l4 19h-137l-4 -19h137zM521 505l4 19h-138l-4 -19h138zM267 448l5 22h-137
l-5 -22h137zM509 448l5 22h-138l-5 -22h138zM255 392l5 25h-136l-6 -25h137zM497 392l6 25h-139l-5 -25h138zM401 -59l10 46h-115l51 -46h54zM449 167l8 35h-138q-3 -14 -9 -35h139zM437 110l8 38h-140q-2 -10 -5 -19t-6 -19h143zM461 223l7 33h-379l-1 -6h241l-6 -27h138z
M426 54l8 41h-146q-4 -11 -7.5 -21.5t-8.5 -19.5h154zM284 -2h130l9 43h-157q-3 -5 -5.5 -9.5t-4.5 -8.5zM485 336l6 27h-379l-6 -27h379zM473 279l7 30h-379l-7 -30h379z" />
    <glyph glyph-name="FL0035h" unicode="5" horiz-adv-x="432" 
d="M135 508l4 28h23l-13 13h-7l11 41h23l-15 15h-7l11 39h363l-2 -6l21 -20l-9 -33h-24v-1l21 -20l-9 -35h-23l19 -19l-7 -37h-193l17 -17l9 -40h-9l13 -13l12 -43h-9l11 -11l12 -45h-7l9 -9l13 -48h-5l5 -5l14 -51h-3l3 -3l14 -53h-2l1 -1l5 -15l-1 1q2 -4 2 -15v-23l1 -1
q-1 -4 -2 -13t-2 -12q-2 -8 -2 -9v-3q-1 -1 -1 -2t-1 -2l3 -2l-1.5 -3t-5.5 -8q-12 -19 -24.5 -30.5t-25.5 -18.5q-8 -8 -18.5 -9t-16.5 -1h-283l-20 20h-7l12 65h1l10 45h-1l11 46h177l-5 16h1l-13 51l-1 3l-15 54l-14 53h8l-3 3h-5l-14 51h10l-5 5h-5l-14 49h11l-7 7h-5
l-13 46h14l-11 11h-6zM314 448l-5 22h-152l6 -22h151zM329 392l-7 25h-151l7 -25h151zM343 336l-7 27h-151l7 -27h151zM358 279l-8 30h-151l8 -30h151zM372 223l-9 33h-150l9 -33h150zM508 617l4 15h-338l-4 -15h338zM386 167l-9 35h-149l9 -35h149zM496 561l4 17h-338
l-4 -17h338zM148 505h336l4 19h-338l-3 -15zM63 132l-5 -22h336v8v10q0 10 -1 11l-3 9h-148l5 -16h-184zM307 0q5 0 13.5 1t15.5 7q25 10 40 33h-333l-8 -41h272zM389 70l2 12t2 13h-338l-9 -41h338q2 4 2.5 7.5t2.5 8.5z" />
    <glyph glyph-name="FL0036h" unicode="6" horiz-adv-x="489" 
d="M287 129q1 -3 4 -4zM274 169q1 -5 2 -10.5t4 -15.5q8 -2 12 -2h19l4 19h1l10 54h1l1 4h-60v-5q0 -3 0.5 -7t2.5 -15h-4l3 -3q1 -4 2 -10t2 -9zM273 -32q-67 0 -124 55q-17 13 -33 30h2q-8 11 -15 25t-13 29h1q-4 11 -6.5 22.5t-4.5 25.5q-3 24 -3 59q0 30 3 54h1
q0 2 0.5 4.5t0.5 4.5q2 13 3.5 24.5t3.5 19.5h10l-3 3h-6v4q0 3 1 5q2 5 3 10.5t2 8.5v1q0 2 1 5.5t7 16.5h12l-5 5h-6q0 5 4 15q2 4 3.5 8.5t0.5 2.5l10 23h19l-7 7h-7q5 14 7 19t4 9q1 2 3 8l2 4l3 6h26l-11 11h-9l19 29l1.5 2t6.5 12h32l-13 13h-10l27 27l11 14h74
l-15 15h-5l-6 20q30 16 61 19h248l-2 -6l21 -20l-9 -33h-24v-1l21 -20l-9 -35h-23l19 -19l-7 -37h-223l17 -17q-5 -5 -16.5 -17t-16.5 -17q-1 -1 -2.5 -3t-2.5 -3h-20l13 -13q-5 -8 -9.5 -15t-8.5 -13h223l-1 -6l20 -20l-10 -45h-11l9 -9l-9 -48h-7l5 -5l-10 -51h-5l3 -3
l-10 -53h-2l1 -1l-11 -56h-1l-12 -56l-10 -54h-191zM301 448q5 6 10 11.5t10 10.5h-166q-2 -5 -5 -11t-5 -11h156zM266 392q3 7 6.5 13t7.5 12h-149q-2 -7 -5 -13t-5 -12h145zM564 617l4 15h-231q-26 -3 -50 -15h277zM468 167l7 35h-138l-7 -35h138zM247 167q-3 8 -4.5 16.5
t-3.5 18.5h-150q0 -9 0.5 -18t1.5 -17h156zM552 561l4 17h-323q-4 -5 -7.5 -8.5l-8.5 -8.5h335zM540 505l4 19h-356q-3 -5 -6.5 -9.5t-6.5 -9.5h365zM342 223h138l7 33h-396q-1 -8 -1.5 -16.5t-0.5 -16.5h148q-1 5 -1 13v14h112zM504 336l6 27h-398q-2 -7 -3.5 -13.5
t-3.5 -13.5h399zM441 41h-298q39 -41 107 -41h183zM492 279l6 30h-399q-2 -8 -3 -15t-2 -15h398zM456 110l8 38h-138l-4 -19h-30q-22 0 -35 19h-163q3 -18 9 -38h353zM444 54l9 41h-345q9 -23 24 -41h312z" />
    <glyph glyph-name="FL0037h" unicode="7" horiz-adv-x="429" 
d="M134 493h-7l8 43h23l-13 13h-7l11 41h23l-15 15h-7l11 39h364l-2 -6l21 -20l-9 -33h-24v-1l20 -20l-6 -35h-23l19 -19l-6 -24l-9 -13h-24l17 -17l-23 -40h-21l13 -13l-24 -43h-18l11 -11l-25 -45h-15l9 -9l-27 -48h-8l5 -5l-28 -51h-5l3 -3l-30 -53h-1l1 -1l-32 -56h-1
l-31 -56h-1l-30 -54h-162l-20 20h-8l29 54l3 5l3 6l30 54l29 53l30 54l29 53l30 54h13l-3 3h-8l28 51h16l-5 5h-8l27 49h19l-7 7h-8l20 37h-144zM447 448l13 22h-150l-12 -22h149zM416 392l14 25h-149l-14 -25h149zM384 336l15 27h-148l-15 -27h148zM351 279l17 30h-147
l-17 -30h147zM320 223l18 33h-146l-18 -33h146zM288 167l20 35h-146l-19 -35h145zM505 617l4 15h-339l-4 -15h339zM255 110l22 38h-145l-21 -38h144zM494 561l3 17h-339l-4 -17h340zM216 41h-143l-22 -41h142zM224 54l23 41h-144l-23 -41h144zM486 524h-340l-4 -19h337l4 6z
" />
    <glyph glyph-name="FL0038h" unicode="8" horiz-adv-x="526" 
d="M264 113h1h-1zM349 214q-3 16 -19 33h-34l5 -5l4 -15q-22 -13 -34 -34l6 -5l-11.5 -11.5t-1.5 -2.5q-2 -8 -3 -11v-3q-1 -5 -1.5 -8.5t-0.5 -5.5v-4h62q2 2 2.5 3t2.5 3l1 1q0 1 1 2l-1 -1q1 2 4 5l4 4q2 8 3 11q1 4 2 6.5t2 4.5v-1q0 1 0.5 2t0.5 3q0 1 2 5v1
q0 1 0.5 2.5t0.5 2.5q1 2 1.5 6t0.5 12h1zM413 429l-7 7h-6q0 1 0.5 5.5t0.5 7.5v7q1 4 1 10v7h-89l17 -17q-12 -23 -15 -40h-16l13 -13q0 -16 4 -28h57l-5 5h-10q14 14 22.5 25t13.5 24h19zM526 644q14 -3 50 -39h-4l13 -13h-1q0 1 -1 1l9 -8h-9v-2l20 -19q2 -5 3 -10.5
l1 -5.5q0 -3 10 -19h-19l19 -19q-4 -11 -4.5 -14t-0.5 -5q0 -4 -0.5 -7.5t-2.5 -10.5h-22l17 -17q-3 -14 -6 -24.5t-6 -15.5h-19l13 -13q-4 -7 -12.5 -22t-12.5 -21h-20l11 -11q-32 -32 -52 -45h-27q8 -8 16.5 -17.5t17.5 -19.5q4 -5 7 -9t7 -9l3 -2h-5l5 -5q10 -26 14 -51
h-2l3 -3v-32q0 -4 -0.5 -8t-2.5 -13h-1l1 -1q-2 -12 -3 -17t-1 -6h1q-2 -5 -3 -8l-2 -6l-4 -16l-1 -3q-5 -11 -8.5 -18.5t-6.5 -12.5q-2 -4 -5.5 -8.5t-8.5 -10.5l1 -1q-30 -30 -55.5 -44.5t-35.5 -14.5h-256q-19 0 -41 22l-6 6q-12 7 -25 20.5t-24 36.5h1q-2 4 -2.5 8
t-1.5 9q-3 9 -3 37q0 22 4 31q0 5 1 7q0 5 2 9v-1q0 1 2 5q8 27 19 53h-1q8 15 18.5 29t21.5 27h-4q20 17 37.5 30t31.5 21l-6 6h-3q-20 20 -41 51h13l-5 5h-5q-5 12 -6 21t-3 18q0 2 -0.5 5t-0.5 5h13l-7 7h-6v23q0 4 0.5 9t3.5 14h20l-11 11h-6q3 20 5.5 27.5t5.5 15.5h27
l-13 13h-10q3 3 5.5 7t5.5 9q2 4 4.5 6t3.5 4q1 1 2.5 4.5t5.5 10.5h41l-15 15h-12q49 36 64 39h278zM414 470v-4q0 -5 -0.5 -9t-1.5 -9h151q3 6 7 22h-156zM284 448q1 7 9 22h-159q-1 -3 -1 -11v-11h151zM286 392q-6 10 -6 25h-146q1 -7 2 -13t3 -12h147zM402 417
q-5 -14 -16 -25h147q4 6 7.5 12t7.5 13h-146zM251 632q-15 -3 -31 -15h328q-12 12 -25 15h-272zM341 256q17 -13 19 -33h144q-3 18 -9 33h-154zM242 223q11 22 32 33h-155q-14 -15 -24 -33h147zM360 202q0 -4 -1 -7.5t-2 -7.5q-2 -5 -3 -10t-3 -10h155q1 4 1 12v14v9h-147z
M227 167v2q0 4 0.5 8.5t1.5 9.5t2 9t2 6h-149q-4 -8 -7 -17l-6 -18h156zM178 578q-3 -5 -6 -8.5t-6 -8.5h412q-2 5 -2.5 8.5t-2.5 8.5h-395zM147 524q-2 -5 -3.5 -9.5t-2.5 -9.5h438q1 3 1 9q0 7 1 10h-434zM330 363h-179q5 -8 10.5 -14.5t11.5 -12.5h302q18 12 33 27h-173
q-1 -1 -3 -1zM186 309q-13 -7 -23.5 -14.5t-20.5 -15.5h340q-7 8 -14.5 15.5t-17.5 14.5h-264zM72 41q11 -22 26.5 -31.5t26.5 -9.5h256q9 0 29 10t41 31h-379zM340 148q-2 -3 -5.5 -8t-8.5 -10h-90q-5 5 -6.5 10t-1.5 8h-163q-1 -4 -1.5 -7t-1.5 -7q-4 -8 -4 -24h435
q2 6 3.5 12t3.5 12q2 5 3 14h-163zM58 95q0 -11 3 -20q1 -12 6 -21h395q7 9 15 21q6 10 10 20h-429z" />
    <glyph glyph-name="FL003Ah" unicode="9" horiz-adv-x="488" 
d="M362 429l-7 7h-5q-3 5 -4 11q-2 6 -2 10v4q-2 2 -7 12h-48l17 -17l-7 -40h-17l13 -13l-6 -28h76l-5 5h-6q0 13 -0.5 19.5t-1.5 11.5v18h10zM33 53l10 45h-1l11 46h171q8 2 16 5.5t16 9.5q18 16 30 30t19 25h3l2 5h-210l-20 20h-7l5 29h1l10 53h12l-3 3h-7l11 51h12l-5 5
h-7l13 49h13l-7 7h-7l11 46h20l-11 11h-7l8 43h23l-13 13h-7l11 41h23l-15 15h-7l11 39h213q31 -5 61 -19l-1 -5l20 -20l-3 -10h26q2 -7 4 -9l17 -17q3 -8 6 -11q0 -2 2 -2q2 -2 7.5 -11t7.5 -11h-12v-1l19 -18q1 -3 2.5 -8.5t2.5 -7.5q1 -3 4.5 -11t4.5 -10h-19l17 -17
q2 -7 2.5 -11.5t0.5 -8.5q0 -2 0.5 -5.5t4.5 -14.5h-16l13 -13q0 -4 -0.5 -11.5t-0.5 -10.5v-21h-12l11 -11q-1 -4 -2 -13t-2 -12q-1 -4 -1.5 -7t-0.5 -13h-11l9 -9q-4 -12 -5.5 -17.5t-2.5 -8.5l-4 -22h-8l5 -5q-8 -29 -18 -51h-3l3 -3q-4 -8 -12.5 -25.5t-13.5 -27.5h-2
l1 -1q-2 -3 -6 -11t-6 -11q-4 -6 -9 -14.5t-10 -15.5l2 -1q-14 -16 -25 -29.5t-22 -24.5h1q-1 -1 -2 -1.5t-2 -1.5l-2 -2q-66 -54 -119 -54h-228l-20 20h-7l12 65h1zM268 448l4 22h-137l-5 -22h138zM353 470q2 -5 3 -10.5t3 -11.5h153q-1 3 -1 11t-1 11h-157zM256 392l5 25
h-137l-6 -25h138zM170 632l-4 -15h258q-23 10 -51 15h-203zM364 417q1 -7 1.5 -13t0.5 -12h146q0 6 0.5 12t0.5 13h-149zM158 578l-4 -17h328q-3 5 -6 8.5t-6 8.5h-312zM313 202q-12 -20 -29 -35h164q5 10 9 18.5t8 16.5h-152zM340 251q-3 -8 -6.5 -14.5t-7.5 -13.5h147
q7 16 12 33h-396l-1 -5h252zM146 524l-4 -19h362q-2 5 -3 9.5t-3 9.5h-352zM112 363l-6 -27h399q1 7 2 13.5t2 13.5h-397zM261 148q-15 -11 -33 -16h-165l-5 -22h356q7 9 12.5 18.5t11.5 19.5h-177zM43 41l-8 -41h217q54 0 101 41h-310zM100 309l-6 -30h398q2 8 3.5 15
t3.5 15h-399zM55 95l-9 -41h321q10 9 19 19.5t18 21.5h-349z" />
    <glyph glyph-name="FL003Bh" unicode=":" 
d="M98 324h-7l11 51h13l-5 5h-7l9 49h165l-1 -6l20 -20l-8 -43h-14l11 -11l-10 -45h-157zM27 -12h-7l12 65h1l10 45h-1l11 46h164l-1 -6l20 -20l-9 -37h1l-12 -54l-1 -5l-10 -54h-158zM63 132l-5 -22h139l5 22h-139zM257 392l5 25h-139l-5 -25h139zM245 336l6 27h-139
l-6 -27h139zM185 54l9 41h-139l-9 -41h139zM174 0l8 41h-139l-8 -41h139z" />
    <glyph glyph-name="FL003Dh" unicode=";" 
d="M98 324h-7l11 51h13l-5 5h-7l9 49h165l-1 -6l20 -20l-8 -43h-14l11 -11l-10 -45h-157zM10 -88q-2 0 -3 -0.5t-3 -0.5l3 18l3 17l12 53l11 54l10 45h-1l11 46h164l-1 -6l20 -20l-9 -37h1l-12 -54l-1 -5l-8 -43l-1 -1q0 -1 -1 -2l3 -3q-22 -17 -49 -35t-53 -29h-14l1 -6
q-27 -9 -62 -12zM19 -76q10 1 21.5 3.5t23.5 6.5h-43zM63 132l-5 -22h139l5 22h-139zM257 392l5 25h-139l-5 -25h139zM245 336l6 27h-139l-6 -27h139zM32 -13l-10 -46h60q23 10 43 22.5t34 23.5h-127zM185 54l9 41h-139l-9 -41h139zM182 41h-138l-9 -43h135q3 3 5 8z" />
    <glyph glyph-name="FL003Ch" unicode="&#x3c;" horiz-adv-x="347" 
d="M151 -12h-6l-9 54h-1l-10 56l-9 57h-1l-10 59l-9 53l-9 54h15l-3 3h-9l30 51h18l-5 5h-9l29 49h20l-7 7h-8l26 46h26l-11 11h-9l28 43h29l-13 13h-8l23 41h33l-15 15h-8l22 39h167l-3 -5l21 -21l-19 -33h-34l21 -21l-20 -35h-30l19 -19l-24 -37h-27l17 -17l-23 -40h-21
l13 -13l-25 -43h-19l11 -11l-26 -45h-17l9 -9l8 -48h-4l5 -5l9 -51h-3l3 -3l9 -53h-1l1 -1l10 -56h-1l9 -50l1 -1l10 -59h-156zM418 617l9 15h-138l-9 -15h138zM385 561l10 17h-138l-10 -17h138zM351 505l12 19h-138l-12 -19h138zM317 448l13 22h-138l-13 -22h138zM284 392
l15 25h-138l-15 -25h138zM250 336l16 27h-138l-16 -27h138zM245 279l-5 30h-138l5 -30h138zM255 223l-6 33h-138l6 -33h138zM264 167l-6 35h-138l6 -35h138zM274 110l-7 38h-137l6 -38h138zM293 0l-7 41h-137l7 -41h137zM283 54l-7 41h-137l7 -41h137z" />
    <glyph glyph-name="FL003Fh" unicode="=" horiz-adv-x="415" 
d="M63 155h-7l11 59h1l11 54h1l5 29h350l-1 -5l21 -21l-4 -24h-7l5 -5l-10 -51h-5l3 -3l-10 -53h-344zM101 335h-7l7 40h13l-5 5h-7l13 49h13l-7 7h-7l11 46h350l-2 -6l21 -20l-9 -40h-14l13 -13l-11 -43h-13l11 -11l-6 -34h-344zM95 279h325l1 6h-325zM437 363h-325l-3 -16
h325zM455 448l5 22h-325l-5 -22h325zM443 392l6 25h-325l-6 -25h325zM408 223l7 33h-325l-7 -33h325zM396 167l7 35h-325l-7 -35h325z" />
    <glyph glyph-name="FL003Eh" unicode="&#x3e;" horiz-adv-x="346" 
d="M21 -12h-8l37 65l26 45l5 9l29 48l3 5l30 51l2 3l31 53l32 54h8l-3 3h-6l-9 51h10l-5 5h-6l-7 49h11l-7 7h-6l-5 46h13l-11 11h-6l-6 43h16l-13 13h-6l-7 41h18l-15 15h-6l-4 39h162v-7l20 -19l4 -33h-14v-3l19 -18l6 -35h-16l19 -19l6 -37h-14l17 -17l5 -40h-10l13 -13
l7 -43h-9l11 -11l8 -45h-6l9 -9l-28 -48h-8l5 -5l-30 -51h-5l3 -3l-31 -53h-2l1 -1l-33 -56h-1l-32 -56h-1l-31 -54h-159zM309 617l-2 15h-138l2 -15h138zM319 561l-3 17h-138l3 -17h138zM328 505l-3 19h-138l3 -19h138zM337 448l-3 22h-138l3 -22h138zM346 392l-4 25h-138
l4 -25h138zM356 336l-5 27h-138l5 -27h138zM336 279l18 30h-138l-18 -30h138zM303 223l20 33h-138l-20 -33h138zM270 167l21 35h-138l-21 -35h138zM236 110l23 38h-138l-23 -38h138zM195 41h-137l-24 -41h137zM203 54l24 41h-138l-24 -41h138z" />
    <glyph glyph-name="FL0F4Eh" unicode="?" horiz-adv-x="445" 
d="M92 -12h-7l12 65h1l10 45h-1l11 46h163l-1 -6l20 -20l-9 -37h1l-12 -54l-1 -5l-10 -54h-157zM290 375l-5 5h-5l-6 20q12 6 21 13.5t15 15.5h22l-7 7h-6q0 1 0.5 5.5t0.5 7.5v7q1 4 1 10v7h-167l-20 20h-7l8 43h23l-13 13h-7l11 41h23l-15 15h-7l11 39h285q12 -3 53 -39
h-4l20 -20h-12v-2l20 -19q2 -5 3 -10.5l1 -5.5q0 -3 10 -19h-20l19 -19q-4 -11 -4.5 -14t-0.5 -5q0 -4 -0.5 -7.5t-2.5 -10.5h-21l17 -17q-3 -14 -6 -24.5t-6 -15.5h-15l13 -13q-9 -13 -10 -17q-2 -5 -7 -13.5t-7 -12.5h-22l11 -11q-13 -17 -23 -27t-20 -18h-48l9 -9l4 -15
q-18 -9 -35 -16t-34 -12l-1 -5h-6l5 -5l-10 -51h-157l-20 20h-7l11 57l13 53h5l-3 3h-10q20 20 34 32.5t29 18.5h79zM261 110l5 22h-138l-5 -22h138zM483 448q3 6 7 22h-157v-4q0 -5 -0.5 -9t-1.5 -9h152zM457 392q4 6 7 12t7 13h-155q-12 -15 -30 -25h171zM170 632l-4 -15
h302q-14 12 -25 15h-273zM285 223l7 33h-138l-7 -33h138zM166 309l-7 -30h138l1 4q33 9 68 26h-200zM238 0l8 41h-138l-8 -41h138zM249 54l9 41h-138l-9 -41h138zM158 578l-4 -17h344q-2 5 -2.5 8.5t-2.5 8.5h-335zM213 363q-13 -5 -20.5 -11.5t-16.5 -15.5h231q8 6 15 12.5
t13 14.5h-222zM146 524l-4 -19h356q1 3 1 9q0 7 1 10h-354z" />
    <glyph glyph-name="FL0184h" unicode="@" horiz-adv-x="720" 
d="M748 605l20 -20h-11q1 -1 1 -4l18 -17q4 -8 5.5 -14.5t3.5 -20.5h-13l19 -19v-5t1 -6q1 -5 1 -26h-18l17 -17q0 -13 -1 -22.5t-2 -17.5h-12l13 -13q-5 -14 -6 -19t-2 -8v-1h-1v-3q-1 -2 -1 -6v-6h-17l11 -11q-3 -13 -6 -24.5t-8 -20.5h-13l9 -9q0 -1 -3.5 -8t-8 -17
t-6.5 -14q-1 -1 -3.5 -4.5t-3.5 -4.5h-6l5 -5q-20 -30 -39 -51h-4l3 -3q-23 -20 -44 -33.5t-39 -19.5h-251q-3 2 -6 4.5t-6 5.5l-10 10h-3q-13 8 -22 22t-16 34h-1q-4 17 -4 56h-1q0 2 0.5 5t0.5 5q2 13 3.5 24.5t3.5 19.5h10l-3 3h-7l17 51h17l-5 5h-8q1 2 4 7t6 11l5.5 11
t4.5 8l6 12h22l-7 7h-12q61 46 103 46h125l-2 -6l21 -20l-9 -40h-16l13 -13l-8 -43h-14l11 -11l-7 -31l1 1q0 1 1 2h15l-3 3h-8l10 22l10 22q-1 -1 0.5 2l2.5 5h12l-5 5h-7q2 8 5 18t3 8v1v5q0 4 1 6v1q0 2 0.5 5.5t0.5 4.5h17l-7 7h-6v46h11l-11 11h-5q-4 6 -11.5 15.5
t-19.5 20.5h-197l19 -19q-20 -14 -28.5 -22t-13.5 -15h-30l17 -17q-11 -20 -20 -40h-20l13 -13q-2 -7 -8 -22t-8 -21h-17l11 -11q0 -2 -0.5 -8t-0.5 -8q-2 -11 -10 -29h-13l9 -9v-14q-3 -8 -4 -16t-2 -18h-5l5 -5q-2 -11 -2.5 -16.5t-0.5 -9.5v-25h-3l3 -3q0 -14 1.5 -26.5
t3.5 -26.5l1 -1q3 -16 10 -27h387l-1 -6l20 -20l-10 -55l-1 -4h-1l-12 -48l1 -1l-9 -41h-421q-43 0 -89 41l-5 5q-6 5 -12.5 10t-13.5 11h5q-8 11 -16 24t-15 30h1q-3 11 -6 23.5t-7 30.5h1q-4 12 -5 18t-1 8t3 5q0 2 -0.5 4t-0.5 5v37v13q0 8 2 17h1v13l-3 3q0 2 2 10t7 27
h-2l13 54h9l-3 3h-7l8 32l1 1q0 2 0.5 6t4.5 12h11l-5 5h-8q1 2 2 5t2 5q2 4 3.5 8.5t3.5 12.5q1 2 2.5 8.5t2.5 9.5h18l-7 7h-6q0 1 0.5 4t0.5 4q1 6 7 19q2 7 3 8.5l3 4.5l0.5 2t2.5 4h26l-11 11h-8q7 15 12.5 24.5t11.5 18.5h26l-13 13h-10q17 17 24.5 25.5t12.5 15.5h36
l-15 15h-12l54 39h438q4 -3 7.5 -6.5l8.5 -8.5l24 -24h-4zM517 279l6 30h-92l-7 -30h93zM398 279q-1 3 -1 13v8q0 6 1 9h-93q-2 -8 -3 -15t-2 -15h98zM761 505q0 5 -0.5 9.5t-1.5 9.5h-165q9 -8 14 -19h153zM177 524q-3 -5 -6 -9.5t-5 -9.5h156q5 5 9.5 10t9.5 9h-164z
M758 448q1 5 1.5 11t0.5 11h-143v-10v-12h141zM148 470q-2 -5 -4.5 -11t-4.5 -11h148q5 11 11 22h-150zM553 448l5 22h-110q-39 0 -68 -22h173zM748 392q0 1 2 9l1 3q2 10 3 13h-141q-2 -10 -2 -11q-1 -9 -3 -14h140zM128 417q-2 -7 -4 -13l-4 -12h144q2 6 4.5 12t4.5 13
h-145zM112 363q-1 -2 -1 -6t-1 -5l-4 -16h141q2 6 4 12.5t4 14.5h-143zM731 336q6 13 9 27h-141q-6 -15 -12 -27h144zM101 309l-7 -30h141q1 8 2 14.5t3 13.5v2h-139zM90 256q-2 -8 -2.5 -16.5t-1.5 -16.5h145v16v9t1 8h-142zM705 279q4 7 8 14.5t7 15.5h-151
q-14 -18 -33 -30h169zM541 392l5 25h-196q-4 -6 -8 -12.5t-7 -12.5h206zM84 202q-1 -5 -1 -9v-9v-17h151q-3 16 -3 35h-147zM441 356l-5 -20h93l6 27h-214l-9 -27h96q5 7 10.5 12.5t13.5 7.5h9zM83 148q1 -10 1.5 -19.5t2.5 -18.5h171q-13 13 -19 38h-156zM724 617l-7.5 7.5
t-8.5 7.5h-431l-21 -15h468zM752 561q-1 8 -5 17h-531q-8 -11 -14 -17h550zM584 167q29 11 58 35h-333q8 -23 26 -35h249zM628 -13h-484q26 -23 65 -23h414zM664 223q17 18 26 33h-390q0 -18 3 -33h361zM630 -2l10 43h-535q13 -28 28 -43h497zM643 54l8 41h-562q2 -11 5 -21
l6 -20h543z" />
    <glyph glyph-name="FL0041h" unicode="A" horiz-adv-x="490" 
d="M378 517l2 12h-12zM302 416l10 -10h44l5 23h14l-7 7h-7l11 46h20l-11 11h-7l1 5q-16 -17 -21 -25h-31l17 -17q-3 -6 -10.5 -20.5t-10.5 -19.5h-17zM191 536l-13 13h-10q3 3 5.5 7t5.5 9q2 4 4 6t3 4q1 1 2.5 4.5t5.5 10.5h35l-15 15h-10q14 14 21.5 22.5t13.5 16.5h44
l-17 17h-13l54 36h290l-2 -6l21 -20l-8 -30h-25v-3l20 -20l-6 -33h-25v-1l21 -20l-9 -35h-23l19 -19l-7 -37h-21l17 -17l-9 -40h-14l13 -13l-11 -43h-13l11 -11l-10 -45h-11l9 -9l-9 -48h-7l5 -5l-10 -51h-5l3 -3l-10 -53h-2l1 -1l-11 -56h-1l-11 -51l-1 -5l-10 -54h-172
l-20 20h-7l12 65h1l10 45l12 62h1l10 54h-46l-2 -5v-2q0 -3 -0.5 -6t-2.5 -10h-4l3 -3q-1 -11 -2.5 -23.5t-5.5 -29.5l1 -1q-1 -5 -1.5 -15.5t-1.5 -15.5t-1.5 -9t-0.5 -16h-1v-50l1 -1q0 -16 6 -28l-41 -25l1 -1l-98 -64h-2l-95 -63l-20 20l-8 -5l15 68l15 70l9 43l2 11
l10 45l12 62h1l10 54h1l11 54h1l10 53h12l-3 3h-7l11 51h11l-5 5h-8q1 2 2 5t2 5q2 4 3.5 8.5t3.5 12.5q1 2 2.5 8.5t2.5 9.5h16l-7 7h-8q4 8 7 17q2 3 3 6.5t2 5.5l6 17h25l-11 11h-8l16 33v1q0 2 0.5 5t0.5 4h33zM80 -66h-59l-10 -46zM542 505l4 19h-153l-4 -19h153z
M170 524q-3 -5 -5.5 -9.5t-4.5 -9.5h167q7 10 16 19h-173zM578 673l3 12h-271l-18 -12h286zM530 448l5 22h-153l-5 -22h153zM291 448q3 5 6 10.5t6 11.5h-159q-2 -6 -4 -11.5t-4 -10.5h155zM91 -59l70 46h-129l-10 -46h69zM566 617l3 15h-324q-3 -4 -6 -7.5t-7 -7.5h334z
M77 202l-7 -35h153q2 9 3 18t2 17h-151zM470 167l7 35h-153l-7 -35h153zM458 110l8 38h-153l-8 -38h153zM66 148l-8 -38h159q1 9 2 18.5t2 19.5h-155zM397 561h157l4 17h-356q-3 -5 -5.5 -8.5t-5.5 -8.5h201q-1 0 5 2v-2zM446 54l9 41h-153l-9 -41h153zM443 41h-153l-8 -41
h153zM216 95h-161l-9 -41h170v16v25zM220 26q-3 6 -3 15h-173l-9 -43h142zM518 392l6 25h-153l-5 -23h-94v4q2 5 3 9.5t3 9.5h-152q-2 -7 -4 -13l-4 -12h400zM506 336l6 27h-400l-6 -27h400zM239 246h95l-5 -23h153l7 33h-400l-7 -33h150q1 3 1 7t1 6zM494 279l6 30h-400
l-6 -30h400z" />
    <glyph glyph-name="FL0042h" unicode="B" horiz-adv-x="498" 
d="M257 158h19l16 16l2 4q0 1 0.5 1.5t0.5 1.5q2 4 4.5 9.5t4.5 20.5h-4q6 12 7 15.5t1 5.5q0 6 -9 29l-18 9l-5 -23h-6l5 -5l-10 -51h-3l3 -3zM385 482l-11 11h-6v10q0 2 0.5 5t0.5 4q1 3 1 8v11h-35l-1 -2h-21l19 -19l-7 -37h-21l17 -17l-7 -27h27l-7 7h-10q14 14 22.5 25
t13.5 21h25zM541 697l12 -16l10 -10l22 -30h-15q3 -4 4 -6l2 -4l13 -13q5 -5 6 -8t1 -5l-1 1l2 -4q0 -2 0.5 -3.5t3.5 -5.5l9 -8h-32v-1l20 -20q0 -22 -6 -35h-20l19 -19q-3 -6 -5 -12.5t-3 -9.5l-5 -15h-26l17 -17q-3 -6 -10.5 -20.5t-10.5 -19.5h-22l13 -13
q-11 -13 -22 -24t-20 -19h-54l11 -11l4 -15l-2 -1l12 -9h-5l20 -20h-5l9 -9q12 -18 23 -48h-5l5 -5q6 -24 6 -51h-4l3 -3q0 -2 -0.5 -9.5t-0.5 -9.5q-1 -6 -1.5 -16t-2.5 -18h-1l1 -1q-3 -11 -6.5 -23.5t-9.5 -29.5h1q-2 -4 -7.5 -13t-6.5 -11l-1 -1q-14 -21 -25 -34h-1
q-29 -29 -52 -41.5t-35 -12.5h-320l-20 20h-7l12 65h1l10 45l12 62h1l10 54h1l11 54h1l10 53h12l-3 3h-7l11 51h12l-5 5h-7l13 49h13l-7 7h-7l11 46h20l-11 11h-7l8 43h23l-13 13h-7l11 41h24l-15 15h-7l7 39h28l-17 17h-7l10 36h369zM294 505l4 19h-152l-4 -19h152z
M382 524q0 -5 -0.5 -9.5t-1.5 -9.5h168q2 5 3 9.5t3 9.5h-172zM282 448l5 22h-152l-5 -22h152zM368 470q-6 -12 -16 -22h168q3 5 6 10.5t6 11.5h-164zM181 685l-3 -12h367l-9 12h-355zM234 223l7 33h-152l-7 -33h152zM222 167l8 35h-153l-7 -35h152zM316 256q4 -9 4 -24
q0 -7 -1 -9h165q0 18 -4 33h-164zM565 625q-1 1 -1 3q0 3 -1 4h-394l-3 -15h400q-1 1 -1 8zM315 202q-2 -8 -5.5 -16.5t-7.5 -17.5l-1 -1h178q2 10 2.5 18.5t1.5 16.5h-168zM158 578l-4 -17h152l1 2h66q0 -1 0.5 -1.5l0.5 -0.5h189q3 7 3 17h-408zM427 363h-315l-6 -27h329
q-6 5 -12 9t-14 9zM274 408l2 9h-152l-6 -25h353q7 5 13 11.5t12 13.5h-188q-17 -8 -33 -12zM254 304q14 -5 26 -11t20 -14h175q-6 16 -15 30h-360l-6 -30h152l5 22zM344 0q12 0 31.5 9.5t40.5 31.5h-373l-8 -41h309zM286 148l-2 -2h-66v2h-152l-8 -38h406q4 10 6.5 19
t4.5 19h-189zM450 84q1 2 2.5 4.5t3.5 6.5h-401l-9 -41h382q5 6 10.5 13.5t11.5 16.5z" />
    <glyph glyph-name="FL0043h" unicode="C" horiz-adv-x="480" 
d="M166 22h1h-1zM99 365v10h13l-5 5h-8q7 16 8.5 20.5t2.5 6.5v1l6 21h16l-7 7h-8q4 8 7 17q2 3 3 6.5t2 5.5l6 17h25l-11 11h-7q3 11 6 16.5t6 10.5q2 5 2.5 6.5t4.5 9.5h28l-13 13h-9q4 5 6.5 9.5t4.5 7.5t3.5 5t3.5 4l7 15h36l-15 15h-9l31 39h42l-17 17h-13l54 36h286
l-2 -6l21 -20l-8 -30h-25v-3l20 -20l-6 -33h-26v-1l20 -20l-6 -35h-201l19 -19q-9 -9 -15 -15.5t-8 -8.5t-6 -6.5t-6 -6.5h-30l17 -17l-20 -40h-19l13 -13q-6 -13 -10 -24t-6 -19h-17l11 -11q0 -2 -0.5 -8.5t-0.5 -8.5q-1 -5 -2 -14t-2 -14h-11l9 -9q0 -5 -0.5 -12.5
t-0.5 -11.5v-24h-5l5 -5q0 -11 0.5 -18t1.5 -12q0 -3 0.5 -10.5t0.5 -10.5l3 -3q2 -8 4.5 -15t5.5 -13h166l-1 -6l20 -20l-11 -56h-2l-10 -56h-1l-10 -54h-162q-70 0 -127 54l-1 1v-1h-1v1v1q-11 7 -22 18h-1q-2 3 -5 5.5t-5 5.5h2q-17 22 -31 54h2q-5 14 -9 26t-6 26
q-5 22 -5.5 28t-2.5 12l3 1v11h-1v57l5 53h11l-3 3h-6l3 21t3 12zM568 673l3 12h-267l-18 -12h282zM332 505q5 5 8.5 9.5t8.5 9.5h-180q-2 -5 -5 -9.5t-5 -9.5h173zM296 448q2 5 5.5 11t6.5 11h-164q-2 -6 -4 -11.5t-4 -10.5h160zM273 392q4 13 9 25h-157q-2 -7 -3.5 -13
t-3.5 -12h155zM109 354q-4 -9 -5 -18h157q1 8 2 15t2 12h-154v-3zM257 279q0 8 0.5 15t0.5 15h-158l-3 -30h160zM556 617l3 15h-318l-12 -15h327zM96 223h164q-1 8 -2 16.5t-1 16.5h-161v-22v-11zM547 578h-347q-2 -5 -5 -8.5t-6 -8.5h355zM281 167q-8 10 -16 35h-168
q1 -9 1.5 -18t2.5 -17h180zM425 0l8 41h-273q41 -41 111 -41h154zM436 54l8 41h-322q11 -23 26 -41h288zM448 110l8 38h-137h-4h-210q4 -22 11 -38h332z" />
    <glyph glyph-name="FL0044h" unicode="D" horiz-adv-x="528" 
d="M400 482l-11 11h-5q-5 10 -6.5 12.5t-2.5 4.5t-2.5 8t-3.5 11h-56l19 -19l-7 -37h-21l17 -17l-9 -40h-14l13 -13l-11 -43h-13l11 -11l-8 -45h-12l9 -9l-9 -48h-7l5 -5l-10 -51h-5l3 -3l-5 -22q24 15 37.5 26t22.5 22h1q11 14 19.5 27.5t13.5 26.5h3q1 4 3.5 12.5
t3.5 10.5q7 14 11 30h14l-3 3h-6v12q0 7 2 10v1q1 4 2 13.5t2 14.5h13l-5 5h-6v34q0 4 0.5 8.5t0.5 6.5h12l-7 7h-6q0 12 -0.5 19.5t-1.5 14.5q0 2 -0.5 6t-0.5 6h16zM480 697q4 -4 6.5 -5.5t4.5 -3.5q-1 1 5 -3t11 -8t9.5 -7t6.5 -4l-1 -4l22 -21h-8q1 -2 1 -3t1 -2l18 -18
l1 -4t3 -8q1 0 1 -1h1h-1l2 -4q0 -2 1 -3l14 -13h-17v-1l20 -20q0 -14 3 -18q1 -2 2.5 -8.5t2.5 -8.5h-19l19 -19q2 -7 2.5 -11.5t0.5 -7.5q0 -2 0.5 -4.5t4.5 -13.5h-20l17 -17v-21q0 -3 -0.5 -7.5t-2.5 -11.5h-12l13 -13q-1 -7 -2.5 -22t-2.5 -21h-15l11 -11q0 -2 -0.5 -8
t-0.5 -7q-1 -2 -1 -3v0l-2 -10q-1 -2 -1.5 -7t-1.5 -10h-11l9 -9l-15 -48h-8l5 -5q-3 -8 -9.5 -25.5t-10.5 -25.5h-5l3 -3q-2 -5 -7 -16t-7 -15q-2 -3 -4.5 -7t-9.5 -15h-1l1 -1q-9 -17 -17.5 -29.5t-17.5 -23.5h1q-12 -15 -23 -29t-24 -25h1q-71 -59 -130 -59h-249l-20 20
h-7l12 65h1l10 45l12 62h1l10 54h1l11 54h1l10 53h12l-3 3h-7l11 51h12l-5 5h-7l13 49h13l-7 7h-7l11 46h20l-11 11h-7l8 43h23l-13 13h-7l11 41h24l-15 15h-7l7 39h28l-17 17h-7l10 36h308zM294 505l4 19h-152l-4 -19h152zM384 524q2 -5 3 -9.5t3 -9.5h171q-1 3 -1 9
q0 7 -1 10h-175zM282 448l5 22h-152l-5 -22h152zM397 470q1 -5 1.5 -11t0.5 -11h162q1 3 1 10v12h-165zM181 685l-3 -12h314l-8 6l-8 6h-295zM270 392l6 25h-152l-6 -25h152zM400 417q0 -7 -0.5 -13t-0.5 -12h157q1 6 1.5 12t1.5 13h-159zM259 336l5 27h-152l-6 -27h153z
M549 355l2 8h-155q-1 -5 -1.5 -10t-1.5 -9l-2 -8h154q2 10 3 13zM247 279l6 30h-153l-6 -30h153zM383 309q-2 -8 -5 -15t-6 -15h157l9 30h-155zM235 223l7 33h-153l-7 -33h153zM223 167l7 35h-153l-7 -35h153zM361 256q-7 -15 -20 -33h166q4 8 7.5 16.5t6.5 16.5h-160z
M169 632l-3 -15h368q-2 4 -4 7.5t-4 7.5h-357zM325 202q-9 -11 -18 -19.5t-20 -15.5h192q5 8 9 17t9 18h-172zM158 578l-4 -17h180h4h215q-1 5 -2 8.5t-2 8.5h-391zM273 0q54 0 104 41h-334l-8 -41h238zM55 95l-9 -41h346q11 9 20 19.5t18 21.5h-375zM66 148l-8 -38h384
q8 10 14.5 19t11.5 19h-402z" />
    <glyph glyph-name="FL0045h" unicode="E" horiz-adv-x="481" 
d="M56 160l10 54h1l11 54h1l10 53h12l-3 3h-7l11 51h12l-5 5h-7l13 49h13l-7 7h-7l11 46h20l-11 11h-7l8 43h23l-13 13h-7l11 41h24l-15 15h-7l7 39h28l-17 17h-7l10 36h416l-2 -6l21 -20l-8 -30h-25v-3l20 -20l-6 -33h-26v-1l20 -20l-6 -35h-262l19 -19l-7 -37h-22l17 -17
l-6 -27h145l-1 -6l20 -20l-8 -43h-14l11 -11l-10 -45h-10l9 -9l-9 -47h-168v-1h-9l5 -5l-10 -51h-5l3 -3l-6 -28h214l-1 -6l20 -20l-11 -56h-2l-10 -56h-1l-10 -54h-410l-20 20h-7l12 65h1l10 45l12 62h1zM295 505l4 19h-153l-4 -19h153zM283 448l4 22h-152l-5 -22h153z
M569 673l3 12h-391l-3 -12h391zM235 223l7 33h-153l-7 -33h153zM223 167l7 35h-153l-7 -35h153zM557 617l3 15h-391l-3 -15h391zM548 578h-390l-4 -17h391zM440 392l5 25h-321l-6 -25h322zM428 336l6 27h-322l-6 -27h322zM417 280l6 29h-323l-6 -30h154v1h169zM66 148
l-8 -38h391l8 38h-391zM437 54l8 41h-390l-9 -41h391zM426 0l8 41h-391l-8 -41h391z" />
    <glyph glyph-name="FL0046h" unicode="F" horiz-adv-x="481" 
d="M315 429h145l-1 -6l20 -20l-8 -43h-14l11 -11l-10 -45h-10l9 -9l-9 -47h-168v-1h-8l5 -5l-9 -42q0 -2 -6 -8l5 -4q-5 -18 -6.5 -30t-2.5 -23l1 -1q-3 -12 -4.5 -20.5t-3.5 -14.5l3 -2v-1q0 -3 -0.5 -9.5t-0.5 -8.5h-1q-1 -9 -1 -15v-11v-35q0 -5 0.5 -7.5t3.5 -6.5
q0 -2 2 -2l-43 -27l1 -1l-98 -64h-2l-95 -63l-20 20l-8 -5l15 68l15 70l11 54h1l10 54l10 48l1 5l12 51l11 57l13 53h10l-3 3h-7l11 51h12l-5 5h-7l13 49h13l-7 7h-7l11 46h20l-11 11h-7l8 43h23l-13 13h-7l11 41h24l-15 15h-7l7 39h28l-17 17h-7l10 36h416l-2 -6l21 -20
l-8 -30h-25v-3l20 -20l-6 -33h-26v-1l20 -20l-6 -35h-262l19 -19l-7 -37h-22l17 -17zM11 -112l69 46h-59zM295 505l4 19h-153l-4 -19h153zM283 448l4 22h-152l-5 -22h153zM91 -59l70 46h-129l-10 -46h69zM569 673l3 12h-391l-3 -12h391zM243 256h-154l-7 -33h153l0.5 0.5
t0.5 1.5zM78 202l-8 -35h157l2 18t3 17h-154zM557 617l3 15h-391l-3 -15h391zM66 148l-8 -38h163q1 9 1.5 18.5t2.5 19.5h-159zM545 561l3 17h-390l-4 -17h391zM55 95l-8 -41h172v3v18v10t1 10h-165zM219 41h-175l-9 -43h142l43 28q-1 1 -1 14v1zM440 392l5 25h-321l-6 -25
h322zM428 336l6 27h-322l-6 -27h322zM423 309h-322l-7 -30h154v1h169z" />
    <glyph glyph-name="FL0047h" unicode="G" horiz-adv-x="528" 
d="M189 536l-13 13h-9q4 5 6.5 9.5t4.5 7.5t3.5 5t3.5 4l7 15h36l-15 15h-9l31 39h42l-17 17h-13l54 36h334l-2 -6l21 -20l-8 -30h-25v-3l20 -20l-6 -33h-26v-1l20 -20l-6 -35h-248l19 -19q-11 -11 -19.5 -20t-14.5 -17h-32l17 -17l-12 -24q-1 -2 -2.5 -4.5t-7.5 -11.5h-18
l13 -13q-2 -7 -8 -22t-8 -21h-16l11 -11q0 -16 -2 -22h-1q-1 -5 -1 -12q0 -6 -1 -11h-8l9 -9q-2 -11 -2.5 -16t-0.5 -8v-24h-6l5 -5q1 -6 1.5 -15.5t1.5 -14.5q0 -3 0.5 -10.5t0.5 -10.5h-1l3 -3q2 -8 4.5 -14.5t5.5 -13.5q7 -4 14 -4h23l11 58h1l11 54h1l10 53h11l-3 3h-7
l11 51h13l-5 5h-7l9 49h178l-1 -6l20 -20l-8 -43h-14l11 -11l-10 -45h-9l9 -9l-12 -48h-6l5 -5l-6 -31q-2 -4 -2 -7q-1 -2 -1 -6v-7h-4l3 -3q-5 -18 -6.5 -30t-2.5 -23h-2l1 -1q-1 -9 -2.5 -24.5t-2.5 -26.5l2 -2q-2 -11 -2.5 -16t-0.5 -8v-29l1 -1q0 -19 3 -29l-39 -24
l1 -1l-98 -64h-2l-95 -63l-20 20l-8 -5l15 68l8 39h-7q-71 0 -129 55v1l-2 1q-8 6 -15.5 13t-15.5 15h2q-17 22 -31 54h2q-5 14 -9 26t-6 26q-5 22 -5.5 28t-2.5 12l3 1v11h-1v57l5 53h11l-3 3h-6l3 21t3 12l2 8v10h13l-5 5h-8q7 16 8.5 20.5t2.5 6.5v1l6 21h16l-7 7h-8
q4 8 7 17q2 3 3 6.5t2 5.5l6 17h25l-11 11h-7q3 11 6 16.5t6 10.5q2 5 2.5 6.5t4.5 9.5h28zM297 -112l69 46h-59zM169 524q-2 -5 -5 -9.5t-5 -9.5h174q4 5 8 9.5t9 9.5h-181zM144 470q-2 -6 -4 -11.5t-4 -10.5h160q3 5 6 11t6 11h-164zM556 392l5 25h-152l-5 -25h152z
M616 673l3 12h-315l-18 -12h330zM125 417q-2 -7 -3.5 -13t-3.5 -12h155q2 6 4.5 12t4.5 13h-157zM544 336l6 27h-152l-6 -27h152zM111 363v-3l-2 -6q-4 -9 -5 -18h157q1 8 2 14.5t2 12.5h-154zM377 -59l70 46h-129l-10 -46h69zM532 279l7 30h-152l-6 -30h151zM100 309
l-3 -30h161v15q0 10 1 15h-159zM527 256h-151l-7 -33h151q1 3 1.5 6.5t1.5 6.5zM364 202l-7 -35h154l2 18t3 17h-152zM96 256v-22v-11h165q-1 8 -1.5 16t-1.5 17h-162zM604 617l3 15h-366l-12 -15h375zM97 202q1 -9 1.5 -18t2.5 -17h179q-9 14 -15 35h-168zM595 578h-395
q-2 -5 -5 -8.5t-6 -8.5h403zM321 0l-1 -2h143l43 28q-2 10 -2 15h-344q41 -41 111 -41h50zM319 144q-12 0 -19 4h-195q4 -22 11 -38h389q1 9 1.5 18.5t1.5 19.5h-155l-1 -4h-33zM503 54v13v13q0 10 1 15h-382q11 -23 26 -41h355z" />
    <glyph glyph-name="FL0048h" unicode="H" horiz-adv-x="507" 
d="M293 -12h-7l14 65l10 54l10 48l1 5l12 51l7 37h-61v-1h-9l5 -5l-6 -31q-2 -4 -2 -7q-1 -2 -1 -6v-7h-4l3 -3q-5 -18 -6.5 -30t-2.5 -23h-2l1 -1q-1 -9 -2.5 -24.5t-2.5 -26.5l2 -2q-2 -11 -2.5 -16t-0.5 -8v-29l1 -1q0 -19 3 -29l-39 -24l1 -1l-81 -52l1 -1l-115 -75
l-20 20l-8 -5l15 69l15 70l11 54h1l10 54l10 48l1 5l12 51l11 57l13 53h10l-3 3h-7l11 51h12l-5 5h-7l13 49h13l-7 7h-7l11 46h20l-11 11h-7l8 43h23l-13 13h-7l11 41h24l-15 15h-7l7 39h28l-17 17h-7l10 36h177l-2 -6l21 -20l-8 -30h-25v-3l20 -20l-6 -33h-25v-1l21 -20
l-9 -35h-23l19 -19l-7 -37h-21l17 -17l-7 -27h80l-7 7h-7l11 46h20l-11 11h-7l8 43h23l-13 13h-7l11 41h24l-15 15h-7l7 39h28l-17 17h-7l10 36h176l-2 -6l21 -20l-8 -30h-25v-3l20 -20l-6 -33h-25v-1l21 -20l-9 -35h-23l19 -19l-7 -37h-21l17 -17l-9 -40h-14l13 -13
l-11 -43h-13l11 -11l-10 -45h-11l9 -9l-9 -48h-7l5 -5l-10 -51h-5l3 -3l-10 -53h-2l1 -1l-11 -56h-1l-12 -56l-10 -54h-170zM81 -66h-60l-10 -46zM595 673l3 12h-151l-3 -12h151zM330 673l3 12h-152l-3 -12h152zM583 617l3 15h-151l-3 -15h151zM318 617l3 15h-152l-3 -15
h152zM571 561l4 17h-151l-4 -17h151zM306 561l4 17h-152l-4 -17h152zM559 505l4 19h-151l-4 -19h151zM294 505l4 19h-152l-4 -19h152zM547 448l5 22h-151l-5 -22h151zM282 448l5 22h-152l-5 -22h152zM161 -13h-129l-10 -46h69zM499 223l7 33h-151l-7 -33h151zM241 256h-152
l-7 -33h152q1 3 1.5 6.5t1.5 6.5zM487 167l7 35h-150l-8 -35h151zM78 202l-8 -35h155l2 18t3 17h-152zM475 110l8 38h-151l-8 -38h151zM66 148l-8 -38h161q1 9 1.5 18.5t1.5 19.5h-156zM463 54l9 41h-151l-8 -41h150zM460 41h-150l-9 -41h151zM217 80q0 10 1 15h-163l-8 -41
h170v13v13zM220 26q-2 10 -2 15h-174l-9 -43h142zM535 392l6 25h-417l-6 -25h417zM523 336l6 27h-417l-6 -27h417zM361 280v-1h150l6 30h-416l-7 -30h153v1h114z" />
    <glyph glyph-name="FL0049h" unicode="I" horiz-adv-x="241" 
d="M0 -134l-8 -5l15 68l15 70l11 54h1l10 54l10 48l1 5l12 51l11 57l13 53h10l-3 3h-7l11 51h12l-5 5h-7l13 49h13l-7 7h-7l11 46h20l-11 11h-7l8 43h23l-13 13h-7l11 41h24l-15 15h-7l7 39h28l-17 17h-7l10 36h177l-2 -6l21 -20l-8 -30h-25v-3l20 -20l-6 -33h-25v-1l21 -20
l-9 -35h-23l19 -19l-7 -37h-21l17 -17l-9 -40h-14l13 -13l-11 -43h-13l11 -11l-10 -45h-9l9 -9l-12 -48h-6l5 -5l-6 -31q-2 -4 -2 -7q-1 -2 -1 -6v-7h-4l3 -3q-5 -18 -6.5 -30t-2.5 -23h-2l1 -1q-1 -9 -2.5 -24.5t-2.5 -26.5l2 -2q-2 -11 -2.5 -16t-0.5 -8v-29l1 -1
q0 -19 3 -29l-39 -24l1 -1l-98 -64h-2l-95 -63zM11 -112l69 46h-59zM330 673l3 12h-152l-3 -12h152zM318 617l3 15h-152l-3 -15h152zM306 561l4 17h-152l-4 -17h152zM294 505l4 19h-152l-4 -19h152zM282 448l5 22h-152l-5 -22h152zM270 392l6 25h-152l-6 -25h152zM258 336
l6 27h-152l-6 -27h152zM91 -59l70 46h-129l-10 -46h69zM246 279l7 30h-152l-7 -30h152zM241 256h-152l-7 -33h152q1 3 1.5 6.5t1.5 6.5zM78 202l-8 -35h155l2 18t3 17h-152zM66 148l-8 -38h161q1 9 1.5 18.5t1.5 19.5h-156zM217 80q0 10 1 15h-163l-8 -41h170v13v13zM220 26
q-2 10 -2 15h-174l-9 -43h142z" />
    <glyph glyph-name="FL004Ah" unicode="J" horiz-adv-x="490" 
d="M54 155l1 5l12 51l11 56h-3l12 26h180l-3 -6l21 -20l-10 -20h-4l5 -5l-10 -51h-3l2 -3q15 15 23 26q18 27 30 54h3q1 4 3.5 12.5t3.5 10.5q7 14 11 30h10l-3 3h-7l11 51h12l-5 5h-7l13 49h13l-7 7h-7l11 46h20l-11 11h-7l8 43h23l-13 13h-7l11 41h24l-15 15h-7l7 39h28
l-17 17h-7l10 36h177l-2 -6l21 -20l-8 -30h-25v-3l20 -20l-6 -33h-25v-1l21 -20l-9 -35h-23l19 -19l-7 -37h-21l17 -17l-9 -40h-14l13 -13l-11 -43h-13l11 -11l-7 -37v-8h-13l9 -9q-2 -7 -4 -13t-9 -23q0 -1 -0.5 -6t-0.5 -6h-11l5 -5q-1 -2 -3.5 -8.5t-3.5 -8.5
q-2 -4 -6.5 -12.5t-7.5 -14.5t-3 -7h-4l3 -3q-7 -12 -14.5 -24.5t-19.5 -28.5h-1l1 -1q-11 -16 -20.5 -29t-18.5 -24h1q-4 -4 -14.5 -15t-14.5 -15q-8 -8 -15 -15.5t-15 -13.5q-66 -54 -98 -54h-214l-20 20h-7l14 65l10 54zM247 279l1 2h-153l-1 -2h153zM578 673l3 12h-152
l-3 -12h152zM566 617l3 15h-152l-3 -15h152zM554 561l4 17h-152l-4 -17h152zM542 505l4 19h-152l-4 -19h152zM530 448l5 22h-152l-5 -22h152zM518 392l6 25h-152l-6 -25h152zM512 363h-152l-6 -27h153v1zM489 279q3 8 5.5 15t4.5 15h-151q-2 -8 -5 -15t-6 -15h152zM235 223
l7 33h-153l-7 -33h153zM463 223q5 8 8.5 16.5t7.5 16.5h-153q-8 -18 -18 -33h155zM223 167l8 35h-153l-8 -35h153zM429 167q6 8 11.5 17t10.5 18h-158q-7 -10 -15.5 -18.5t-18.5 -16.5h170zM44 41l-9 -41h203q33 0 80 41h-274zM55 95l-8 -41h286q11 9 20.5 19.5t20.5 21.5
h-319zM224 148h-158l-8 -38h329q8 10 15 19t14 19h-187q-2 -2 -4 -2z" />
    <glyph glyph-name="FL004Bh" unicode="K" horiz-adv-x="497" 
d="M299 414q1 0 3 2h-5zM396 573h3v-4h-4q0 1 0.5 1.5t0.5 1.5v1zM420 552q1 2 2 5t3 7h143q-1 -4 -5 -12h-143zM393 549l-3 3q1 2 2 7.5t3 9.5h-2q0 8 7 21h25l-15 15h-7q2 9 2.5 14t2.5 13q0 3 0.5 7t0.5 5h29l-17 17h-7l10 36h177l-1 -5l21 -21l-5 -30h-26v-3l20 -20
l-6 -33h-30v-1l20 -20v-12l-2 -10t-6 -13h-24l19 -19q-2 -5 -5.5 -12.5l-3.5 -7.5q-2 -3 -3.5 -7.5t-3.5 -9.5h-26l17 -17q-3 -6 -10.5 -20.5t-10.5 -19.5h-20l13 -13q-2 -3 -3 -2.5t-2.5 -1t-4 -5.5t-7.5 -16q-2 -3 -4.5 -6.5t-10.5 -11.5h-17l11 -11q-5 -5 -16 -16.5
t-19 -19.5v-9h-1l9 -9q2 -5 3 -11t3 -10l11 -27h-2l5 -5q2 -5 3.5 -11.5t3.5 -11.5h1q1 -3 4 -9t11 -19h-3l3 -3q1 -2 2.5 -7t2.5 -7l-1 1q1 -3 1.5 -5t2.5 -5.5l6 -10.5t12 -19h-4l1 -1q3 -6 11 -21t21 -35h-2q5 -11 9.5 -18.5t9.5 -14.5h-1l9 -15l4 -3q8 -14 17 -27
t25 -32h-185l-20 20h-4q-14 16 -18 24h1l-4 6l-4 6l-12 18h-3q-3 7 -5.5 10.5t-3.5 5.5q-1 0 -1 2q-4 5 -8.5 12.5t-9.5 15.5q-2 3 -5.5 10t-3.5 9l-6 10t-5 9q-5 7 -8 15q-2 4 -5 10.5t-4 8.5l-2 5l-3 9q-2 4 -2 3q-4 5 -6.5 11t-8.5 23h-1q-8 14 -12 28l-2 4l-2 4t-2 5
l-1 -5h-6l5 -5l-6 -31q-2 -5 -2.5 -10t-2.5 -10h-2l3 -3q-5 -18 -6.5 -30t-2.5 -23l1 -1q-3 -12 -4.5 -20.5t-3.5 -14.5l3 -2q0 -2 -0.5 -6.5t-0.5 -8.5l1 -1q-2 -11 -2.5 -16t-0.5 -8v-29l1 -1q0 -19 3 -29l-39 -24l1 -1l-81 -52l1 -1l-115 -75l-20 20l-8 -5l15 69l15 70
l11 54h1l10 54l10 48l1 5l12 51l11 57l13 53h10l-3 3h-7l11 51h12l-5 5h-7l13 49h13l-7 7h-7l11 46h20l-11 11h-7l8 43h23l-13 13h-7l11 41h24l-15 15h-7l7 39h28l-17 17h-7l10 36h177l-2 -6l21 -20l-8 -30h-25v-3l20 -20l-6 -33h-25v-1l21 -20l-9 -35h-23l19 -19l-7 -37
h-21l17 -17l-7 -32q1 2 2 2.5t3 2.5h23l-7 7h-9q4 6 7 9t5 6t4.5 6.5t6.5 10.5v-2v1q1 0 1 1l7 14h26l-11 11h-6l1 5t3 9q2 3 2.5 6t1.5 5t2 5.5t6 12.5h24l-13 13h-6q0 1 1 6t2 8q0 4 4 11l2 -1q0 3 2 6t4 8h26l-3 3h149v-5h-1l1 -1v-9q-1 -5 -2.5 -11.5t-6.5 -14.5h-172z
M81 -66h-60l-10 -46zM330 673l3 12h-152l-3 -12h152zM585 673l2 12h-154l-3 -12h155zM318 617l3 15h-152l-3 -15h152zM573 617l3 15h-155q-1 -4 -1.5 -7t-1.5 -8h155zM306 561l4 17h-152l-4 -17h152zM557 561q2 5 3 9l2 8h-154q-2 -5 -2.5 -8.5t-2.5 -8.5h154zM294 505l4 19
h-152l-4 -19h152zM535 505q2 5 4.5 9.5t4.5 9.5h-154q-2 -5 -4 -9.5t-4 -9.5h153zM282 448l5 22h-152l-5 -22h152zM365 470q-4 -6 -7 -11.5t-7 -10.5h156q3 5 6 10.5t6 11.5h-154zM161 -13h-129l-10 -46h69zM246 279l7 30h-152l-7 -30h152zM444 279q-3 8 -5.5 15t-5.5 15
h-166l12 -30h165zM241 256h-152l-7 -33h152q1 3 3 13zM78 202l-8 -35h155l2 18t3 17h-152zM467 223q-4 8 -7 16.5t-7 16.5h-164q4 -8 7 -16.5t7 -16.5h164zM313 202l8 -18t8 -17h163q-5 8 -8.5 17t-7.5 18h-163zM66 148l-8 -38h161q1 9 1.5 18.5t2.5 19.5h-157zM338 148
q5 -10 10 -19.5t10 -18.5h163q-13 21 -20 38h-163zM400 41l14 -20t15 -21h160q-8 10 -14.5 20t-13.5 21h-161zM366 95q6 -11 12.5 -21t12.5 -20h162q-6 10 -12.5 20t-11.5 21h-163zM55 95l-8 -41h170v13v13q0 10 1 15h-163zM44 41l-9 -43h142l43 28q-2 10 -2 15h-174z
M324 417q-6 -5 -11 -8.5t-10 -5.5l-30 -7l-2 -2l5 23h-152l-6 -25h352q5 6 9 12t9 13h-164zM112 363l-6 -27h317q0 1 -0.5 1.5t-0.5 2.5q6 5 12 11l12 12h-334z" />
    <glyph glyph-name="FL004Ch" unicode="L" horiz-adv-x="481" 
d="M56 160l10 54h1l11 54h1l10 53h12l-3 3h-7l11 51h12l-5 5h-7l13 49h13l-7 7h-7l11 46h20l-11 11h-7l8 43h23l-13 13h-7l11 41h24l-15 15h-7l7 39h28l-17 17h-7l10 36h178l-2 -6l21 -20l-8 -30h-25v-3l20 -20l-6 -33h-25v-1l21 -20l-9 -35h-23l19 -19l-7 -37h-21l17 -17
l-9 -40h-14l13 -13l-11 -43h-13l11 -11l-10 -45h-11l9 -9l-9 -48h-7l5 -5l-10 -51h-5l3 -3l-6 -28h214l-1 -6l20 -20l-11 -56h-2l-10 -56h-1l-10 -54h-410l-20 20h-7l12 65h1l10 45l12 62h1zM331 673l3 12h-153l-3 -12h153zM319 617l3 15h-153l-3 -15h153zM307 561l4 17
h-153l-4 -17h153zM295 505l4 19h-153l-4 -19h153zM283 448l5 22h-153l-5 -22h153zM271 392l6 25h-153l-6 -25h153zM259 336l6 27h-153l-6 -27h153zM247 279l6 30h-153l-6 -30h153zM235 223l7 33h-153l-7 -33h153zM223 167l7 35h-153l-7 -35h153zM66 148l-8 -38h391l8 38
h-391zM437 54l8 41h-390l-9 -41h391zM426 0l8 41h-391l-8 -41h391z" />
    <glyph glyph-name="FL004Dh" unicode="M" horiz-adv-x="608" 
d="M315 429h2l-1 1zM475 409l2 7h-8zM393 -12h-7l12 65h1l10 45l11 57l1 5l12 51l11 57l13 53h11l-3 3h-7l9 51h13l-5 5h-7l3 12l-29 -32h-21l11 -11l-34 -38h-19l-20 20h-5l-22 44h9l-5 5h-5l-18 37v-1h-14l13 -13l-11 -43h-13l11 -11l-8 -45h-11l9 -9l-12 -48h-6l5 -5
l-10 -51h-3l3 -3l-13 -53h-1l1 -1l-11 -56h-1l-11 -51l-1 -5l-10 -54h-172l-20 20h-7l12 65h1l10 45l12 62h1l10 54h1l11 54h1l10 53h12l-3 3h-7l11 51h12l-5 5h-7l13 49h13l-7 7h-7l11 46h20l-11 11h-7l8 43h23l-13 13h-7l11 41h24l-15 15h-7l7 39h28l-17 17h-7l10 36h177
l4 -9l17 -17l13 -30h-8l3 -7l17 -16l15 -33h-8l2 -4l12 -13l20 22h37l-15 15h-10l37 39h40l-17 17h-10l34 36h183l-2 -6l21 -20l-8 -30h-25v-3l20 -20l-6 -33h-25v-1l21 -20l-9 -35h-23l19 -19l-7 -37h-21l17 -17l-9 -40h-14l13 -13l-11 -43h-13l11 -11l-10 -45h-11l9 -9
l-9 -48h-7l5 -5l-10 -51h-5l3 -3l-10 -53h-2l1 -1l-11 -56h-1l-12 -56l-10 -54h-171zM371 343l18 20h-37l10 -20h9zM347 673l-5 12h-161l-3 -12h169zM696 673l3 12h-162l-11 -12h170zM415 392l23 25h-111l12 -25h76zM373 617l-7 15h-197l-3 -15h207zM684 617l3 15h-197
l-14 -15h208zM648 448l5 22h-152l-5 -22h152zM283 448l5 22h-153l-5 -22h153zM466 448l20 22h-183l10 -22h153zM636 392l6 25h-152l-6 -25h152zM271 392l6 25h-153l-6 -25h153zM400 561l-8 17h-234l-4 -17h246zM672 561l4 17h-235l-15 -17h246zM624 336l6 27h-152l-5 -27
h151zM260 336l5 27h-153l-6 -27h154zM612 279l6 30h-151l-7 -30h152zM247 279l7 30h-154l-6 -30h153zM600 223l7 33h-152l-7 -33h152zM235 223l7 33h-153l-7 -33h153zM588 167l7 35h-151l-8 -35h152zM223 167l8 35h-154l-7 -35h153zM576 110l8 38h-152l-8 -38h152zM211 110
l8 38h-153l-8 -38h153zM564 54l9 41h-152l-9 -41h152zM561 41h-152l-8 -41h152zM188 0l8 41h-153l-8 -41h153zM199 54l9 41h-153l-9 -41h153zM660 505l4 19h-518l-4 -19h518z" />
    <glyph glyph-name="FL004Eh" unicode="N" horiz-adv-x="519" 
d="M371 341l-17 34h8l-5 5h-5l-26 49h9l-7 7h-5l-4 7l-6 -27h-14l13 -13l-11 -43h-13l11 -11l-10 -45h-11l9 -9l-9 -48h-7l5 -5l-10 -51h-5l3 -3l-10 -53h-2l1 -1l-11 -56h-1l-12 -56l-10 -54h-172l-20 20h-7l12 65h1l10 45l12 62h1l10 54h1l11 54h1l10 53h12l-3 3h-7l11 51
h12l-5 5h-7l13 49h13l-7 7h-7l11 46h20l-11 11h-7l8 43h23l-13 13h-7l11 41h24l-15 15h-7l7 39h28l-17 17h-7l10 36h185l6 -12l15 -14l17 -30h-10l4 -8l16 -15l18 -33h-8l3 -6l3 -4l5 15h24l-15 15h-7l7 39h28l-17 17h-7l10 36h177l-2 -6l21 -20l-8 -30h-25v-3l20 -20
l-6 -33h-25v-1l21 -20l-9 -35h-23l19 -19l-7 -37h-21l17 -17l-9 -40h-14l13 -13l-11 -43h-13l11 -11l-10 -45h-11l9 -9l-9 -48h-7l5 -5l-10 -51h-5l3 -3l-10 -53h-2l1 -1l-11 -56h-1l-12 -56l-10 -54h-171l-20 20h-7l14 65l10 54l10 48l1 5l12 51l11 56v1l13 53h8l-3 3h-7z
M607 673l3 12h-152l-3 -12h152zM356 673l-7 12h-168l-3 -12h178zM595 617l3 15h-152l-3 -15h152zM583 561l4 17h-152l-4 -17h152zM385 617l-8 15h-208l-3 -15h219zM283 448l5 22h-153l-5 -22h153zM271 392l6 25h-153l-6 -25h153zM259 336l6 27h-153l-6 -27h153zM383 336h152
l6 27h-167l11 -21zM415 561l-9 17h-248l-4 -17h261zM523 279l6 30h-151l-7 -30h152zM247 279l6 30h-153l-6 -30h153zM547 392l6 25h-207l13 -25h188zM511 223l7 33h-152l-7 -33h152zM235 223l7 33h-153l-7 -33h153zM559 448l5 22h-246l12 -22h229zM499 167l7 35h-151l-8 -35
h152zM223 167l7 35h-153l-7 -35h153zM487 110l8 38h-152l-8 -38h152zM211 110l8 38h-153l-8 -38h153zM475 54l9 41h-152l-8 -41h151zM472 41h-151l-9 -41h152zM188 0l8 41h-153l-8 -41h153zM199 54l9 41h-153l-9 -41h153zM300 505h271l4 19h-429l-4 -19h153l2 6z" />
    <glyph glyph-name="FL004Fh" unicode="O" horiz-adv-x="597" 
d="M473 482l-11 11h-6l-3.5 14t-3.5 8l-8 14h-71l19 -19q-9 -9 -15 -15.5t-8 -8.5t-6 -6.5t-6 -6.5h-28l17 -17q-3 -6 -10.5 -20.5t-10.5 -19.5h-19l13 -13q-1 -3 -3 -12t-3 -11q-1 -3 -3.5 -8.5t-4.5 -11.5h-16l11 -11v-13q-2 -13 -7 -32h-8l9 -9q-2 -11 -2.5 -16t-0.5 -8
v-24h-5l5 -5q0 -23 5 -51h-2l3 -3q3 -14 9 -28h37q37 33 51 51h-2q2 4 6.5 11.5t9.5 16t9.5 16.5t6.5 13l22 53h9l-3 3h-7l8 26l5 25h14l-5 5h-6q0 3 1 10t1.5 14.5t1.5 14.5t1 10h13l-7 7h-6q0 12 -0.5 19.5t-1.5 14.5q0 2 -0.5 6t-0.5 6h13zM557 697l45 -36h-5l20 -20h-6
q1 -2 1 -3t1 -2l18 -18l1 -4t3 -8q1 0 1 -1h1h-1l2 -4q0 -2 1 -3l14 -13h-19v-1l20 -20q0 -15 2 -18h1q1 -2 2.5 -8.5t2.5 -8.5h-20l19 -19q2 -7 2.5 -11.5t0.5 -7.5v-18h-16l17 -17q0 -3 -0.5 -10.5t-0.5 -10.5v-19h-15l13 -13q-1 -7 -2.5 -22t-2.5 -21h-16l11 -11v-15
l-2 -6h-1q-1 -3 -0.5 -5t-0.5 -4t-1.5 -5t-0.5 -10h-12l9 -9l-15 -48h-8l5 -5q-3 -8 -9 -25.5t-10 -25.5h-2l3 -3q-2 -4 -8 -15t-8 -15h-1q-2 -3 -6 -9.5t-8 -13.5h-1l1 -1q-11 -20 -17.5 -29.5t-12.5 -17.5q-1 -2 -2 -2.5t-2 -2.5l1 -1q-33 -38 -59 -59h-1
q-38 -26 -75.5 -40t-72.5 -14h-43q-71 0 -129 55v1h-1v1q0 -2 1 -2l-4 4q-15 11 -29 26h2q-17 24 -30 54h2q-5 13 -8.5 24t-5.5 24h-1q0 6 -0.5 11t-1.5 11q-1 8 -1.5 17.5t-1.5 16.5v57l5 53h13l-3 3h-6v19l2 7q-1 0 0 3t2 5l2 7v10h13l-5 5h-8q7 16 8.5 20.5t2.5 6.5v1
l6 21h18l-7 7h-7l8 24l4 12v1q1 0 1 2q0 4 3 7h23l-11 11h-7q2 14 9 24l9 19h30l-13 13h-8q8 15 11 20t5 9q2 2 3.5 4.5t3.5 6.5v1h34l-15 15h-10l26 26q1 1 1.5 2t2.5 3l8 8h72l-17 17h-5l-6 20l30 16h245zM315 685l-21 -12h274l-15 12h-238zM458 524q2 -5 4 -9.5t4 -9.5
h166v9q0 7 -1 10h-173zM328 505q5 5 8.5 9.5t8.5 9.5h-178q-2 -5 -4.5 -9.5t-4.5 -9.5h170zM473 470q1 -5 1.5 -11t0.5 -11h157q0 5 0.5 10.5t0.5 11.5h-160zM294 448q3 5 6 10.5t6 11.5h-163q-2 -6 -4 -11.5t-4 -10.5h159zM474 417q-1 -6 -1.5 -12t-1.5 -13h155q1 6 1.5 12
t1.5 13h-155zM273 392l4 12t4 13h-156q-2 -7 -3.5 -13t-3.5 -12h155zM620 360v3h-154q-1 -5 -3 -12t-4 -15h155q1 5 2 9t2 9zM109 354q-2 -5 -2.5 -9t-1.5 -9h155q2 8 3 15t2 12h-154v-3zM256 279v15q0 10 1 15h-157l-3 -30h159zM451 309l-12 -30h159l9 30h-156zM96 223h163
q-3 15 -3 33h-160v-24v-9zM429 256q-9 -18 -18 -33h166q4 8 7 16.5t6 16.5h-161zM242 632q-4 -4 -7 -7.5t-7 -7.5h381q-2 4 -4 7.5t-4 7.5h-359zM278 167q-11 14 -15 35h-166q1 -9 1.5 -18t1.5 -17h178zM398 202q-7 -10 -14.5 -18.5t-16.5 -16.5h182q5 8 9.5 17t9.5 18h-170
zM626 561q-1 5 -2 8.5t-2 8.5h-424q-3 -5 -6 -8.5t-5 -8.5h439zM312 0q72 0 128 41h-282q41 -41 111 -41h43zM121 95q5 -11 11 -21.5t14 -19.5h312q20 15 42 41h-379zM104 148q4 -22 11 -38h397q7 9 13.5 18t12.5 20h-434z" />
    <glyph glyph-name="FL0050h" unicode="P" horiz-adv-x="497" 
d="M298 414l2 2h-3zM385 482l-11 11h-6v10q0 2 0.5 5t0.5 4q1 3 1 8v11h-35l-1 -2h-21l19 -19l-7 -37h-21l17 -17l-7 -32q2 2 3 2.5t3 2.5h28l-7 7h-10q1 1 3.5 4t3.5 4q12 17 22 38h25zM541 697l12 -16l10 -10l22 -30h-15q3 -4 4 -6l2 -4l13 -13q7 -7 7 -12v-1l-1 1l2 -4
q0 -2 1.5 -4.5t11.5 -12.5h-32v-1l20 -20q0 -22 -6 -35h-21l19 -19q-3 -6 -5 -12.5t-3 -9.5l-5 -15h-26l17 -17q-6 -13 -11.5 -22.5t-11.5 -17.5h-22l13 -13q-11 -15 -16 -21.5t-7 -8.5t-3 -2t-3 -2l-9 -9h-24l11 -11q-49 -33 -82 -45h-124l9 -9l-12 -48h-6l5 -5l-6 -31
q-2 -4 -2 -7q-1 -2 -1 -6v-7h-4l3 -3q-5 -18 -6.5 -30t-2.5 -23h-2l1 -1q-1 -9 -2.5 -24.5t-2.5 -26.5l2 -2q-2 -11 -2.5 -16t-0.5 -8v-29l1 -1q0 -19 3 -29l-39 -24l1 -1l-98 -64h-2l-95 -63l-20 20l-8 -5l15 68l15 70l11 54h1l10 54l10 48l1 5l12 51l11 57l13 53h10l-3 3
h-7l11 51h12l-5 5h-7l13 49h13l-7 7h-7l11 46h20l-11 11h-7l8 43h23l-13 13h-7l11 41h24l-15 15h-7l7 39h28l-17 17h-7l10 36h369zM11 -112l69 46h-59zM294 505l4 19h-152l-4 -19h152zM382 524q0 -5 -0.5 -9.5t-1.5 -9.5h167q2 5 3 9.5t3 9.5h-171zM282 448l5 22h-152
l-5 -22h152zM368 470q-2 -6 -5.5 -11.5t-7.5 -10.5h163q7 8 13 22h-163zM276 417h-152l-6 -25h154l-1 2zM181 685l-3 -12h367l-9 12h-355zM91 -59l70 46h-129l-10 -46h69zM246 279l7 30h-152l-7 -30h152zM324 417q-12 -8 -25 -14.5t-27 -10.5h200q6 6 12.5 12t11.5 13h-172z
M241 256h-152l-7 -33h152q1 3 1.5 6.5t1.5 6.5zM78 202l-8 -35h155l2 18t3 17h-152zM565 625q-1 1 -1 3q0 3 -1 4h-394l-3 -15h400q-1 1 -1 8zM66 148l-8 -38h161q1 9 1.5 18.5t1.5 19.5h-156zM217 80q0 10 1 15h-163l-8 -41h170v13v13zM158 578l-4 -17h152l1 2h66
q0 -1 0.5 -1.5l0.5 -0.5h189q3 7 3 17h-408zM220 26q-2 10 -2 15h-174l-9 -43h142zM112 363l-6 -27h274q30 10 54 27h-322z" />
    <glyph glyph-name="FL0051h" unicode="Q" horiz-adv-x="597" 
d="M294 188q3 -14 9 -28h22q-2 4 -3.5 7.5t-0.5 2.5q-1 2 -2 4.5t-2 4.5q-7 12 -13 34l-16 45v-11h-5l5 -5q0 -23 5 -51h-2zM473 482l-11 11h-6l-3.5 14t-3.5 8l-8 14h-71l19 -19q-9 -9 -15 -15.5t-8 -8.5t-6 -6.5t-6 -6.5h-28l17 -17q-3 -6 -10.5 -20.5t-10.5 -19.5h-19
l13 -13q-1 -3 -3 -12t-3 -11q-1 -3 -3.5 -8.5t-4.5 -11.5h-16l11 -11v-13q-1 -4 -1.5 -7t-1.5 -8h159l-3 3h-7l7 28q2 13 8 23h11l-5 5h-6q0 3 1 10t1.5 14.5t1.5 14.5t1 10h13l-7 7h-6q0 12 -0.5 19.5t-1.5 14.5q0 2 -0.5 6t-0.5 6h13zM557 697l45 -36h-5l20 -20h-6
q1 -2 1 -3t1 -2l18 -18l1 -4t3 -8q1 0 1 -1h1h-1l2 -4q0 -2 1 -3l14 -13h-19v-1l20 -20q0 -15 2 -18h1q1 -2 2.5 -8.5t2.5 -8.5h-20l19 -19q2 -7 2.5 -11.5t0.5 -7.5v-18h-16l17 -17q0 -3 -0.5 -10.5t-0.5 -10.5v-19h-15l13 -13q-1 -7 -2.5 -22t-2.5 -21h-16l11 -11v-15
l-2 -6q-4 -10 -4 -11v-13h-12l9 -9l-15 -48h-6l5 -5q-2 -5 -6 -14t-6 -14l1 -1q-2 -5 -4.5 -11.5t-4.5 -10.5h-6l3 -3q-13 -32 -26 -53l1 -1q-8 -12 -14.5 -21.5t-11.5 -17.5q1 -1 1 -5l-3 2l-2 -2l10 -9q5 -11 7 -17t4 -9h1q3 -5 9.5 -16.5t9.5 -16.5h-1q5 -9 11 -19
t11 -18q0 -1 1 -2.5t2 -3.5l6 -6q2 -4 5 -9.5t5 -9.5q4 -6 8.5 -13.5t12.5 -18.5l1 -1h-180l-20 20h-4q-5 7 -14 19.5t-17 23.5q-36 -16 -82 -16h-43q-71 0 -129 55l-4 4q-15 11 -29 26h2q-17 24 -30 54h2q-5 13 -8.5 24t-5.5 24h-1q0 6 -0.5 11t-1.5 11q-1 8 -1.5 17.5
t-1.5 16.5v57l5 53h13l-3 3h-6v19l2 7q-1 0 0 3t2 5l2 7v10h13l-5 5h-8q7 16 8.5 20.5t2.5 6.5v1l6 21h18l-7 7h-7l8 24l4 12v1q1 0 1 2q0 4 3 7h23l-11 11h-7q2 14 9 24l9 19h30l-13 13h-8q8 15 11 20t5 9q2 2 3.5 4.5t3.5 6.5v1h34l-15 15h-10l26 26q1 1 1.5 2t2.5 3l8 8
h72l-17 17h-5l-6 20l30 16h245zM315 685l-21 -12h274l-15 12h-238zM458 524q2 -5 4 -9.5t4 -9.5h166v9q0 7 -1 10h-173zM328 505q5 5 8.5 9.5t8.5 9.5h-178q-2 -5 -4.5 -9.5t-4.5 -9.5h170zM473 470q1 -5 1.5 -11t0.5 -11h157q0 5 0.5 10.5t0.5 11.5h-160zM294 448
q3 5 6 10.5t6 11.5h-163q-2 -6 -4 -11.5t-4 -10.5h159zM474 417q-1 -6 -1.5 -12t-1.5 -13h155q1 6 1.5 12t1.5 13h-155zM273 392l4 12t4 13h-156q-2 -7 -3.5 -13t-3.5 -12h155zM620 360v3h-154q-2 -5 -3.5 -12t-3.5 -15h155q1 5 1.5 9t2.5 9zM109 354q-2 -5 -2.5 -9t-1.5 -9
h155q2 8 3 15t2 12h-154v-3zM256 279v15q0 10 1 15h-157l-3 -30h159zM96 223h163q-3 15 -3 33h-160v-24v-9zM612 -47q-6 9 -11 17.5t-10 16.5h-162q6 -8 12 -16.5t12 -17.5h159zM242 632q-4 -4 -7 -7.5t-7 -7.5h381q-2 4 -4 7.5t-4 7.5h-359zM278 167q-11 14 -15 35h-166
q1 -9 1.5 -18t1.5 -17h178zM198 578q-3 -5 -6 -8.5t-5 -8.5h439q-1 5 -2 8.5t-2 8.5h-424zM321 202q4 -9 7.5 -17.5t7.5 -17.5h214q11 18 18 35h-247zM301 256l12 -33h265q3 8 6.5 16.5t6.5 16.5h-290zM451 309l-2 -6t-2 -5q-6 6 -7 11h-157q2 -8 4.5 -15t5.5 -15h305l9 30
h-156zM312 0q52 0 95 22q7 -14 15 -24h162q-7 11 -13 21.5t-12 21.5h-401q41 -41 111 -41h43zM519 119l10 14t10 15h-208h-7h-8h-4h-208q4 -22 11 -38h408l-2 4t-2 5zM121 95q5 -11 11 -21.5t14 -19.5h406q-5 11 -11 20.5t-11 20.5h-409z" />
    <glyph glyph-name="FL0052h" unicode="R" horiz-adv-x="499" 
d="M270 247l2 -3l-1 3h-1zM298 414l2 2h-3zM385 482l-11 11h-6v10q0 2 0.5 5t0.5 4q1 3 1 8v11h-35l-1 -2h-21l19 -19l-7 -37h-21l17 -17l-7 -32q2 2 3 2.5t3 2.5h28l-7 7h-10q1 1 3.5 4t3.5 4q12 17 22 38h25zM541 697l12 -16l10 -10l22 -30h-15q3 -4 4 -6l2 -4l13 -13
q7 -7 7 -12v-1l-1 1l2 -4q0 -2 0.5 -3.5t3.5 -5.5l9 -8h-32v-1l20 -20q0 -22 -6 -35h-20l19 -19q-4 -8 -5.5 -12.5t-3.5 -9.5l-5 -15h-27l17 -17q-8 -16 -13.5 -24.5t-10.5 -15.5h-21l13 -13q-2 -2 -10 -10.5t-9 -9.5q-10 -10 -28 -23h-38l11 -11l-12 -12q2 -8 5 -18t5 -15
h-3l9 -9q2 -5 3 -11t3 -10l11 -27h-2l5 -5q2 -5 3.5 -11.5t3.5 -11.5h1q1 -3 4 -9t11 -19h-5l3 -3l12 -27t12 -26h-1l1 -1q2 -5 6 -11t6 -11q2 -6 3.5 -11.5t6.5 -13.5l7 -6q13 -31 35 -59h-2q8 -14 17 -26.5t20 -27.5h-181l-20 20h-4q-10 12 -22 28.5t-25 36.5
q-7 10 -15 22t-15 23q-4 6 -10 18t-12 23q-3 5 -6 11.5t-5 9.5q-6 11 -13 26.5t-12 24.5h-1l-14 29l-5 -29q-2 -4 -2 -7q-1 -2 -1 -6v-7h-4l3 -3q-5 -18 -6.5 -30t-2.5 -23h-2l1 -1q-1 -9 -2.5 -24.5t-2.5 -26.5l2 -2q-2 -11 -2.5 -16t-0.5 -8v-29l1 -1q0 -19 3 -29l-39 -24
l1 -1l-81 -52l1 -1l-115 -75l-20 20l-8 -5l15 69l15 70l11 54h1l10 54l10 48l1 5l12 51l11 57l13 53h10l-3 3h-7l11 51h12l-5 5h-7l13 49h13l-7 7h-7l11 46h20l-11 11h-7l8 43h23l-13 13h-7l11 41h24l-15 15h-7l7 39h28l-17 17h-7l10 36h369zM81 -66h-60l-10 -46zM294 505
l4 19h-152l-4 -19h152zM382 524q0 -5 -0.5 -9.5t-1.5 -9.5h167q2 5 3.5 9.5t3.5 9.5h-172zM282 448l5 22h-152l-5 -22h152zM368 470q-2 -6 -5.5 -11.5t-7.5 -10.5h161q4 5 7.5 10.5t6.5 11.5h-162zM276 417h-152l-6 -25h154l-1 2zM181 685l-3 -12h367l-9 12h-355zM324 417
q-12 -8 -25 -14.5t-27 -10.5h191q8 5 14.5 11.5l13.5 13.5h-167zM161 -13h-129l-10 -46h69zM246 279l7 30h-152l-7 -30h152zM241 256h-152l-7 -33h152q1 3 1.5 6.5t1.5 6.5zM446 279q-3 8 -5.5 15t-5.5 15h-176l12 -30h175zM78 202l-8 -35h155l2 18t3 17h-152zM469 223
q-4 8 -7 16.5t-7 16.5h-174l15 -33h173zM493 167q-4 8 -7.5 17t-7.5 18h-171q4 -8 8 -16.5t9 -18.5h169zM565 625q-1 1 -1 3q0 3 -1 4h-394l-3 -15h400q-1 1 -1 8zM66 148l-8 -38h161q1 9 1.5 18.5t1.5 19.5h-156zM521 110q-5 9 -9.5 18.5t-9.5 19.5h-168q5 -10 10.5 -19.5
t10.5 -18.5h166zM589 0q-8 11 -14.5 20.5t-12.5 20.5h-163q8 -11 15 -21.5t15 -19.5h160zM554 54q-13 17 -24 41h-166q7 -11 13 -21t13 -20h164zM217 80q0 10 1 15h-163l-8 -41h170v13v13zM158 578l-4 -17h152l1 2h66q0 -1 0.5 -1.5l0.5 -0.5h189q3 7 3 17h-408zM220 26
q-2 10 -2 15h-174l-9 -43h142zM415 362q1 0 2 1h-305l-6 -27h318q-2 6 -4.5 12.5t-4.5 13.5z" />
    <glyph glyph-name="FL0053h" unicode="S" horiz-adv-x="466" 
d="M27 -12h-7l12 65h1l10 54h1l11 53h197l-14 54h1l-14 54l-14 53h9l-3 3h-5l-14 51h10l-5 5h-5l-14 49h12l-7 7h-5l-13 46h14l-11 11h-5l-12 43h17l-13 13h-5q-3 9 -3.5 13.5t-0.5 9.5v18h26l-15 15h-6v20h3q0 8 4 19h27l-17 17h-10l15 15q3 4 6 7l4 4l10 10h374l-2 -6
l21 -20l-8 -30h-25v-3l20 -20l-6 -33h-26v-1l20 -20l-6 -35h-210v-1l19 -18l7 -37h-12l17 -17l9 -40h-9l13 -13l11 -43h-9l11 -11l10 -45h-6l9 -9l12 -48h-4l5 -5l13 -51h-3l3 -3l14 -53l1 -1v-19q0 -2 0.5 -5t0.5 -5v-9v-6t-2 -8l2 -1q-5 -17 -5 -21q-1 -3 -1 -5v-2
q-4 -12 -10 -24l3 -2q-21 -26 -47 -42.5t-46 -16.5h-310zM343 505l-4 19h-166l5 -19h165zM357 448l-5 22h-165l6 -22h164zM371 392l-6 25h-165l7 -25h164zM554 673l3 12h-354q-3 -3 -5.5 -6t-5.5 -6h362zM384 336l-6 27h-164l7 -27h163zM398 279l-7 30h-164l8 -30h163z
M412 223l-8 33h-163l8 -33h163zM542 617l3 15h-372q-1 -4 -2 -7.5t-2 -7.5h373zM426 167l-9 35h-163l9 -35h163zM533 578h-369v-6q0 -8 1 -11h365zM430 110q1 3 1 9v9q0 5 -0.5 10t-0.5 10h-364l-8 -38h372zM334 0q19 0 39.5 11.5t34.5 29.5h-365l-8 -41h299zM425 78
q1 5 1.5 8.5t1.5 8.5h-374l-8 -41h370q6 10 9 24z" />
    <glyph glyph-name="FL0054h" unicode="T" horiz-adv-x="518" 
d="M146 549h-7l7 41h27l-15 15h-7l7 39h28l-17 17h-7l10 36h453l-2 -6l21 -20l-8 -30h-25v-3l20 -20l-6 -33h-26v-1l20 -20l-6 -35h-162l19 -19l-7 -37h-22l17 -17l-7 -40h-17l13 -13l-8 -43h-14l11 -11l-10 -45h-11l9 -9l-9 -48h-7l5 -5l-6 -31q-2 -4 -2 -7q-1 -2 -1 -6v-7
h-6l3 -3q-1 -11 -2.5 -23.5t-5.5 -29.5l1 -1q-1 -9 -2.5 -24.5t-2.5 -26.5l2 -2q-2 -14 -2.5 -19t-0.5 -8v-27q0 -12 1 -16q0 -2 0.5 -6.5t0.5 -6.5l-38 -24l1 -1l-81 -52l1 -1l-115 -75l-20 20l-8 -5l15 69l15 70l11 54h1l10 54l10 48l1 5l12 51l11 57l13 53h10l-3 3h-7
l11 51h13l-5 5h-7l9 49h17l-7 7h-7l8 46h22l-11 11h-7l6 36h-105zM219 -66h-60l-10 -46zM432 505l4 19h-152l-4 -19h152zM420 448l4 22h-152l-4 -22h152zM408 392l5 25h-152l-5 -25h152zM396 336l6 27h-152l-6 -27h152zM299 -13h-129l-10 -46h69zM384 279l6 30h-151l-7 -30
h152zM379 256h-152l-7 -33h152q1 3 1.5 6.5t1.5 6.5zM606 673l3 12h-428l-3 -12h428zM216 202l-8 -35h155q2 9 3 18t2 17h-152zM204 148l-8 -38h162q1 9 1.5 18.5t1.5 19.5h-157zM594 617l3 15h-428l-3 -15h428zM356 77v9t1 9h-164l-8 -41h171v7v16zM358 26q-1 5 -1.5 8.5
t-0.5 6.5h-174l-9 -43h142zM582 561l3 17h-428l-3 -17h428z" />
    <glyph glyph-name="FL0055h" unicode="U" horiz-adv-x="583" 
d="M115 375l-5 5h-7l9 49h17l-7 7h-7l8 46h22l-11 11h-7l8 43h24l-13 13h-7l7 41h27l-15 15h-7l7 39h28l-17 17h-7l10 36h179l-2 -6l21 -20l-8 -30h-25v-3l20 -20l-6 -33h-25v-1l21 -20l-9 -35h-23l19 -19l-7 -37h-21l17 -17l-9 -40h-14l13 -13l-11 -43h-14l11 -11
q-2 -11 -3.5 -22t-4.5 -23h-9l9 -9l-5 -48h-4l5 -5v-26q0 -4 0.5 -9t2.5 -16h-2l3 -3q2 -8 3.5 -14.5t4.5 -13.5h29q15 14 27.5 26.5t20.5 24.5q15 22 17.5 28.5t4.5 9.5q1 1 1 2t1 2l2 6q2 6 4 9h3q1 4 3.5 12.5t3.5 10.5q7 14 11 30h10l-3 3h-7l8 26l5 25h13l-5 5h-7
l13 49h13l-7 7h-7l11 46h20l-11 11h-7l8 43h23l-13 13h-7l11 41h24l-15 15h-7l7 39h28l-17 17h-7l10 36h179l-2 -6l21 -20l-8 -30h-25v-3l20 -20l-6 -33h-26v-1l20 -20l-6 -35h-24l19 -19l-7 -37h-22l17 -17l-7 -40h-17l13 -13l-8 -43h-14l11 -11l-4 -20q-1 -3 -1 -6
q0 -2 -1 -4t-1.5 -5t-0.5 -10h-12l9 -9l-15 -48h-7l5 -5q-2 -5 -6 -14t-6 -14l1 -1q-2 -5 -4.5 -11.5t-4.5 -10.5h-5l3 -3q-2 -5 -7 -16t-7 -15q-2 -3 -4.5 -7t-9.5 -15h-2l1 -1q-11 -20 -17.5 -29.5t-12.5 -17.5q-1 -2 -5 -6h1l-2 -2v-1h-1q-26 -30 -50 -51h1
q-85 -59 -156 -59h-25q-72 0 -127 54l-3 2q-17 12 -32 29h2q-17 24 -30 54h2q-5 13 -8.5 24t-5.5 24h-1q0 6 -0.5 11t-1.5 11q-1 8 -1.5 17.5t-1.5 16.5v57l5 53h13l-3 3h-6v19l2 8q-2 -3 -0.5 1t2.5 7l4 16h13zM332 673l3 12h-154l-3 -12h154zM671 673l3 12h-154l-3 -12
h154zM659 617l3 15h-154l-3 -15h154zM320 617l3 15h-154l-3 -15h154zM647 561l3 17h-153l-4 -17h154zM308 561l4 17h-155l-3 -17h154zM635 505l4 19h-154l-4 -19h154zM296 505l4 19h-154l-4 -19h154zM623 448l4 22h-153l-5 -22h154zM284 448l5 22h-155l-4 -22h154zM611 392
l5 25h-153l-6 -25h154zM272 392l6 25h-155l-5 -25h154zM605 363h-154q-1 -5 -3 -12t-4 -15h155q1 5 2 9t2 9zM112 363l-2 -9q-2 -5 -2.5 -9t-1.5 -9h155q2 8 3 14.5t2 12.5h-154zM101 309l-3 -30h157l3 30h-157zM436 309q-2 -8 -5 -15t-6 -15h158l9 30h-156zM97 256v-24v-9
h159q-1 4 -1 8v8v17h-158zM415 256q-4 -8 -7.5 -16.5t-8.5 -16.5h163q3 8 6.5 16.5t6.5 16.5h-160zM98 202q1 -9 1.5 -18t1.5 -17h173q-9 12 -14 35h-162zM386 202q-12 -21 -30 -35h178q5 8 9 17t9 18h-166zM295 0q69 0 128 41h-264q41 -41 111 -41h25zM122 95
q5 -11 11 -21.5t14 -19.5h294q20 15 42 41h-361zM105 148q4 -22 11 -38h380q7 9 13.5 18t12.5 20h-417z" />
    <glyph glyph-name="FL0056h" unicode="V" horiz-adv-x="501" 
d="M196 5q-23 16 -48 48h2q-17 25 -29 54h1l-3 8q-3 6 -5 9t-3.5 6.5t-3.5 9.5t-5 20q-2 7 -3 12.5t-2 10.5q-1 3 -3 13q-2 8 -2 15q-4 20 -4 57v26v12q0 7 2 15h22l-3 3h-6v10l-5 5l-3 1l6 35h13l-5 5h-7l13 49h13l-7 7h-7l11 46h20l-11 11h-7l8 43h23l-13 13h-7l11 41h24
l-15 15h-7l7 39h28l-17 17h-7l10 36h177l-2 -6l21 -20l-8 -30h-25v-3l20 -20l-6 -33h-25v-1l21 -20l-9 -35h-23l19 -19l-7 -37h-21l17 -17l-9 -40h-14l13 -13l-11 -43h-13l11 -11l-10 -45h-13l9 -9v-48h-4l5 -5q2 -10 2.5 -17.5t2.5 -15.5l2 2q11 15 20.5 29t14.5 28h2
q4 6 6 12q2 7 3 9.5t4 10.5v0q1 0 1 1q1 2 2.5 7t4.5 13h10l-3 3h-7l11 51h12l-5 5h-7l13 49h13l-7 7h-7l11 46h20l-11 11h-7l8 43h23l-13 13h-7l11 41h24l-15 15h-7l7 39h28l-17 17h-7l10 36h177l-2 -6l21 -20l-8 -30h-25v-3l20 -20l-6 -33h-25v-1l21 -20l-9 -35h-23
l19 -19l-7 -37h-21l17 -17l-9 -40h-14l13 -13l-11 -43h-13l11 -11l-7 -37v-8h-13l9 -9q-2 -7 -4 -13.5t-9 -23.5q0 -2 -0.5 -6t-0.5 -5h-10l5 -5q-6 -14 -12 -27t-14 -24h-4l3 -3q-2 -2 -6.5 -10t-6.5 -11q-10 -18 -21 -32h-1l1 -1q-10 -12 -16.5 -20t-8.5 -11q-5 -7 -9 -12
l-8 -10h1l-28 -28q-7 -7 -11.5 -12.5t-14.5 -13.5q-68 -59 -105 -59h-5q-28 0 -63 35zM330 673l3 12h-152l-3 -12h152zM589 673l3 12h-152l-3 -12h152zM318 617l3 15h-152l-3 -15h152zM577 617l3 15h-152l-3 -15h152zM565 561l4 17h-152l-4 -17h152zM306 561l4 17h-152
l-4 -17h152zM294 505l4 19h-152l-4 -19h152zM553 505l4 19h-152l-4 -19h152zM541 448l5 22h-152l-5 -22h152zM282 448l5 22h-152l-5 -22h152zM529 392l6 25h-152l-6 -25h152zM270 392l6 25h-152l-6 -25h152zM173 41q33 -41 65 -41h5q34 0 81 41h-151zM258 336l6 27h-152
l-5 -26q0 -1 -1 -1h152zM523 363h-152l-6 -27h153v1zM101 309q-1 -5 -1 -15v-15h152v9v11v10h-151zM500 279q3 8 5.5 15t4.5 15h-151q-2 -8 -5.5 -15t-6.5 -15h153zM100 256q0 -17 3 -33h158l-4 16t-3 17h-154zM473 223q5 8 9 16.5t8 16.5h-155q-7 -15 -20 -33h158zM140 95
q5 -11 10.5 -21t12.5 -20h176q11 9 21 19.5t21 21.5h-241zM119 148q3 -10 6.5 -19.5t7.5 -18.5h261q8 9 15 18.5t15 19.5h-305zM106 202q2 -9 3.5 -18t3.5 -17h325q7 9 12.5 18t10.5 17h-162q-5 -6 -10 -11.5t-10 -10.5q-3 5 -6 10.5t-5 11.5h-162z" />
    <glyph glyph-name="FL0057h" unicode="W" horiz-adv-x="608" 
d="M287 295l24 26h15l-3 3h-9l45 51h26l4 -10l17 -16l21 -45h-5l9 -9l13 -28v1h1l10 53h12l-3 3h-7l11 51h12l-5 5h-7l13 49h13l-7 7h-7l11 46h20l-11 11h-7l8 43h23l-13 13h-7l11 41h24l-15 15h-7l7 39h28l-17 17h-7l10 36h177l-2 -6l21 -20l-8 -30h-25v-3l20 -20l-6 -33
h-25v-1l21 -20l-9 -35h-23l19 -19l-7 -37h-21l17 -17l-9 -40h-14l13 -13l-11 -43h-13l11 -11l-10 -45h-11l9 -9l-9 -48h-7l5 -5l-10 -51h-5l3 -3l-10 -53h-2l1 -1l-11 -56h-1l-12 -56l-10 -54h-159l-20 20h-5l-26 54l-26 56l-9 18l-34 -38h-1l-49 -56h-1l-47 -54h-160
l-20 20h-7l12 65h1l10 45l12 62h1l10 54h1l11 54h1l10 53h12l-3 3h-7l11 51h12l-5 5h-7l13 49h13l-7 7h-7l11 46h20l-11 11h-7l8 43h23l-13 13h-7l11 41h24l-15 15h-7l7 39h28l-17 17h-7l10 36h178l-2 -6l21 -20l-8 -30h-25v-3l20 -20l-6 -33h-25v-1l21 -20l-9 -35h-23
l19 -19l-7 -37h-21l17 -17l-9 -40h-14l13 -13l-11 -43h-13l11 -11l-10 -45h-11zM390 336l-13 27h-13l-24 -27h50zM696 673l3 12h-152l-3 -12h152zM331 673l3 12h-153l-3 -12h153zM684 617l3 15h-152l-3 -15h152zM319 617l3 15h-153l-3 -15h153zM672 561l4 17h-152l-4 -17
h152zM307 561l4 17h-153l-4 -17h153zM660 505l4 19h-152l-4 -19h152zM295 505l4 19h-153l-4 -19h153zM418 279l-15 30h-87l-27 -30h129zM648 448l5 22h-152l-5 -22h152zM283 448l5 22h-153l-5 -22h153zM636 392l6 25h-152l-6 -25h152zM271 392l6 25h-153l-6 -25h153z
M624 336l6 27h-152l-6 -27h152zM259 336l6 27h-153l-6 -27h153zM612 279l6 30h-152l-6 -30h152zM247 279l6 30h-153l-6 -30h153zM600 223l7 33h-152l-7 -33h152zM235 223l7 33h-153l-7 -33h153zM444 223l-15 33h-161l-30 -33h206zM216 41h-173l-8 -41h145zM561 41h-173
l20 -41h145zM228 54l36 41h-209l-9 -41h182zM564 54l9 41h-210l19 -41h182zM576 110l8 38h-246l18 -38h220zM278 110l34 38h-246l-8 -38h220zM588 167l7 35h-518l-7 -35h518z" />
    <glyph glyph-name="FL0058h" unicode="X" horiz-adv-x="583" 
d="M387 160v8v9q0 6 -1 13q-1 5 -1.5 9.5t-0.5 11.5q-2 9 -5 18t-8 20q-2 0 -3 0.5t-3 0.5h-2q-7 0 -16 -3h-21l5 -5q-16 -17 -25 -29t-16 -22h-4l3 -3q-13 -23 -18 -34t-8 -19l1 -1q-2 -5 -5.5 -14.5t-5.5 -13.5l-7 -24l1 -1q-7 -12 -7 -17q-2 -8 -3 -14t-2 -11l-3 -17h-1
l-12 -54h-172l-20 20h-7l10 54l2 11l7 26q0 4 2 10q2 2 2 5t1 6q0 2 0.5 4t0.5 3q8 37 11.5 47t4.5 3q5 15 10 29t11 28q2 2 2.5 4t1.5 4q5 11 10.5 22.5t12.5 22.5h-2l39 54h12l-3 3h-10l32 32q-2 2 -3.5 6t-5.5 13h8l-5 5h-5q-3 6 -5.5 11.5t-3.5 9.5q-1 2 -3.5 13.5
t-3.5 14.5h12l-7 7h-6q-1 3 -2 12t-2 20q-1 3 -1 7v7h17l-11 11h-6v43h21l-13 13h-6q0 1 0.5 5.5t0.5 7.5v7q1 5 1 21h25l-15 15h-7l7 39h28l-17 17h-7l10 36h176l-1 -5l21 -21l-5 -30h-24q-1 -1 -1 -3l21 -20q-4 -11 -4.5 -13.5t-0.5 -3.5q0 -3 -0.5 -6t-2.5 -10h-23v-1
l20 -20v-18q0 -2 -0.5 -6t-2.5 -11h-17l19 -19v-19q0 -2 0.5 -9t0.5 -9h-12l17 -17q2 -8 5 -14.5t6 -12.5h39l-7 7h-11q16 13 29 25.5t19 20.5h25l-11 11h-9q7 11 14 23t10 20h27l-13 13h-6l3 12l3 9l2 6q2 3 3.5 7.5t2.5 6.5h29l-15 15h-6v20h3q0 8 4 19h27l-17 17h-7l6 36
h182l-2 -6l21 -20l-8 -30h-25v-3l20 -20l-6 -33h-30v-1l20 -20v-12l-2 -10t-6 -13h-25l19 -19q-4 -8 -5.5 -12.5t-3.5 -9.5l-5 -15h-27l17 -17q-3 -6 -10.5 -20.5t-10.5 -19.5h-20l13 -13q-2 -3 -3 -2.5t-2.5 -1t-4 -5.5t-7.5 -16q-2 -3 -4.5 -6.5t-10.5 -11.5h-18l11 -11
q-2 -2 -8 -8.5t-9 -9.5l-2 -2l2 -2q2 -2 6.5 -10t6.5 -12v-1h-5l9 -9q1 -5 2.5 -11.5t2.5 -10.5l2 -10t6 -16h-6l5 -5q1 -13 2 -25t1 -26h-2l3 -3v-27v-12t-2 -14l1 -1q-2 -9 -3 -17.5t-1 -11.5q-1 -5 -1 -9q0 -3 -3 -14l1 -1q-1 -3 -2.5 -11.5t-2.5 -10.5q-2 -6 -2 -9
l-7 -28l-10 -54h-173l-20 20h-7l14 65l3 14q1 5 2 14t3 17q2 15 3.5 30.5t1.5 31.5h1zM332 673l2 12h-153l-3 -12h154zM671 673l3 12h-155l-2 -12h154zM169 632l-3 -15h155q1 3 1 7q0 5 1 8h-154zM508 632q-1 -4 -2 -7.5t-2 -7.5h155l3 15h-154zM160 578q0 -4 -0.5 -8
t-1.5 -9h157q1 3 1 8v9h-156zM492 578q-2 -5 -3 -8.5t-3 -8.5h157q2 5 3 9l2 8h-156zM156 524v-15v-4h160q0 5 -0.5 9.5t-0.5 9.5h-159zM470 524q-2 -5 -5 -10t-5 -9h162q2 5 3.5 9.5t3.5 9.5h-159zM157 470q1 -6 1.5 -11.5t1.5 -10.5h173q-6 11 -10 22h-166zM438 470
q-9 -13 -20 -22h175q3 5 6 10.5t6 11.5h-167zM263 223q7 10 13 18t12 15h-171q-5 -8 -9 -16.5t-8 -16.5h163zM382 256q7 -15 12 -33h164q0 8 -0.5 16.5t-1.5 16.5h-174zM235 167q4 9 7.5 18t8.5 17h-161q-7 -15 -13 -35h158zM397 202q1 -8 1.5 -17t0.5 -17v-1h159q1 4 1 8v9
v18h-162zM398 148q0 -20 -3 -38h156q2 9 2.5 18.5t2.5 19.5h-158zM215 110q2 9 5.5 18t7.5 20h-158q-3 -10 -6 -19t-5 -19h156zM536 41h-153l-9 -41h154zM544 75l2 10l2 10h-154q-3 -16 -6 -31l-2 -10h153zM198 41h-155l-8 -41h154zM46 54h155l2 10q1 6 3 14t4 17h-155
l-2 -10l-2 -10zM523 354q2 2 4 4.5t4 4.5h-343q2 -2 2.5 -3.5t2.5 -3.5l-20 -20h360q-2 5 -5 9t-5 9zM166 417q2 -7 4 -13l4 -12h382q5 6 9 12t9 13h-408zM151 309l-21 -30h191q9 3 19 3h2q8 0 16 -3h194q-2 8 -4 15t-4 15h-393z" />
    <glyph glyph-name="FL0059h" unicode="Y" horiz-adv-x="583" 
d="M186 644l-17 17h-7l10 36h176l-1 -5l21 -21l-5 -30h-24q-1 -1 -1 -3l21 -20q-4 -11 -4.5 -13.5t-0.5 -3.5q0 -3 -0.5 -6t-2.5 -10h-23v-1l20 -20v-18q0 -2 -0.5 -6t-2.5 -11h-17l19 -19v-19q0 -2 0.5 -9t0.5 -9h-12l17 -17q2 -8 5 -14.5t6 -12.5h39l-7 7h-11
q16 13 29 25.5t19 20.5h25l-11 11h-9q7 11 14 23t10 20h27l-13 13h-6l3 12l3 9v-1q0 1 2 7q2 3 3.5 7.5t2.5 6.5h29l-15 15h-6v20h3q0 8 4 19h27l-17 17h-7l6 36h182l-2 -6l21 -20l-8 -30h-25v-3l20 -20l-6 -33h-27l21 -21q-2 -5 -3.5 -9.5l-2.5 -7.5l3 -2l-2 -3.5t-9 -12.5
h-22l19 -19q-4 -8 -5.5 -12.5t-3.5 -9.5q-1 -2 -3 -7.5t-3 -7.5h-26l17 -17q-3 -6 -10.5 -20.5t-10.5 -19.5h-19l13 -13q-2 -3 -3 -2.5t-2.5 -1t-4 -5.5t-7.5 -16q-2 -3 -4.5 -6.5t-10.5 -11.5h-17l11 -11q-33 -33 -48 -45h-47l9 -9l4 -15q-26 -15 -52 -23l-2 -10h-6l5 -5
l-6 -31q-2 -4 -2 -7q-1 -2 -1 -6v-7h-4l3 -3q-5 -18 -6.5 -30t-2.5 -23h-2l1 -1q-1 -9 -2.5 -24.5t-2.5 -26.5l2 -2q-2 -11 -2.5 -16t-0.5 -8v-29l1 -1q0 -18 3 -28l-50 -33h-1l-85 -57h-1l-95 -63l-20 20l-8 -5l15 68l15 70l11 54h1l10 54l10 48l1 5l12 51l11 57l3 12
q-11 7 -20 15l-11 10q-5 4 -10 7.5t-10 8.5h8l-3 3h-4q-8 9 -16 20.5t-16 30.5h9l-5 5h-5q-3 6 -5.5 11.5t-3.5 9.5q-1 2 -3.5 13.5t-3.5 14.5h13l-7 7h-6q-1 3 -2 12t-2 20q-1 3 -1 7v7h17l-11 11h-6v43h22l-13 13h-6v17t1 11v1q0 3 0.5 7t0.5 5h24l-15 15h-7l7 39h28z
M178 -112l69 46h-59zM332 673l2 12h-153l-3 -12h154zM671 673l3 12h-155l-2 -12h154zM169 632l-3 -15h155q1 3 1 7q0 5 1 8h-154zM659 617l3 15h-154q-1 -4 -2 -7.5t-2 -7.5h155zM161 578q-1 -5 -1.5 -9t-0.5 -8h156q1 3 1 8v9h-155zM643 561q2 4 2.5 8t2.5 9h-156
q-2 -5 -3 -8.5t-3 -8.5h157zM156 524v-18v-1h160q0 5 -0.5 9.5t-0.5 9.5h-159zM622 505q2 5 4 9.5t4 9.5h-160q-2 -5 -5 -10t-5 -9h162zM157 470q1 -6 1.5 -11.5t1.5 -10.5h173q-6 11 -10 22h-166zM594 448q3 5 6 10.5t6 11.5h-168q-9 -13 -20 -22h176zM258 -59l69 46h-128
l-10 -46h69zM407 256h-151l-7 -33h151q1 3 1.5 6.5t1.5 6.5zM245 202l-8 -35h154l2 18t3 17h-151zM261 279h151l2 9q27 7 51 21h-233q14 -11 32 -18zM233 148l-8 -38h160q1 9 1.5 18.5t1.5 19.5h-155zM383 80q0 10 1 15h-162l-8 -41h169v13v13zM386 26q-2 10 -2 15h-173
l-9 -43h142zM504 336q15 12 30 27h-349q4 -8 8.5 -14.5t9.5 -12.5h301zM558 392q5 6 9 12t9 13h-411q2 -7 4 -13l4 -12h385z" />
    <glyph glyph-name="FL005Ah" unicode="Z" horiz-adv-x="466" 
d="M71 160l38 54l35 53l36 54h13l-3 3h-8l34 51h16l-5 5h-9l32 49h21l-7 7h-9l33 46h25l-11 11h-9l26 36h-153l-20 20h-7l7 41h27l-15 15h-7l7 39h28l-17 17h-7l10 36h398l-2 -6l21 -20l-8 -30h-25v-3l20 -20l-3 -16q0 -2 -0.5 -3t-0.5 -2q-1 -2 -1 -6v-6h-28l21 -21
q-3 -8 -4 -12.5t-3 -6.5l-1 -2l-8 -14h-31l19 -19l-26 -37h-28l17 -17l-28 -40h-21l13 -13l-30 -43h-17l11 -11l-32 -45h-14l9 -9l-34 -48h-7l5 -5l-36 -51h-4l3 -3l-20 -28h160l-1 -6l20 -20l-11 -56h-2l-10 -56h-1l-10 -54h-391l-20 20h-7l14 65l6 29q0 7 1 9t1 3q0 2 1 4
h-1q6 17 12.5 33.5t11.5 28.5h1zM483 505l13 19h-167l-13 -19h167zM444 448l15 22h-166l-15 -22h166zM406 392l17 25h-166l-16 -25h165zM368 336l19 27h-166l-18 -27h165zM551 673l3 12h-373l-3 -12h373zM329 279l21 30h-165l-20 -30h164zM291 223l23 33h-164l-22 -33h163z
M542 632h-373l-3 -15h373q0 1 2 9zM253 167l24 35h-163l-24 -35h163zM157 578l-3 -17h367q2 4 3.5 8t3.5 9h-371zM78 148q-4 -8 -7.5 -17.5t-7.5 -20.5h371l8 38h-364zM51 54h371l8 41h-371q-1 -5 -1.5 -8.5t-1.5 -8.5zM419 41h-371l-9 -41h372z" />
    <glyph glyph-name="FL005Bh" unicode="[" horiz-adv-x="332" 
d="M226 76h80l-1 -6l20 -20l-5 -28h-1l-11 -56h-2l-10 -57h-1v-9h-260l-20 20h-6v9h-1l1 5v12h2l9 40l13 67h1l10 45l12 62h1l10 54h1l11 54h1l10 53h12l-3 3h-7l9 51h13l-5 5h-7l13 49h13l-7 7h-7l11 46h20l-11 11h-7l8 43h23l-13 13h-7l11 41h24l-15 15h-7l7 39h28l-17 17
h-7l10 36h267l-2 -6l21 -20l-8 -30h-25v-3l20 -20l-6 -33h-25v-1l20 -20l-5 -29h-104l-2 -6h-23l19 -19l-7 -37h-21l17 -17l-9 -40h-14l13 -13l-11 -43h-13l11 -11l-8 -45h-11l9 -9l-12 -48h-6l5 -5l-10 -51h-3l3 -3l-13 -53h-1l1 -1l-11 -56h-1zM263 -68v2h-242v-2h242z
M281 505l4 19h-139l-4 -19h139zM420 673l3 12h-242l-3 -12h242zM269 448l5 22h-139l-5 -22h139zM257 392l6 25h-139l-6 -25h139zM398 567l2 11h-242l-4 -17h139l2 6h103zM408 617l3 15h-242l-3 -15h242zM246 336l5 27h-139l-5 -27h139zM233 279l7 30h-139l-6 -30h138z
M221 223l7 33h-138l-7 -33h138zM209 167l8 35h-139l-7 -35h138zM197 110l8 38h-138l-8 -38h138zM188 64l6 31h-138l-9 -41h242l2 10h-103zM277 -2l9 43h-242l-9 -43h242zM265 -59l9 46h-241l-10 -46h242z" />
    <glyph glyph-name="FL005Ch" unicode="\" horiz-adv-x="469" 
d="M272 -12h-6l-9 54h-1l-11 65l-8 48l-1 5l-9 54l-9 53l-9 54h9l-3 3h-6l-9 51h10l-5 5h-6l-7 49h11l-7 7h-6l-8 46h15l-11 11h-6l-6 43h16l-13 13h-6l-7 41h18l-15 15h-6l-4 39h162v-7l20 -19l4 -33h-14v-3l19 -18l6 -35h-16l19 -19l6 -37h-14l17 -17l5 -40h-10l13 -13
l7 -43h-9l11 -11l8 -45h-8l9 -9l8 -48h-4l5 -5l9 -51h-3l3 -3l9 -53h-1l1 -1l10 -56h-1l9 -50l1 -1l10 -59h-156zM310 617l-2 15h-138l2 -15h138zM320 561l-3 17h-138l3 -17h138zM329 505l-3 19h-138l3 -19h138zM338 448l-3 22h-138l4 -22h137zM347 392l-4 25h-137l4 -25
h137zM357 336l-5 27h-137l5 -27h137zM366 279l-5 30h-137l5 -30h137zM376 223l-6 33h-137l6 -33h137zM385 167l-6 35h-137l6 -35h137zM395 110l-7 38h-137l7 -38h137zM404 54l-7 41h-137l7 -41h137zM407 41h-137l7 -41h137z" />
    <glyph glyph-name="FL005Dh" unicode="]" horiz-adv-x="332" 
d="M148 555h-7l6 35h26l-15 15h-7l7 39h28l-17 17h-7l10 36h267l-2 -6l21 -20l-8 -30h-25v-3l20 -20l-6 -33h-25v-1l21 -20l-9 -35h-23l19 -19l-7 -37h-21l17 -17l-9 -40h-14l13 -13l-11 -43h-13l11 -11l-8 -45h-12l9 -9l-9 -48h-7l5 -5l-10 -51h-5l3 -3l-10 -53h-2l1 -1
l-11 -56h-1l-12 -56l-11 -56h-1l-12 -57v-9h-260l-20 20h-6v9h-1l1 6v11h2l10 53h1l11 54h1l4 23h104l5 31l10 48l1 5l12 51l11 57l13 53h11l-3 3h-7l9 51h13l-5 5h-7l13 49h13l-7 7h-7l11 46h20l-11 11h-7l8 42h-70zM263 -66h-242v-2h242v2zM384 505l4 19h-139l-4 -19h139z
M420 673l3 12h-242l-3 -12h242zM372 448l5 22h-139l-5 -22h139zM360 392l6 25h-139l-6 -25h139zM396 561l4 17h-242l-2 -11h103l-2 -6h139zM408 617l3 15h-242l-3 -15h242zM349 336l5 27h-139l-5 -27h139zM337 279l6 30h-139l-7 -30h140zM325 223l7 33h-140l-7 -33h140z
M313 167l7 35h-139l-8 -35h140zM301 110l8 38h-140l-8 -38h140zM289 54l9 41h-140l-6 -31h-103l-2 -10h242zM277 -2l9 43h-242l-9 -43h242zM265 -59l10 46h-243l-9 -46h242z" />
    <glyph glyph-name="FL005Eh" unicode="^" horiz-adv-x="454" 
d="M331 429l-7 7h-5q-2 8 -5.5 16.5t-9.5 20.5h-14l17 -17l-7 -40h-17l13 -13l-8 -39h36q0 3 0.5 6t0.5 5h11l-5 5h-6q0 12 -0.5 20t-1.5 16q0 2 -0.5 6.5t-0.5 6.5h9zM372 644q4 -1 7.5 -2t8.5 -3l6 -4l3 -2q2 -1 4.5 -2t5.5 -2v-4l22 -22h-2v-13h19q5 -7 6.5 -10t3.5 -5
l12 -11q4 -6 6 -10t4 -6h1l9 -19h-12v-1l19 -18l2.5 -9t3.5 -13q0 -1 0.5 -7t0.5 -8h-11l17 -17v-12q1 -5 1.5 -10t0.5 -18h-12l13 -13q0 -4 -0.5 -11.5t-0.5 -10.5v-21h-14l11 -11q0 -2 -0.5 -8.5t-0.5 -8.5v-2l2 -2q1 -1 0 -5.5t-7 -18.5h-10l9 -9l-12 -48h-6l5 -5
l-10 -51h-3l3 -3l-13 -53h-1l1 -1l-11 -56h-1l-10 -56h-1l-11 -56h-2l-10 -45l1 -1l-12 -61l-21 19v-2l-59 53l-19 17l-59 53l-24 22q1 1 3 4.5t4 5.5q1 1 4 7l0.5 1t2.5 3h-2q11 20 16 32.5t9 23.5q1 2 2 4.5t2 4.5q4 11 8 25t7 23q0 3 1 4v1q2 6 3.5 14.5t3.5 16.5h-40
l3 -3l-13 -53h-1l1 -1l-11 -56h-1l-10 -56h-1l-12 -54h-157l-20 20h-7l12 65h1l10 45l12 62h1l10 54h1l11 54h1l10 53h12l-3 3h-7l11 51h12l-5 5h-7l13 49h13l-7 7h-7l11 46h20l-11 11h-7l8 43h23l-13 13h-7l11 41h23l-15 15h-7l11 39h211zM385 -66h-45l38 -34zM269 448
l4 22h-138l-5 -22h139zM170 632l-4 -15h238q-5 3 -9.5 5.5t-9.5 4.5t-8.5 3t-7.5 2h-199zM319 470q5 -10 9 -22h150q0 5 -0.5 10.5t-1.5 11.5h-157zM257 392l5 25h-138l-6 -25h139zM335 417q1 -6 1.5 -12.5t0.5 -12.5h141q0 6 0.5 12t0.5 13h-144zM386 -59l10 46h-115
l51 -46h54zM434 167l8 35h-136q-2 -8 -4.5 -16.5t-4.5 -18.5h137zM209 167l8 35h-140l-7 -35h139zM158 578l-4 -17h297q-2 4 -4.5 8t-5.5 9h-283zM197 110l8 38h-139l-8 -38h139zM422 110l8 38h-139q-5 -19 -12 -38h143zM183 41h-140l-8 -41h139zM186 54l8 41h-139l-9 -41
h140zM411 54l8 41h-145q-4 -11 -8 -21t-9 -20h154zM146 524l-4 -19h328q-1 5 -1.5 9.5t-2.5 9.5h-320zM269 -2h130l9 43h-157q-3 -5 -5.5 -9.5t-4.5 -8.5zM337 363q0 -3 -0.5 -5t-0.5 -3l-1 -3h-86l2 11h-139l-6 -27h365q2 6 2.5 13t1.5 14h-138zM458 279l7 30h-365l-6 -30
h364zM446 223l7 33h-364l-7 -33h364z" />
    <glyph glyph-name="FL005Fh" unicode="_" horiz-adv-x="462" 
d="M40 77h397l-2 -6l21 -20l-6 -23l1 -1l-14 -53l1 -1l-5 -28h-391l-20 20h-7l3 21l2 12l1 1l10 43h-1zM404 -13h-372l-2 -10h372zM46 54h372l3 11h-372zM406 -2l10 43h-372l-10 -43h372z" />
    <glyph glyph-name="FL0060h" unicode="`" horiz-adv-x="258" 
d="M174 750h147l2 -7l19 -19l7 -26h-137l-20 20h-5zM210 661h-5l-12 36h140l2 -7l19 -19l8 -30h-132zM195 730h119l-2 8h-120zM327 673l-3 12h-114l4 -12h113z" />
    <glyph glyph-name="a" unicode="a" horiz-adv-x="454" 
d="M345 469l1 4h-4zM293 364h31l2 11h14l-5 5h-7l9 49h17l-7 7h-7v1q-5 -6 -9.5 -11t-7.5 -10h-21l13 -13q-12 -18 -13.5 -22.5t-4.5 -9.5zM296 631q4 2 7 3l6 3v2q5 0 9 2q2 1 5 1t9 2h218l-2 -6l21 -20l-9 -33h-24v-1l21 -20l-9 -35h-23l19 -19l-7 -37h-21l17 -17l-9 -40
h-14l13 -13l-11 -43h-13l11 -11l-10 -45h-11l9 -9l-9 -48h-7l5 -5l-10 -51h-5l3 -3l-10 -53h-2l1 -1l-11 -56h-1l-11 -51l-1 -5l-10 -54h-158l-20 20h-7l14 65l10 54l10 48l1 5l7 31h-43l3 -3q-2 -11 -3 -23.5t-5 -29.5h-1l1 -1q-1 -5 -1.5 -14.5t-1.5 -14.5t-1.5 -10
t-0.5 -13l1 -1q-2 -11 -2.5 -16t-0.5 -8v-35h-1q2 -7 3 -15.5t2 -11.5l-35 -22l-81 -53l-17 -11l-80 -52l-21 21l-7 -5l15 73l12 53l11 54h1l10 54l10 48l1 5l12 51l11 56v1l13 53h8l-3 3h-8q6 14 7.5 20.5t2.5 11.5l6 19h15l-5 5h-8q2 6 5.5 15.5t5.5 16.5l6 17h20l-7 7h-8
q3 8 6 14.5t5 10.5l3 6l2 6q2 6 4 9h28l-11 11h-8q2 3 5 8t7 11l8 12l6 12h33l-13 13h-10l41 41h72l-15 15h-5l-6 20q5 2 8.5 3.5t5.5 2.5h2zM66 -66h-45l-7 -34zM494 448l5 22h-140l-4 -22h139zM315 627q-6 -2 -12 -5t-11 -5h238l4 15h-201q-5 -1 -9 -2t-9 -3zM296 448
q9 12 19 22h-158q-3 -6 -6 -11.5t-5 -10.5h150zM482 392l6 25h-140l-5 -25h139zM263 392q3 6 6 12.5t7 12.5h-144q-2 -7 -4.5 -13t-4.5 -12h140zM77 -59l70 46h-115l-10 -46h55zM78 202l-8 -35h139q2 10 3 18.5t2 16.5h-136zM434 167l7 35h-138l-8 -35h139zM518 561l4 17
h-284l-17 -17h297zM422 110l8 38h-139l-8 -38h139zM66 148l-8 -38h144q1 10 2 19t2 19h-140zM410 54l9 41h-139l-8 -41h138zM407 41h-138l-9 -41h139zM200 80q0 10 1 15h-146l-8 -41h153v12v14zM506 505l4 19h-319q-4 -5 -7 -9.5t-6 -9.5h328zM203 23q-2 7 -3 18h-156
l-9 -43h129zM470 336l6 27h-139l-2 -11h-86l-1 3q1 1 3 8h-138q-2 -8 -3.5 -14.5t-3.5 -12.5h364zM458 279l6 30h-363l-7 -30h364zM446 223l7 33h-364l-7 -33h364z" />
    <glyph glyph-name="FL0062h" unicode="b" horiz-adv-x="461" 
d="M289 375h5l-4 4zM241 142h15q2 2 2.5 3t2.5 3l1 1q0 1 1 2l-1 -1l1 1q0 1 2 3l5 5q0 6 3 11q1 4 2 6.5t2 4.5v-1q0 1 0.5 2t0.5 3q1 1 1 2t1 3q0 5 0.5 6.5t1.5 3.5v13q-6 16 -26 34l5 -5l-10 -51h-4l3 -3zM348 429l-7 7h-6q0 1 0.5 5.5t0.5 7.5v7q1 4 1 10v7h-47l17 -17
l-9 -40h-16l13 -13l-3 -12q30 24 36 38h20zM462 644q12 -3 53 -39h-4l20 -20h-12v-2l20 -19q2 -5 3 -10.5l1 -5.5q0 -3 10 -19h-20l19 -19q-4 -11 -4.5 -14t-0.5 -5q0 -4 -0.5 -7.5t-2.5 -10.5h-22l17 -17q-3 -14 -6 -24.5t-6 -15.5h-19l13 -13q-4 -7 -12.5 -22t-12.5 -21
h-20l11 -11q-32 -32 -52 -45h-27q8 -8 16.5 -17.5t17.5 -19.5q7 -11 17 -20h-5l5 -5q10 -26 14 -51h-2l3 -3v-32q0 -4 -0.5 -8t-2.5 -13h-1l1 -1q-2 -15 -3 -20t-1 -6l-1 -1q-1 -2 -3 -10l-4 -16l-1 -2q-5 -10 -8 -17.5t-7 -13.5v-1q-2 -4 -5.5 -8.5t-8.5 -10.5l1 -1
q-30 -30 -55.5 -44.5t-35.5 -14.5h-292l-20 20h-7l12 65h1l10 45l12 62h1l10 54h1l11 54h1l10 53h12l-3 3h-7l11 51h12l-5 5h-7l13 49h13l-7 7h-7l11 46h20l-11 11h-7l8 43h23l-13 13h-7l11 41h23l-15 15h-7l11 39h301zM268 448l5 22h-138l-5 -22h138zM349 470v-4
q0 -5 -0.5 -9t-1.5 -9h151q3 6 7 22h-156zM256 392l5 25h-137l-6 -25h138zM335 417q-8 -15 -21 -25h154q4 6 7.5 12t7.5 13h-148zM220 223l7 33h-138l-7 -33h138zM170 632l-4 -15h318q-14 12 -25 15h-289zM209 167l7 35h-139l-7 -35h139zM267 256q19 -13 25 -33h147
q-3 18 -9 33h-163zM442 202h-148v-5l-0.5 -2.5l-1.5 -7.5q-2 -5 -3 -10t-3 -10h155q1 4 1 12v14v9zM158 578l-4 -17h360q-2 5 -2.5 8.5t-2.5 8.5h-351zM146 524l-4 -19h372q1 3 1 9q0 7 1 10h-370zM251 363h-139l-6 -27h304q18 12 33 27h-188q-1 -1 -3 -1zM100 309l-6 -30
h323q-7 8 -14.5 15.5t-17.5 14.5h-285zM435 134q2 5 3 14h-163q-2 -3 -5.5 -8t-8.5 -10h-60l4 18h-139l-8 -38h370q2 6 3.5 12t3.5 12zM316 0q9 0 29 10t41 31h-343l-8 -41h281zM412 75q6 10 10 20h-367l-9 -41h351q7 9 15 21z" />
    <glyph glyph-name="FL0063h" unicode="c" horiz-adv-x="445" 
d="M149 23q-17 13 -33 30h2q-8 11 -15 25t-13 29h1q-4 11 -6.5 22.5t-4.5 25.5q-3 24 -3 59q0 30 3 54h1q0 2 0.5 4.5t0.5 4.5q2 13 3.5 24.5t3.5 19.5h10l-3 3h-6v4q0 3 1 5q2 5 3 10.5t2 8.5v1q0 2 1 5.5t7 16.5h12l-5 5h-6q0 5 4 15q2 4 3.5 8.5t0.5 2.5l10 23h19l-7 7
h-7q5 14 7 19t4 9q1 2 3 8l2 4l3 6h26l-11 11h-9l19 29l1.5 2t6.5 12h32l-13 13h-10l27 27l11 14h74l-15 15h-5l-6 20q30 16 61 19h205l-2 -6l21 -20l-9 -33h-24v-1l21 -20l-9 -35h-23l19 -19l-7 -37h-180l17 -17q-3 -3 -8 -8.5t-11 -11.5t-11 -11.5t-8 -8.5h-24l13 -13
l-13 -26l-9 -17h-13l11 -11l-4.5 -12.5t-6.5 -17.5l-5 -15h-9l9 -9q-3 -11 -4.5 -18.5t-3.5 -12.5l2 -1q0 -2 -0.5 -8t-0.5 -8h-6l5 -5v-51h-2l3 -3q1 -3 1.5 -8t1.5 -7q1 -6 1.5 -11.5t4.5 -13.5q7 -4 15 -4h140l-1 -6l20 -20l-9 -37h1l-13 -59l-10 -54h-148q-66 0 -122 54
zM521 617l4 15h-188q-26 -3 -50 -15h234zM300 448q5 6 10.5 11.5l10.5 10.5h-166q-2 -5 -5 -11t-5 -11h155zM266 392q3 6 6.5 12.5t6.5 12.5h-148q-2 -7 -5 -13t-5 -12h145zM246 336q2 7 4 13t5 14h-143q-2 -7 -3.5 -13.5t-3.5 -13.5h141zM237 279q1 8 1.5 15.5t2.5 14.5
h-142q-2 -8 -3 -15t-2 -15h143zM236 223v21v12h-145q-1 -8 -1.5 -16.5t-0.5 -16.5h147zM509 561l4 17h-280q-4 -5 -7.5 -8.5l-8.5 -8.5h292zM248 167q-4 8 -5.5 16.5t-3.5 18.5h-150q0 -9 0.5 -18t1.5 -17h157zM497 505l4 19h-313q-3 -5 -6.5 -9.5t-6.5 -9.5h322zM390 0
l8 41h-255q39 -41 107 -41h140zM413 110l5 22h-125q-21 0 -34 16h-165q3 -18 9 -38h310zM401 54l9 41h-302q9 -23 24 -41h269z" />
    <glyph glyph-name="d" unicode="d" horiz-adv-x="488" 
d="M361 429l-7 7h-5l-6 17q-4 6 -5 12v-1q-2 2 -2.5 4t-2.5 5h-44l17 -17l-9 -40h-14l13 -13l-11 -43h-13l11 -11l-8 -45h-12l9 -9l-9 -48h-7l5 -5l-10 -51h-5l3 -3l-8 -38q8 4 17 10h5q30 30 45 51h-3q15 22 17.5 28.5t4.5 9.5q1 1 1 2t1 2l2 6q2 6 4 9h2q1 5 3 13t3 11
t2.5 8.5t2.5 10.5v10h10l-3 3h-7q4 15 4.5 18.5t0.5 5.5v12q0 7 2 15h12l-5 5h-6q-2 9 -2.5 14t-0.5 10q0 2 -0.5 6t-4.5 19h13zM374 644q31 -5 61 -19l-1 -5l20 -20l-3 -10h26q2 -7 4 -9l17 -17q4 -9 8 -13q2 -2 7.5 -11t7.5 -11h-12v-1l19 -18q1 -3 2.5 -8.5t2.5 -7.5
q1 -3 4.5 -11t4.5 -10h-19l17 -17q2 -7 2.5 -11.5t0.5 -8.5q0 -2 0.5 -5.5t4.5 -14.5h-16l13 -13q0 -4 -0.5 -11.5t-0.5 -10.5v-21h-12l11 -11q-1 -4 -2 -13t-2 -12q-1 -4 -1.5 -7t-0.5 -13h-11l9 -9q-4 -12 -5.5 -17.5t-2.5 -8.5l-4 -22h-8l5 -5q-8 -29 -18 -51h-5l3 -3
l-5 -15q-4 -8 -7.5 -16.5t-11.5 -21.5h-1l1 -1q-2 -2 -7 -10.5t-7 -11.5h1q-4 -7 -9 -15t-10 -15l1 -1q-12 -14 -23.5 -27.5t-23.5 -26.5h1q-68 -59 -124 -59h-228l-20 20h-7l12 65h1l10 45l12 62h1l10 54h1l11 54h1l10 53h12l-3 3h-7l11 51h12l-5 5h-7l13 49h13l-7 7h-7
l11 46h20l-11 11h-7l8 43h23l-13 13h-7l11 41h23l-15 15h-7l11 39h213zM267 448l5 22h-137l-5 -22h137zM255 392l6 25h-137l-6 -25h137zM350 470q2 -5 4 -10.5t4 -11.5h154q-1 3 -1 11t-1 11h-160zM170 632l-4 -15h258q-23 10 -51 15h-203zM364 417q1 -4 1 -13q0 -8 1 -12
h146q0 6 0.5 12t0.5 13h-149zM244 336l5 27h-137l-6 -27h138zM366 363q-1 -5 -1 -15q0 -8 -1 -12h141q1 7 2 13.5t2 13.5h-143zM232 279l6 30h-138l-6 -30h138zM360 309v-2q-2 -6 -4 -13t-4 -15h140q2 8 3.5 15t3.5 15h-139zM220 223l7 33h-138l-7 -33h138zM344 256
q-4 -8 -7.5 -16.5t-8.5 -16.5h145q7 16 12 33h-141zM208 167l7 35h-138l-7 -35h138zM315 202q-14 -20 -29 -35h162q5 8 8.5 17t7.5 18h-149zM158 578l-4 -17h328q-3 5 -6 8.5t-6 8.5h-312zM146 524l-4 -19h362q-2 5 -3 9.5t-3 9.5h-352zM252 0q53 0 100 41h-309l-8 -41h217z
M204 148h-138l-8 -38h356q7 10 12.5 19.5t10.5 18.5h-175q-16 -10 -34 -15h-27zM55 95l-9 -41h321q9 9 18 19.5t18 21.5h-348z" />
    <glyph glyph-name="e" unicode="e" horiz-adv-x="446" 
d="M27 -12h-7l12 65h1l10 45l12 62h1l10 54h1l11 54h1l10 53h12l-3 3h-7l11 51h12l-5 5h-7l13 49h13l-7 7h-7l11 46h20l-11 11h-7l8 43h23l-13 13h-7l11 41h23l-15 15h-7l11 39h381l-2 -6l21 -20l-9 -33h-24v-1l21 -20l-9 -35h-23l19 -19l-7 -37h-239l17 -17l-7 -40h-17
l13 -13l-6 -28h130l-1 -6l20 -20l-10 -45h-9l9 -9l-12 -48h-6l5 -5l-4 -24h-155l-6 -27h-2l3 -3l-11 -44h193l-1 -6l20 -20l-9 -37h1l-13 -59l-10 -54h-375zM269 448l4 22h-138l-5 -22h139zM257 392l5 25h-138l-6 -25h139zM209 167l8 35h-140l-7 -35h139zM522 617l4 15h-356
l-4 -15h356zM381 250l1 6h-293l-7 -33h139l6 27h154zM510 561l4 17h-356l-4 -17h356zM498 505l4 19h-356l-4 -19h356zM399 336l6 27h-293l-6 -27h293zM387 279l7 30h-294l-6 -30h293zM202 132l3 16h-139l-8 -38h356l5 22h-217zM391 0l8 41h-356l-8 -41h356zM402 54l9 41
h-356l-9 -41h356z" />
    <glyph glyph-name="FL0066h" unicode="f" horiz-adv-x="446" 
d="M290 375h130l-1 -6l20 -20l-10 -45h-9l9 -9l-12 -48h-6l5 -5l-4 -24h-155l-6 -27h-5l3 -3v-13q-2 -5 -2.5 -8.5t-1.5 -7.5t-2 -11.5t-2 -12.5l1 -1q-5 -18 -6.5 -30t-2.5 -21l2 -2q-2 -14 -2.5 -19t-0.5 -8v-32h-1q2 -7 3 -15.5t2 -11.5l-35 -22l-81 -53l-17 -11l-80 -52
l-21 21l-7 -5l15 73l12 53l11 54h1l10 54l10 48l1 5l12 51l11 57l13 53h10l-3 3h-7l11 51h12l-5 5h-7l13 49h13l-7 7h-7l11 46h20l-11 11h-7l8 43h23l-13 13h-7l11 41h23l-15 15h-7l11 39h381l-2 -6l21 -20l-9 -33h-24v-1l21 -20l-9 -35h-23l19 -19l-7 -37h-239l17 -17
l-7 -40h-17l13 -13zM66 -66h-45l-7 -34zM269 448l4 22h-138l-5 -22h139zM257 392l5 25h-138l-6 -25h139zM147 -13h-115l-10 -46h55zM217 202h-139l-8 -35h140q2 9 3.5 17.5t3.5 16.5v1zM522 617l4 15h-356l-4 -15h356zM66 148l-8 -38h144q1 10 2 19.5t3 18.5h-141zM382 256
h-293l-7 -33h139l6 27h154zM510 561l4 17h-356l-4 -17h356zM55 95l-8 -41h153v6v17v9t1 9h-146zM44 41l-9 -43h129l39 25q-2 7 -3 18h-156zM498 505l4 19h-356l-4 -19h356zM399 336l6 27h-293l-6 -27h293zM387 279l7 30h-293l-7 -30h293z" />
    <glyph glyph-name="FL0067h" unicode="g" horiz-adv-x="489" 
d="M173 482l-11 11h-9l19 29l1.5 2t6.5 12h32l-13 13h-10l27 27l11 14h74l-15 15h-5l-6 20q30 16 61 19h248l-2 -6l21 -20l-9 -33h-24v-1l21 -20l-9 -35h-23l19 -19l-7 -37h-223l17 -17q-5 -5 -16.5 -17t-16.5 -17q-1 -1 -2.5 -3t-2.5 -3h-23l13 -13l-13 -26l-9 -17h-16
l11 -11q-2 -8 -6.5 -23t-6.5 -22h-9l9 -9q-3 -11 -4.5 -18.5t-3.5 -12.5l2 -1q0 -2 -0.5 -8t-0.5 -8h-6l5 -5v-51h-2l3 -3q1 -11 2.5 -21.5t7.5 -23.5q4 -2 12 -2h19l4 19h1l10 54h1l11 54h1l10 53h12l-3 3h-7l11 51h163l-1 -6l20 -20l-10 -45h-9l9 -9l-12 -48h-6l5 -5
l-10 -51h-2l3 -3q-5 -14 -6 -19.5t-2 -9.5t-2 -11.5t-2 -12.5l1 -1q-1 -5 -2 -14.5t-2 -14.5t-1.5 -10t-0.5 -17h-1q-1 -9 -1 -16v-11v-36q0 -3 1 -7q0 -2 0.5 -6.5t0.5 -6.5l-34 -22l-81 -53l-17 -11l-80 -52l-21 21l-7 -5l15 73l5 22h-2q-66 0 -122 54l-1 1q-1 0 -1 1
q-15 11 -33 29h2q-8 11 -15 25t-13 29h1q-4 11 -6.5 22.5t-4.5 25.5q-3 24 -3 59q0 30 3 54h1q0 2 0.5 4.5t0.5 4.5q2 13 3.5 24.5t3.5 19.5h10l-3 3h-6v4q0 3 1 5q2 5 3 10.5t2 8.5v1q0 2 1 5.5t7 16.5h12l-5 5h-6q0 5 4 15q2 4 3.5 8.5t0.5 2.5l10 23h19l-7 7h-7
q5 14 7 19t4 9q1 2 3 8l2 4l3 6h26zM326 -66h-45l-7 -34zM155 470q-2 -5 -5 -11t-5 -11h156q5 6 10 11.5t10 10.5h-166zM131 417q-2 -7 -5 -13t-5 -12h146q3 6 6.5 12.5t6.5 12.5h-149zM504 336l6 27h-138l-6 -27h138zM112 363q-2 -7 -3.5 -13.5t-3.5 -13.5h142q2 7 4 13
t4 14h-143zM564 617l4 15h-231q-26 -3 -50 -15h277zM407 -13h-115l-10 -46h55zM492 279l7 30h-139l-6 -30h138zM99 309q-2 -8 -3 -15t-2 -15h144q1 8 1.5 15.5t2.5 14.5h-143zM480 223l7 33h-138l-7 -33h138zM237 256h-146q-1 -8 -1.5 -16.5t-0.5 -16.5h148v17v16zM337 202
l-7 -35h139q2 10 3.5 18.5t3.5 16.5h-139zM89 202q0 -9 0.5 -18t1.5 -17h156q-4 8 -5.5 16.5t-2.5 18.5h-150zM552 561l4 17h-323q-4 -5 -7.5 -8.5l-8.5 -8.5h335zM540 505l4 19h-356q-3 -5 -6.5 -9.5t-6.5 -9.5h365zM295 0l-1 -2h130l39 25q-1 5 -1.5 9t-0.5 6v3h-318
q39 -41 107 -41h45zM292 129q-23 0 -36 19h-162q3 -18 9 -38h360q1 9 2 19t2 19h-141l-4 -19h-30zM461 54v2v18v10q0 6 1 11h-354q9 -23 24 -41h329z" />
    <glyph glyph-name="FL0068h" unicode="h" horiz-adv-x="469" 
d="M269 -12h-7l12 65h1l10 45l12 62h1l10 54h1l1 4h-54l-6 -27h-4l3 -3q-1 -25 -9 -52l2 -2l-3.5 -21t-3.5 -16l2 -1v-1q0 -3 -0.5 -9t-0.5 -8h-2q-1 -9 -1 -16v-11v-36q0 -3 1 -7q0 -2 0.5 -6.5t0.5 -6.5l-34 -22l-81 -53l-17 -11l-80 -52l-21 21l-7 -5l15 73l12 53l11 54
h1l10 54l10 48l1 5l12 51l11 57l13 53h10l-3 3h-7l11 51h12l-5 5h-7l13 49h13l-7 7h-7l11 46h20l-11 11h-7l8 43h23l-13 13h-7l11 41h23l-15 15h-7l11 39h163l-2 -6l21 -20l-9 -33h-24v-1l21 -20l-9 -35h-23l19 -19l-7 -37h-21l17 -17l-9 -40h-16l13 -13l-6 -28h68l-5 5h-7
l9 49h16l-7 7h-7l11 46h20l-11 11h-7l8 43h23l-13 13h-7l11 41h23l-15 15h-7l11 39h162l-2 -6l21 -20l-9 -33h-24v-1l21 -20l-9 -35h-23l19 -19l-7 -37h-21l17 -17l-9 -40h-14l13 -13l-11 -43h-13l11 -11l-10 -45h-11l9 -9l-9 -48h-7l5 -5l-10 -51h-5l3 -3l-10 -53h-2l1 -1
l-11 -56h-1l-11 -51l-1 -5l-10 -54h-156zM66 -66h-45l-7 -34zM545 617l4 15h-137l-4 -15h137zM304 617l4 15h-138l-4 -15h138zM533 561l4 17h-137l-4 -17h137zM292 561l4 17h-138l-4 -17h138zM521 505l4 19h-137l-4 -19h137zM280 505l4 19h-138l-4 -19h138zM509 448l5 22
h-137l-5 -22h137zM268 448l5 22h-138l-5 -22h138zM497 392l6 25h-138l-5 -25h137zM256 392l5 25h-137l-6 -25h138zM147 -13h-115l-10 -46h55zM449 167l7 35h-137l-7 -35h137zM78 202l-8 -35h140q5 20 6 35h-138zM437 110l8 38h-137l-8 -38h137zM66 148l-8 -38h146
q1 10 1.5 19t2.5 19h-142zM425 54l9 41h-137l-9 -41h137zM422 41h-137l-8 -41h137zM201 74v10q0 6 1 11h-147l-8 -41h154v2v18zM203 23q-1 5 -1.5 9t-0.5 6v3h-157l-9 -43h129zM330 250l-6 -27h137l7 33h-379l-7 -33h138l6 27h104zM485 336l6 27h-379l-6 -27h379zM473 279
l6 30h-378l-7 -30h379z" />
    <glyph glyph-name="i" unicode="i" 
d="M10 -54l12 53l11 54h1l10 54l10 48l1 5l12 51l11 56v1l13 53h10l-3 3h-7l11 51h12l-5 5h-7l13 49h13l-7 7h-7l11 46h20l-11 11h-7l8 43h23l-13 13h-7l11 41h23l-15 15h-7l11 39h163l-2 -6l21 -20l-9 -33h-24v-1l21 -20l-9 -35h-23l19 -19l-7 -37h-21l17 -17l-9 -40h-14
l13 -13l-11 -43h-13l11 -11l-10 -45h-9l9 -9l-12 -48h-6l5 -5l-10 -51h-5l3 -3q-5 -21 -9 -53l1 -1q-4 -13 -5.5 -20.5t-3.5 -12.5l4 -3v-1q0 -2 -0.5 -9.5t-0.5 -9.5h-1q-1 -9 -1 -15v-11v-36q0 -5 1 -9q0 -2 0.5 -6t0.5 -6l-34 -22l-81 -53l-17 -11l-80 -52l-21 21l-7 -5z
M14 -100l52 34h-45zM304 617l4 15h-138l-4 -15h138zM292 561l4 17h-138l-4 -17h138zM280 505l4 19h-138l-4 -19h138zM268 448l5 22h-138l-5 -22h138zM256 392l6 25h-138l-6 -25h138zM244 336l6 27h-138l-6 -27h138zM77 -59l70 46h-115l-10 -46h55zM232 279l7 30h-138l-7 -30
h138zM220 223l7 33h-138l-7 -33h138zM78 202l-8 -35h139q3 20 6 35h-137zM66 148l-8 -38h145q1 9 1.5 19t2.5 19h-141zM201 75v10t1 10h-147l-8 -41h154v4v17zM203 23q-1 5 -1.5 9t-0.5 7v2h-157l-9 -43h129z" />
    <glyph glyph-name="FL006Ah" unicode="j" horiz-adv-x="454" 
d="M33 53l10 45l12 62h1l10 54h1l10 49h165l-2 -6l21 -20l-10 -46h-3l3 -3l-3 -15q6 8 12.5 17.5t13.5 20.5h-2q15 22 17.5 28.5t4.5 9.5q1 1 1 2t1 2l2 6q2 6 4 9h3l10 53h12l-3 3h-7l11 51h12l-5 5h-7l13 49h13l-7 7h-7l11 46h20l-11 11h-7l8 43h23l-13 13h-7l11 41h23
l-15 15h-7l11 39h163l-2 -6l21 -20l-9 -33h-24v-1l21 -20l-9 -35h-23l19 -19l-7 -37h-21l17 -17l-9 -40h-14l13 -13l-11 -43h-13l11 -11l-10 -45h-12l9 -9l-2 -20q-1 -3 -3 -7l2 -1l-1.5 -4t-7.5 -16h-6l5 -5q-3 -8 -9.5 -25.5t-10.5 -25.5h-3l3 -3q-3 -5 -7 -12t-9 -15
t-9 -15t-7 -11h-1l1 -1q-17 -29 -38 -53h1q-16 -18 -30 -33t-25 -26h-1q-65 -54 -96 -54h-196l-20 20h-7l12 65h1zM530 617l4 15h-138l-4 -15h138zM518 561l4 17h-138l-4 -17h138zM506 505l4 19h-138l-4 -19h138zM494 448l5 22h-138l-5 -22h138zM482 392l6 25h-138l-6 -25
h138zM470 336l6 27h-138l-6 -27h138zM221 223l6 28h-139l-6 -28h139zM464 309h-138l-6 -30h137q2 5 3 10.5t3 11.5zM435 223q4 8 7.5 16.5t6.5 16.5h-138q-4 -8 -7.5 -16.5t-8.5 -16.5h140zM210 167l7 35h-140l-7 -35h140zM404 167q5 8 10.5 17t10.5 18h-141
q-6 -10 -12.5 -18.5t-13.5 -16.5h146zM43 41l-8 -41h185q31 0 78 41h-255zM55 95l-9 -41h267q10 9 19.5 19.5t19.5 21.5h-297zM204 139l2 9h-140l-8 -38h306q17 20 28 38h-154q-14 -12 -30 -18z" />
    <glyph glyph-name="FL006Bh" unicode="k" horiz-adv-x="460" 
d="M289 375h13l-5 5h-6l-1 -4zM10 -54l12 53l11 54h1l10 54l10 48l1 5l12 51l11 56v1l13 53h10l-3 3h-7l11 51h12l-5 5h-7l13 49h13l-7 7h-7l11 46h20l-11 11h-7l8 43h23l-13 13h-7l11 41h23l-15 15h-7l11 39h163l-2 -6l21 -20l-9 -33h-24v-1l21 -20l-9 -35h-23l19 -19
l-7 -37h-21l17 -17l-9 -40h-14l13 -13l-5 -18q20 23 31 44h20l-7 7h-8q4 8 5 11q3 8 8 19t7 16h21l-11 11h-7l8 25v-1q0 1 0.5 1.5t0.5 1.5q1 2 1 4q0 3 5 12h12l-13 13h-10l17 17q0 4 1 6l5 18h23l-15 15h-7l11 39h165l-2 -6l21 -20l-9 -33h-25v-1l21 -20l-4 -24
q-1 -1 -1 -11h-23l19 -19q-3 -6 -5 -12.5t-3 -9.5l-5 -15h-25l17 -17q-2 -6 -7.5 -20.5t-7.5 -19.5h-21l13 -13q-10 -26 -22 -43h-17l11 -11q-11 -16 -19.5 -27t-14.5 -18h-19l9 -9l-9.5 -9.5t-4.5 -5.5l-1 -1q2 -8 5 -17.5t5 -14.5h-3l5 -5l7 -20h1q2 -5 6 -16t6 -15h-2
l3 -3l12 -27t12 -26h-1l1 -1q2 -5 6 -11t6 -11q2 -7 5.5 -14t11.5 -20h-1q7 -13 16 -26.5t20 -29.5h-2q6 -8 7 -9q5 -8 15.5 -21.5t16.5 -21.5l2 -2h-169l-20 20h-4q-10 12 -22 28.5t-25 36.5h1q-9 14 -17 26.5t-15 26.5q-4 7 -5.5 11t-3.5 9l1 -1q-7 10 -9 16q-2 4 -5 10.5
t-4 8.5q-5 9 -9 16t-6 14l-1 2q0 1 -1 3l-5 16h-1l-4 9l-6 -29h-2l3 -3q-5 -14 -6 -19.5t-2 -9.5t-2 -11.5t-2 -12.5l1 -1q-1 -5 -2 -14.5t-2 -14.5t-1.5 -10t-0.5 -17h-1q-1 -9 -1 -16v-11v-36q0 -3 1 -7q0 -2 0.5 -6.5t0.5 -6.5l-34 -22l-81 -53l-17 -11l-80 -52l-21 21
l-7 -5zM14 -100l52 34h-45zM304 617l4 15h-138l-4 -15h138zM535 617l4 15h-140l-4 -15h140zM292 561l4 17h-138l-4 -17h138zM527 578h-140l-2 -8q-1 -1 -1 -5q0 -3 -1 -4h141q0 4 1 5zM280 505l4 19h-138l-4 -19h138zM509 505q2 5 3 9.5t3 9.5h-141q-2 -5 -3 -9.5t-3 -9.5
h141zM268 448l5 22h-138l-5 -22h138zM487 448q2 5 4.5 10.5t4.5 11.5h-140q-2 -6 -4.5 -11.5t-4.5 -10.5h140zM256 392l6 25h-138l-6 -25h138zM459 392q7 10 13 25h-141q-4 -8 -8 -14t-9 -11h145zM77 -59l70 46h-115l-10 -46h55zM220 223l7 33h-138l-7 -33h138zM78 202
l-8 -35h139q2 10 3.5 18.5t3.5 16.5h-138zM417 223q-2 7 -5.5 15t-7.5 18h-150l15 -33h148zM441 167q-4 8 -7.5 17t-7.5 18h-148q4 -9 7.5 -18t8.5 -17h147zM66 148l-8 -38h145q1 9 2 19t2 19h-141zM469 110q-5 9 -9.5 18.5t-9.5 19.5h-147q5 -10 9.5 -19.5t9.5 -18.5h147z
M539 0q-8 11 -15 21l-14 20h-147q8 -11 15 -21.5t15 -19.5h146zM502 54q-14 20 -25 41h-147q11 -21 25 -41h147zM201 74v10q0 6 1 11h-147l-8 -41h154v2v18zM203 23q-1 5 -1.5 9t-0.5 6v3h-157l-9 -43h129zM278 360q-7 -2 -13 -3t-15 -3l-2 -2l2 11h-138l-6 -27h313
q10 12 21 27h-157q-2 -1 -2.5 -1.5t-2.5 -1.5zM238 292l6 -13h152q-2 6 -4.5 12t-4.5 13q2 1 2.5 2t2.5 3h-291l-7 -30h138l3 13h3z" />
    <glyph glyph-name="FL006Ch" unicode="l" horiz-adv-x="446" 
d="M27 -12h-7l12 65h1l10 45l12 62h1l10 54h1l11 54h1l10 53h12l-3 3h-7l11 51h12l-5 5h-7l13 49h13l-7 7h-7l11 46h20l-11 11h-7l8 43h23l-13 13h-7l11 41h23l-15 15h-7l11 39h164l-2 -6l21 -20l-9 -33h-24v-1l21 -20l-9 -35h-23l19 -19l-7 -37h-21l17 -17l-9 -40h-14
l13 -13l-11 -43h-13l11 -11l-10 -45h-9l9 -9l-12 -48h-6l5 -5l-10 -51h-3l3 -3l-11 -44h193l-1 -6l20 -20l-9 -37h1l-12 -54l-1 -5l-10 -54h-375zM305 617l4 15h-139l-4 -15h139zM293 561l4 17h-139l-4 -17h139zM281 505l4 19h-139l-4 -19h139zM269 448l5 22h-139l-5 -22
h139zM257 392l6 25h-139l-6 -25h139zM245 336l6 27h-139l-6 -27h139zM233 279l7 30h-140l-6 -30h139zM221 223l7 33h-139l-7 -33h139zM209 167l8 35h-140l-7 -35h139zM202 132l3 16h-139l-8 -38h356l5 22h-217zM391 0l8 41h-356l-8 -41h356zM402 54l9 41h-356l-9 -41h356z
" />
    <glyph glyph-name="m" unicode="m" horiz-adv-x="561" 
d="M430 353l2 7h-8zM360 -12h-7l12 65h1l10 45l12 62h1l10 54h1l11 54h1l10 53h12l-3 3h-7l4 17l-35 -37h-16l9 -9l-21 -21h-15l-20 20h-4l-18 27h8l-3 3h-5l-19 40l-1 -4h-14l11 -11l-10 -45h-11l9 -9l-9 -48h-7l5 -5l-10 -51h-5l3 -3l-10 -53h-2l1 -1l-11 -56h-1l-12 -56
l-10 -54h-158l-20 20h-7l12 65h1l10 45l12 62h1l10 54h1l11 54h1l10 53h12l-3 3h-7l11 51h12l-5 5h-7l13 49h13l-7 7h-7l11 46h20l-11 11h-7l8 43h23l-13 13h-7l11 41h23l-15 15h-7l11 39h149l4 -10l17 -16l15 -33h-8l2 -5l17 -16l16 -35h-9l2 -3l15 -16l24 26h33l-13 13
h-10l39 41h37l-15 15h-10l37 39h154l-2 -6l21 -20l-9 -33h-24v-1l21 -20l-9 -35h-23l19 -19l-7 -37h-21l17 -17l-9 -40h-14l13 -13l-11 -43h-13l11 -11l-10 -45h-11l9 -9l-9 -48h-7l5 -5l-10 -51h-5l3 -3l-10 -53h-2l1 -1l-11 -56h-1l-11 -51l-1 -5l-10 -54h-157zM339 306
l3 3h-13l2 -3h8zM366 336l25 27h-88l13 -27h50zM309 617l-7 15h-132l-4 -15h143zM637 617l4 15h-133l-14 -15h143zM625 561l4 17h-170l-16 -17h182zM336 561l-8 17h-170l-4 -17h182zM589 392l6 25h-139l-5 -25h138zM257 392l5 25h-138l-6 -25h139zM418 392l23 25h-164
l12 -25h129zM245 336l6 27h-139l-6 -27h139zM577 336l6 27h-138l-6 -27h138zM613 505l4 19h-207l-17 -19h220zM364 505l-10 19h-208l-4 -19h222zM565 279l6 30h-138l-6 -30h138zM233 279l6 30h-139l-6 -30h139zM553 223l7 33h-138l-7 -33h138zM221 223l7 33h-139l-7 -33h139
zM541 167l7 35h-138l-7 -35h138zM209 167l7 35h-139l-7 -35h139zM529 110l8 38h-138l-8 -38h138zM197 110l8 38h-139l-8 -38h139zM517 54l9 41h-138l-9 -41h138zM514 41h-138l-8 -41h138zM174 0l8 41h-139l-8 -41h139zM185 54l9 41h-139l-9 -41h139zM601 448l5 22h-471
l-5 -22h471z" />
    <glyph glyph-name="n" unicode="n" horiz-adv-x="480" 
d="M376 529l2 -4l5 -5l4 16h23l-13 13h-7l11 41h23l-15 15h-7l11 39h163l-2 -6l21 -20l-9 -33h-24v-1l21 -20l-9 -35h-23l19 -19l-7 -37h-21l17 -17l-9 -40h-14l13 -13l-11 -43h-13l11 -11l-10 -45h-11l9 -9l-9 -48h-7l5 -5l-10 -51h-5l3 -3l-10 -53h-2l1 -1l-11 -56h-1
l-11 -51l-1 -5l-10 -54h-157l-20 20h-7l12 65h1l10 45l12 62h1l10 54h1l11 53v1l8 35l-8 18h6l-3 3h-5l-27 51h7l-5 5h-5l-5 9l-5 -29h-14l11 -11l-10 -45h-11l9 -9l-9 -48h-7l5 -5l-10 -51h-5l3 -3l-10 -53h-2l1 -1l-11 -56h-1l-12 -56l-10 -54h-158l-20 20h-7l12 65h1
l10 45l12 62h1l10 54h1l11 54h1l10 53h12l-3 3h-7l11 51h12l-5 5h-7l13 49h13l-7 7h-7l11 46h20l-11 11h-7l8 43h23l-13 13h-7l11 41h23l-15 15h-7l11 39h153l6 -11l15 -15l18 -33h-8l3 -6l16 -15l19 -35h-7zM556 617l4 15h-138l-4 -15h138zM315 617l-8 15h-137l-4 -15h149z
M544 561l4 17h-138l-4 -17h138zM532 505l4 19h-138l-4 -19h138zM345 561l-9 17h-178l-4 -17h191zM257 392l5 25h-138l-6 -25h139zM245 336l6 27h-139l-6 -27h139zM346 279h138l6 30h-140l2 -4zM233 279l6 30h-139l-6 -30h139zM376 505l-11 19h-219l-4 -19h234zM472 223l7 33
h-138l-7 -33h138zM221 223l7 33h-139l-7 -33h139zM496 336l6 27h-181l14 -27h161zM460 167l7 35h-138l-7 -35h138zM209 167l7 35h-139l-7 -35h139zM448 110l8 38h-138l-8 -38h138zM197 110l8 38h-139l-8 -38h139zM508 392l6 25h-222l13 -25h203zM436 54l9 41h-138l-9 -41
h138zM433 41h-138l-8 -41h138zM174 0l8 41h-139l-8 -41h139zM185 54l9 41h-139l-9 -41h139zM275 448h245l5 22h-390l-5 -22h139l2 8z" />
    <glyph glyph-name="FL006Fh" unicode="o" horiz-adv-x="551" 
d="M429 429l-7 7h-5q-2 8 -5.5 16.5t-9.5 20.5h-57l17 -17q-5 -5 -16.5 -17t-16.5 -17q-1 -1 -2.5 -3t-2.5 -3h-23l13 -13q-2 -3 -6 -13t-6 -13l-9 -17h-16l11 -11l-6 -23l-2 -8t-5 -14h-11l9 -9q-1 -7 -2.5 -23.5t-2.5 -24.5h-6l5 -5v-51h-2l3 -3q1 -11 2 -20.5t6 -20.5
q6 -3 14 -3h8q15 0 34 16q25 27 39 54h1q17 29 25 54q5 14 9.5 26.5t6.5 26.5h11l-3 3h-7q0 -1 1 6.5t2 12.5q2 10 2 12v8q0 3 0.5 6.5t0.5 5.5h12l-5 5h-6v24q0 2 -0.5 6t-4.5 19h13zM444 644q31 -5 61 -19l-1 -5l20 -20l-3 -10h23q5 -7 6.5 -10t3.5 -5l12 -11q5 -6 7 -10
t4 -6l9 -19h-11v-1l19 -18l2.5 -9t3.5 -13q0 -1 0.5 -7t0.5 -8h-11l17 -17v-20q0 -3 0.5 -10.5t0.5 -9.5h-9l13 -13q-3 -12 -3.5 -16t-0.5 -6q0 -4 -0.5 -8t-2.5 -13h-10l11 -11q-1 -4 -2 -13t-2 -12q-1 -4 -1.5 -7t-0.5 -13h-11l9 -9q-4 -12 -5.5 -17.5t-2.5 -8.5l-4 -22
h-8l5 -5l-18 -51h-3l3 -3q-4 -8 -12.5 -25.5t-13.5 -27.5h-2l1 -1q-11 -22 -16 -30t-10 -15q-2 -2 -6 -8h1q-28 -37 -55 -59h-1q-74 -54 -141 -54h-39q-67 0 -122 55h-1q-17 13 -33 30h3q-8 12 -15 25.5t-13 28.5h1q-4 11 -6.5 22.5t-4.5 25.5q-3 24 -3 59q0 30 3 54h1
q0 2 0.5 4.5t0.5 4.5q2 13 3.5 24.5t3.5 19.5h10l-3 3h-6v4q0 3 1 5q2 5 3 10.5t2 8.5v1q0 2 1 5.5t7 16.5h13l-5 5h-8q2 6 5.5 15.5t5.5 16.5l6 17h16l-7 7h-8q2 3 5 9.5t5 10.5v-1q2 3 3 5l2 4l9 18h26l-11 11h-9l19 29l1.5 2t6.5 12h34l-13 13h-10l17 17q4 4 7.5 7t5.5 5
q3 2 13 12h82l-15 15h-6l-4 21q18 8 37 12t37 6h80zM365 632q-35 -3 -65 -15h194q-23 10 -51 15h-78zM417 470q5 -10 9 -22h150q0 5 -0.5 11t-0.5 11h-158zM298 448q5 6 10 11.5t10 10.5h-164q-3 -5 -5.5 -11t-5.5 -11h155zM432 417q1 -4 1 -13v-12h142q1 4 1 12q0 9 1 13
h-145zM265 392q3 6 6 12.5t6 12.5h-147q-2 -7 -4.5 -13t-4.5 -12h144zM432 363q-1 -7 -1.5 -14t-1.5 -13h139q1 7 2 13.5t2 13.5h-140zM246 336q2 6 3.5 12.5t3.5 14.5h-141q-2 -7 -3.5 -13.5t-3.5 -13.5h141zM423 309q-3 -14 -9 -30h141q2 8 3.5 15t3.5 15h-139zM237 279
q1 16 3 30h-141q-2 -8 -3 -15t-2 -15h143zM405 256q-6 -17 -15 -33h146l12 33h-143zM235 223v14v19h-144q-1 -8 -1.5 -16.5t-0.5 -16.5h146zM245 167q-4 8 -5.5 16.5t-2.5 18.5h-148q0 -9 0.5 -18t1.5 -17h154zM379 202q-11 -22 -24 -35h156q5 10 9 18.5t8 16.5h-149z
M237 578q-5 -5 -9.5 -8.5t-9.5 -8.5h331q-2 4 -4.5 8t-5.5 9h-302zM187 524q-3 -5 -6.5 -9.5t-6.5 -9.5h395q-1 5 -1.5 9.5t-2.5 9.5h-378zM287 0q35 0 65 10.5t57 30.5h-267q39 -41 106 -41h39zM108 95q5 -11 10.5 -21t12.5 -20h294q24 21 40 41h-357zM337 148
q-19 -16 -39 -16h-8q-21 0 -34 16h-162q3 -18 9 -38h374l12 18t12 20h-164z" />
    <glyph glyph-name="P" unicode="p" horiz-adv-x="460" 
d="M290 375h15l-5 5h-9zM348 429l-7 7h-6q0 1 0.5 5.5t0.5 7.5v7q1 4 1 10v7h-47l17 -17l-9 -40h-14l13 -13l-6 -22q15 15 24 27t14 21h19zM462 644q12 -3 53 -39h-4l20 -20h-12v-2l20 -19q2 -5 3 -10.5l1 -5.5q0 -3 10 -19h-20l19 -19q-4 -11 -4.5 -14t-0.5 -5
q0 -4 -0.5 -7.5t-2.5 -10.5h-20l17 -17l-6 -18q-2 -3 -5 -11t-5 -11h-20l13 -13q-6 -15 -11.5 -25t-10.5 -18h-18l11 -11q-29 -32 -45 -45h-52l9 -9l4 -15q-64 -32 -140 -32v-1h-9l5 -5l-10 -51h-2l3 -3q-5 -14 -6 -19.5t-2 -9.5t-2 -11.5t-2 -12.5l1 -1q-1 -5 -2 -14.5
t-2 -14.5t-1.5 -10t-0.5 -17h-1q-1 -9 -1 -16v-11v-36q0 -3 1 -7q0 -2 0.5 -6.5t0.5 -6.5l-34 -22l-81 -53l-17 -11l-80 -52l-21 21l-7 -5l15 73l12 53l11 54h1l10 54l10 48l1 5l12 51l11 57l13 53h10l-3 3h-7l11 51h12l-5 5h-7l13 49h13l-7 7h-7l11 46h20l-11 11h-7l8 43
h23l-13 13h-7l11 41h23l-15 15h-7l11 39h301zM14 -100l52 34h-45zM268 448l5 22h-138l-5 -22h138zM349 470v-4q0 -5 -0.5 -9t-1.5 -9h150q2 5 4 10.5t4 11.5h-156zM256 392l6 25h-138l-6 -25h138zM336 417q-4 -7 -8.5 -13.5t-9.5 -11.5h150q11 14 15 25h-147zM77 -59l70 46
h-115l-10 -46h55zM220 223l7 33h-138l-7 -33h138zM170 632l-4 -15h318q-14 12 -25 15h-289zM78 202l-8 -35h139q2 10 3.5 18.5t3.5 16.5h-138zM66 148l-8 -38h145q1 9 2 19t2 19h-141zM158 578l-4 -17h360q-2 5 -2.5 8.5t-2.5 8.5h-351zM201 74v10q0 6 1 11h-147l-8 -41h154
v2v18zM203 23q-1 5 -1.5 9t-0.5 6v3h-157l-9 -43h129zM239 280q75 0 135 29h-273l-7 -30h139v1h6zM146 524l-4 -19h372q1 3 1 9q0 7 1 10h-370zM250 363h-138l-6 -27h311q18 15 29 27h-165q-7 -4 -14.5 -7.5t-17.5 -5.5l-1 2z" />
    <glyph glyph-name="FL0071h" unicode="q" horiz-adv-x="552" 
d="M268 214q-1 0 -1 2v-25h-2l3 -3q1 -11 2 -20.5t6 -20.5q6 -3 14 -3h7q-1 2 -1.5 5t-2.5 6q-1 2 -3 5t-2 6l1 -1l-5 10q-2 5 -8 19t-8 20zM428 429l-7 7h-5q-2 8 -5.5 16.5t-9.5 20.5h-56l17 -17q-5 -5 -16.5 -17t-16.5 -17q-1 -1 -2.5 -3t-2.5 -3h-23l13 -13
q-2 -3 -6 -13t-6 -13l-9 -17h-16l11 -11l-6 -23l-2 -8t-5 -14h131q2 5 3.5 9.5l2.5 7.5h13l-3 3h-6v12q0 3 0.5 5.5t0.5 4.5q-1 0 0 5.5t2 9.5q0 4 0.5 8t0.5 6h12l-5 5h-6v25q0 2 -0.5 5.5t-4.5 18.5h12zM444 644q31 -5 61 -19l-1 -5l20 -20l-3 -10h23q5 -7 6.5 -10t3.5 -5
l12 -11q4 -6 6 -10t4 -6h1l9 -19h-11l19 -19l2.5 -9t3.5 -13q0 -1 0.5 -7t0.5 -8h-11l17 -17v-20q0 -3 0.5 -10.5t0.5 -9.5h-9l13 -13q-3 -12 -3.5 -16t-0.5 -6q0 -4 -0.5 -8t-2.5 -13h-10l11 -11q-1 -4 -2 -13t-2 -12q-1 -4 -1.5 -7t-0.5 -13h-10l9 -9q-4 -12 -5.5 -17.5
t-2.5 -8.5q-1 -4 -2.5 -11t-2.5 -11h-8l5 -5q-4 -13 -8 -25.5t-9 -25.5h-5l3 -3l-5 -15q-4 -8 -7.5 -16.5t-11.5 -21.5l2 -1q-5 -9 -16 -25t-19 -27l2 -1q5 -11 13 -25.5t20 -33.5h-3q8 -13 18.5 -30t16.5 -26h-1q5 -8 10 -14t3 -4q2 -3 6 -10t6 -11l1 -1h-166l-20 20h-5
q-5 9 -12 18t-15 19q-41 -15 -71 -15h-39q-65 0 -121 54l-2 1q-17 13 -33 30h3q-8 12 -15 25.5t-13 28.5h1q-4 11 -6.5 22.5t-4.5 25.5q-3 24 -3 59q0 30 3 54h1q0 2 0.5 4.5t0.5 4.5q2 13 3.5 24.5t3.5 19.5h10l-3 3h-6v4q0 3 1 5q2 5 3 10.5t2 8.5v1q0 2 1 5.5t7 16.5h13
l-5 5h-8q2 6 5.5 15.5t5.5 16.5l6 17h16l-7 7h-8q2 3 5 9.5t5 10.5v-1q2 3 3 5l2 4l9 18h26l-11 11h-9l19 29l1.5 2t6.5 12h34l-13 13h-10l17 17q4 4 7.5 7t5.5 5q3 2 13 12h82l-15 15h-6l-4 21q18 8 37 12t37 6h80zM255 292q1 -3 1.5 -6.5t1.5 -6.5h143q-1 3 -1 13h-145z
M365 632q-35 -3 -65 -15h194q-23 10 -51 15h-78zM416 470q5 -10 9 -22h151q0 5 -0.5 11t-0.5 11h-159zM298 448q5 6 10 11.5t10 10.5h-164q-3 -5 -5.5 -11t-5.5 -11h155zM432 417q1 -4 1 -12v-11v-2h142q1 4 1 12q0 9 1 13h-145zM265 392q3 6 6 12.5t6 12.5h-147
q-2 -7 -4.5 -13t-4.5 -12h144zM431 363q-1 -8 -1.5 -14t-1.5 -13h140q1 7 2 13.5t2 13.5h-141zM246 336q2 6 3.5 12.5t3.5 14.5h-141q-2 -7 -3.5 -13.5t-3.5 -13.5h141zM560 -42q-5 8 -9.5 15t-9.5 14h-147q5 -7 10.5 -14t10.5 -15h145zM421 309q-2 -6 -4 -13.5t-4 -16.5
h142q2 8 4 15t4 15h-142zM237 279q1 16 3 30h-141q-2 -8 -3 -15t-2 -15h143zM235 223v14v19h-144q-1 -8 -1.5 -16.5t-0.5 -16.5h146zM245 167q-4 8 -5.5 16.5t-2.5 18.5h-148q0 -9 0.5 -18t1.5 -17h154zM237 578q-5 -5 -9.5 -8.5t-9.5 -8.5h331q-2 4 -4.5 8t-5.5 9h-302z
M187 524q-3 -5 -6.5 -9.5t-6.5 -9.5h395q-1 5 -1.5 9.5t-2.5 9.5h-378zM286 202q3 -9 7 -17.5t8 -17.5h211q5 8 8.5 17t7.5 18h-242zM266 256q4 -17 12 -33h259q3 8 6 16.5t5 16.5h-282zM287 0q35 0 86 20q4 -6 7 -11.5t7 -10.5h147q-6 10 -12 20.5t-13 22.5h-367
q39 -41 106 -41h39zM309 148q2 -7 6 -13q-8 -3 -17 -3h-8q-21 0 -34 16h-162q3 -18 9 -38h375q6 9 12 18.5t12 19.5h-193zM108 95q5 -11 10.5 -21t12.5 -20h371q-12 19 -22 41h-372z" />
    <glyph glyph-name="r" unicode="r" horiz-adv-x="462" 
d="M290 375h15l-5 5h-9zM348 429l-7 7h-6q0 1 0.5 5.5t0.5 7.5v7q1 4 1 10v7h-47l17 -17l-9 -40h-14l13 -13l-6 -22q15 15 24 27t14 21h19zM462 644q12 -3 53 -39h-4l20 -20h-12v-2l20 -19q2 -5 3 -10.5l1 -5.5q0 -3 10 -19h-20l19 -19q-4 -11 -4.5 -14t-0.5 -5
q0 -4 -0.5 -7.5t-2.5 -10.5h-20l17 -17l-6 -18q-2 -3 -5 -11t-5 -11h-19l13 -13q-8 -14 -14.5 -24.5t-13.5 -18.5h-21l11 -11q-19 -19 -30.5 -28.5t-22.5 -16.5h-22l9 -9l3 -9t3 -8h-1q5 -12 11 -31h-1l5 -5q2 -5 3 -11.5t3 -11.5h1q2 -5 6 -14.5t6 -13.5h-2l3 -3l12 -27
t12 -26h-1l1 -1q2 -5 6 -11t6 -11q2 -7 5.5 -14t11.5 -20h-1q6 -11 15 -24.5t16 -24.5l2 -2q13 -22 21 -34t17 -24l1 -1h-167l-20 20h-4q-5 6 -9.5 12.5t-9.5 12.5l-9 12q-2 1 -4.5 4.5t-4.5 6.5h1q-4 5 -6.5 10t-4.5 7q-8 11 -15 22.5t-13 22.5h-2q-4 6 -10 18t-12 23
q-3 5 -6 11.5t-5 9.5q-6 10 -12.5 24.5t-11.5 23.5l-3 -17h-2l3 -3q-5 -14 -6 -19.5t-2 -9.5t-2 -11.5t-2 -12.5l1 -1q-1 -5 -2 -14.5t-2 -14.5t-1.5 -10t-0.5 -17h-1q-1 -9 -1 -16v-11v-36q0 -3 1 -7q0 -2 0.5 -6.5t0.5 -6.5l-34 -22l-81 -53l-17 -11l-80 -52l-21 21l-7 -5
l15 73l12 53l11 54h1l10 54l10 48l1 5l12 51l11 57l13 53h10l-3 3h-7l11 51h12l-5 5h-7l13 49h13l-7 7h-7l11 46h20l-11 11h-7l8 43h23l-13 13h-7l11 41h23l-15 15h-7l11 39h301zM66 -66h-45l-7 -34zM268 448l5 22h-138l-5 -22h138zM349 470v-4q0 -5 -0.5 -9t-1.5 -9h150
q2 5 4 10.5t4 11.5h-156zM256 392l6 25h-138l-6 -25h138zM336 417q-4 -7 -8.5 -13.5t-9.5 -11.5h146q9 10 17 25h-145zM147 -13h-115l-10 -46h55zM220 223l7 33h-138l-7 -33h138zM170 632l-4 -15h318q-14 12 -25 15h-289zM78 202l-8 -35h139q2 10 3.5 18.5t3.5 16.5h-138z
M418 223q-3 8 -6.5 16.5t-6.5 16.5h-159l15 -33h157zM66 148l-8 -38h145q1 9 2 19t2 19h-141zM442 167q-4 8 -7.5 17t-7.5 18h-156q4 -8 8 -16.5t9 -18.5h154zM470 110q-5 9 -9.5 18.5t-9.5 19.5h-153q5 -10 10.5 -19.5t10.5 -18.5h151zM539 0q-8 11 -14.5 20.5t-13.5 20.5
h-149q8 -11 15.5 -21t15.5 -20h146zM158 578l-4 -17h360q-2 5 -2.5 8.5t-2.5 8.5h-351zM502 54l-12 20t-12 21h-150q10 -19 26 -41h148zM201 74v10q0 6 1 11h-147l-8 -41h154v2v18zM203 23q-1 5 -1.5 9t-0.5 6v3h-157l-9 -43h129zM146 524l-4 -19h372q1 3 1 9q0 7 1 10h-370
zM250 363h-138l-6 -27h297q9 6 17.5 12.5t16.5 14.5h-156q-7 -4 -14.5 -7.5t-17.5 -5.5l-1 2zM236 279h160q-2 8 -5 15t-6 15h-284l-7 -30h139v1h3v-1z" />
    <glyph glyph-name="s" unicode="s" horiz-adv-x="432" 
d="M146 549q0 10 1 14v4q0 1 0.5 2t0.5 2t0.5 1.5t0.5 1.5q1 2 1 4q0 3 5 12h24l-15 15h-14q25 16 42.5 26.5t28.5 12.5h307l-2 -6l21 -20l-9 -33h-24v-1l21 -20l-9 -35h-23l19 -19l-7 -37h-193l17 -17l9 -40h-9l13 -13l12 -43h-9l11 -11l12 -45h-7l9 -9l13 -48h-5l5 -5
l14 -51h-3l3 -3l14 -53h-2l1 -1l5 -15l-1 1q2 -4 2 -15v-23l1 -1q-1 -4 -2 -13t-2 -12q-2 -8 -2 -9v-2q-2 -11 -9 -23h-1q-17 -24 -39.5 -39t-41.5 -15h-283l-20 20h-7l12 65h1l10 45h-1l11 46h177l-5 16h1l-14 54h1l-15 54l-14 53h8l-3 3h-5l-14 51h10l-5 5h-5l-14 49h11
l-7 7h-5l-13 46h13l-11 11h-6v43h27l-13 13h-6zM314 448l-5 22h-151l6 -22h150zM329 392l-7 25h-150l7 -25h150zM343 336l-7 27h-150l7 -27h150zM358 279l-8 30h-150l8 -30h150zM508 617l4 15h-288q-8 -2 -15.5 -6t-15.5 -9h315zM372 223l-9 33h-149l9 -33h149zM386 167
l-9 35h-149l9 -35h149zM159 564q-1 -1 -1 -3h338l4 17h-337q-2 -4 -2.5 -7.5t-1.5 -6.5zM150 505h334l4 19h-338v-13v-6zM63 132l-5 -22h336v8v10q0 10 -1 11l-3 9h-148l5 -16h-184zM307 0q19 0 38 11.5t31 29.5h-333l-8 -41h272zM389 70l2 12t2 13h-338l-9 -41h337
q4 7 6 16z" />
    <glyph glyph-name="FL0074h" unicode="t" horiz-adv-x="479" 
d="M134 493h-7l8 43h23l-13 13h-7l11 41h23l-15 15h-7l11 39h414l-2 -6l21 -20l-9 -33h-24v-1l21 -20l-9 -35h-23l19 -19l-7 -37h-147l17 -17l-7 -40h-17l13 -13l-8 -43h-14l11 -11l-10 -45h-9l9 -9l-12 -48h-6l5 -5l-10 -51h-4l3 -3q-5 -21 -9 -53l1 -1l-3.5 -21t-3.5 -16
l2 -1v-1q0 -3 -0.5 -9t-0.5 -8h-1v-10q-1 -10 -1.5 -21.5t-0.5 -19.5v-16q0 -7 3 -10l3 -3l-38 -25l-11 -7l-71 -45l1 -1l-97 -63l-21 21l-7 -5l15 73l9 40l13 67h1l10 45l12 62h1l10 54h1l11 54h1l10 53h12l-3 3h-7l9 51h13l-5 5h-7l13 49h13l-7 7h-7l9 37h-94zM192 -66
h-45l-7 -34zM394 448l4 22h-138l-5 -22h139zM382 392l5 25h-138l-6 -25h139zM370 336l6 27h-139l-5 -27h138zM273 -13h-115l-10 -46h54zM358 279l7 30h-139l-6 -30h138zM346 223l7 33h-138l-7 -33h138zM203 202l-7 -35h140q3 20 6 35h-139zM192 148l-8 -38h146q1 10 1.5 19
t2.5 19h-142zM555 617l4 15h-389l-4 -15h389zM181 95l-9 -41h155q0 9 0.5 19.5t1.5 21.5h-148zM328 23q-1 1 -1 11v7h-158l-9 -43h130zM543 561l4 17h-389l-4 -17h389zM531 505l4 19h-389l-4 -19h389z" />
    <glyph glyph-name="FL0075h" unicode="u" horiz-adv-x="538" 
d="M270 169l2 -10t3 -13q4 -2 11 -2h2q14 0 33 16h1q12 15 20.5 27t14.5 24q2 4 5.5 11.5t7 16t6.5 16l5 12.5q5 14 9.5 27t6.5 27h12l-3 3h-7l11 51h13l-5 5h-7l9 49h16l-7 7h-7l11 46h20l-11 11h-7l8 43h23l-13 13h-7l11 41h23l-15 15h-7l11 39h165l-2 -6l21 -20l-9 -33
h-24v-1l21 -20l-9 -35h-23l19 -19l-7 -37h-21l17 -17l-9 -40h-14l13 -13l-11 -43h-13l11 -11l-10 -45h-9l9 -9q-4 -12 -5.5 -17.5t-2.5 -8.5l-4 -22h-8l5 -5l-18 -51h-3l3 -3q-4 -8 -12.5 -25.5t-13.5 -27.5h-1l1 -1q-8 -15 -17 -28t-17 -25h1q-34 -42 -54 -59h-1
q-72 -54 -142 -54h-23q-65 0 -121 54l-2 1q-17 13 -33 30h3q-8 12 -15 25.5t-13 28.5h1q-4 11 -6.5 22.5t-4.5 25.5q-3 24 -3 59q0 30 3 54h1q0 2 0.5 4.5t0.5 4.5q2 13 3.5 24.5t3.5 19.5h11l-3 3h-7l11 51h12l-5 5h-7l13 49h13l-7 7h-7l11 46h20l-11 11h-7l8 43h23l-13 13
h-7l11 41h23l-15 15h-7l11 39h165l-2 -6l21 -20l-9 -33h-24v-1l21 -20l-9 -35h-23l19 -19l-7 -37h-21l17 -17l-9 -40h-16l13 -13l-8 -43h-14l11 -11l-10 -45h-13l9 -9q0 -11 -0.5 -15.5t-1.5 -7.5q-1 -5 -1.5 -13t-1.5 -12h-6l5 -5v-51h-3l3 -3q1 -4 2 -10t2 -9zM614 617
l4 15h-140l-4 -15h140zM306 617l4 15h-140l-4 -15h140zM602 561l4 17h-140l-4 -17h140zM294 561l4 17h-140l-4 -17h140zM282 505l4 19h-140l-4 -19h140zM590 505l4 19h-140l-4 -19h140zM270 448l5 22h-140l-5 -22h140zM578 448l5 22h-140l-5 -22h140zM258 392l5 25h-139
l-6 -25h140zM566 392l6 25h-141l-5 -25h140zM246 336l6 27h-140l-6 -27h140zM554 336l6 27h-140l-6 -27h140zM236 279q1 8 2 15.5t2 14.5h-140q-2 -8 -3 -15t-2 -15h141zM541 279q2 8 3.5 15t3.5 15h-141q-3 -14 -9 -30h143zM234 223v8v25h-142q-1 -8 -1.5 -16.5t-0.5 -16.5
h144zM522 223l12 33h-144q-3 -8 -6.5 -16.5t-7.5 -16.5h146zM243 167q-3 8 -4.5 16.5t-3.5 18.5h-145q0 -9 0.5 -18t1.5 -17h151zM497 167q5 10 9 18.5t8 16.5h-148q-11 -20 -23 -35h154zM272 0q69 0 122 41h-251q39 -41 106 -41h23zM411 54q18 15 39 41h-341
q5 -11 10.5 -21t12.5 -20h279zM462 110q7 9 13.5 18.5t11.5 19.5h-161q-19 -16 -38 -16h-2q-20 0 -33 16h-158q3 -18 9 -38h358z" />
    <glyph glyph-name="FL007Dh" unicode="v" horiz-adv-x="464" 
d="M87 184q-1 0 -1 -1zM266 191l1 -1q5 6 8.5 11t7.5 10h-3q14 23 19.5 32.5t8.5 16.5l4 8h3l10 53h12l-3 3h-7l11 51h12l-5 5h-7l13 49h13l-7 7h-7l11 46h20l-11 11h-7l8 43h23l-13 13h-7l11 41h23l-15 15h-7l11 39h163l-2 -6l21 -20l-9 -33h-24v-1l21 -20l-9 -35h-23
l19 -19l-7 -37h-21l17 -17l-9 -40h-14l13 -13l-11 -43h-13l11 -11l-10 -45h-12l9 -9l-2 -20q-1 -3 -3 -7l2 -1l-1.5 -4t-7.5 -16h-6l5 -5q-3 -8 -9.5 -25.5t-10.5 -25.5h-5l3 -3q-8 -14 -15.5 -27.5t-16.5 -25.5l1 -1q-2 -3 -9 -13t-9 -12q-6 -8 -11 -15t-11 -14
q-13 -15 -25 -28.5t-25 -24.5h1q-68 -59 -105 -59h-4q-26 0 -58 32q-23 14 -53 53h2q-8 11 -13 22l-10 22l-1 1q-2 2 -2 5l-2 4q-4 11 -7 22.5t-7 25.5q-5 13 -6.5 17.5t-1.5 6.5t2 4l-6 31h1v54h2v10q0 3 0.5 5.5t0.5 3.5v2l0.5 3t2.5 10l2 19h12l-3 3h-7l11 51h12l-5 5h-7
l13 49h13l-7 7h-7l11 46h20l-11 11h-7l8 43h23l-13 13h-7l11 41h23l-15 15h-7l11 39h163l-2 -6l21 -20l-9 -33h-24v-1l21 -20l-9 -35h-23l19 -19l-7 -37h-21l17 -17l-9 -40h-14l13 -13l-11 -43h-13l11 -11l-10 -45h-11l9 -9l-9 -48h-5l5 -5q0 -12 1.5 -24.5t3.5 -26.5h-2z
M540 617l4 15h-138l-4 -15h138zM304 617l4 15h-138l-4 -15h138zM528 561l4 17h-138l-4 -17h138zM292 561l4 17h-138l-4 -17h138zM280 505l4 19h-138l-4 -19h138zM516 505l4 19h-138l-4 -19h138zM504 448l5 22h-138l-5 -22h138zM268 448l5 22h-138l-5 -22h138zM492 392l6 25
h-138l-6 -25h138zM256 392l6 25h-138l-6 -25h138zM480 336l6 27h-138l-6 -27h138zM244 336l6 27h-138l-6 -27h138zM157 41q32 -41 63 -41h4q34 0 81 41h-148zM232 279l6 30h-138l-1 -8q-2 -5 -2.5 -11t-1.5 -11h137zM474 309h-138l-6 -30h137q2 5 3 10.5t3 11.5zM93 256v-14
v-19h141q-3 16 -3 33h-138zM445 223q4 8 7.5 16.5t6.5 16.5h-139q-4 -8 -8 -16.5t-9 -16.5h142zM95 202q2 -9 3 -18t3 -17h151q-4 8 -7.5 16.5t-5.5 18.5h-144zM413 167q5 8 10.5 16.5t10.5 18.5h-144q-7 -10 -13.5 -18.5t-14.5 -16.5h151zM125 95q5 -11 10.5 -21.5
t11.5 -19.5h172q11 9 20.5 19.5t19.5 21.5h-234zM106 148q5 -22 12 -38h254q8 9 14.5 18t14.5 20h-295z" />
    <glyph glyph-name="FL0077h" unicode="w" horiz-adv-x="561" 
d="M268 271l46 50h47l4 -9l17 -17l22 -48h-1l3 -4l5 25h1l10 53h12l-3 3h-7l11 51h12l-5 5h-7l13 49h13l-7 7h-7l11 46h20l-11 11h-7l8 43h23l-13 13h-7l11 41h23l-15 15h-7l11 39h163l-2 -6l21 -20l-9 -33h-24v-1l21 -20l-9 -35h-23l19 -19l-7 -37h-21l17 -17l-9 -40h-14
l13 -13l-11 -43h-13l11 -11l-10 -45h-11l9 -9l-9 -48h-7l5 -5l-10 -51h-5l3 -3l-10 -53h-2l1 -1l-11 -56h-1l-12 -56l-10 -54h-146l-20 20h-5l-26 54l-27 56l-16 -17h1l-51 -54h1l-54 -59h-147l-20 20h-7l12 65h1l10 45l12 62h1l10 54h1l11 54h1l10 53h12l-3 3h-7l11 51h12
l-5 5h-7l13 49h13l-7 7h-7l11 46h20l-11 11h-7l8 43h23l-13 13h-7l11 41h23l-15 15h-7l11 39h164l-2 -6l21 -20l-9 -33h-24v-1l21 -20l-9 -35h-23l19 -19l-7 -37h-21l17 -17l-9 -40h-14l13 -13l-11 -43h-13l11 -11l-10 -45h-11l9 -9zM367 279l-14 30h-34l-27 -30h75z
M637 617l4 15h-138l-4 -15h138zM305 617l4 15h-139l-4 -15h139zM625 561l4 17h-138l-4 -17h138zM293 561l4 17h-139l-4 -17h139zM613 505l4 19h-138l-4 -19h138zM281 505l4 19h-139l-4 -19h139zM601 448l5 22h-138l-5 -22h138zM269 448l5 22h-139l-5 -22h139zM589 392l6 25
h-138l-6 -25h138zM257 392l6 25h-139l-6 -25h139zM577 336l6 27h-138l-6 -27h138zM245 336l6 27h-139l-6 -27h139zM565 279l6 30h-138l-6 -30h138zM233 279l6 30h-139l-6 -30h139zM395 223l-16 33h-108l-31 -33h155zM553 223l7 33h-138l-7 -33h138zM221 223l7 33h-139
l-7 -33h139zM514 41h-160l20 -41h132zM204 41h-161l-8 -41h132zM517 54l9 41h-198l20 -41h169zM216 54l38 41h-199l-9 -41h170zM529 110l8 38h-234l18 -38h208zM267 110l35 38h-236l-8 -38h209zM221 202l-6 -7l1 7h-139l-7 -35h471l7 35h-138l-1 -7l-4 7h-184z" />
    <glyph glyph-name="FL0078h" unicode="x" horiz-adv-x="538" 
d="M345 375h7l-5 5h-7zM64 160q3 8 5.5 15t5.5 12q2 5 4 11.5t6 12.5l2.5 5t3.5 6q5 6 8.5 13t5.5 9q2 4 7 11t8 12h-3q8 10 15 18t18 19v-1q2 5 8 13l5 5h6l-3 3h-5q-14 26 -21 51h8l-5 5h-6q0 10 -0.5 13t-1.5 5v1q1 -2 0 4t-2 11q-1 4 -1.5 5.5t-0.5 9.5h13l-7 7h-6v46
h19l-11 11h-6q0 26 1 31v2q0 2 0.5 5.5t0.5 4.5h26l-13 13h-6q0 5 -0.5 9t1.5 8l3 24h26l-15 15h-7l11 39h165l-2 -6l21 -20l-9 -33h-27v-1l20 -20v-13q-1 -3 -2 -10t-2 -12h-19l19 -19q-4 -11 -4.5 -14t-0.5 -5q0 -4 -0.5 -7.5t-2.5 -10.5h-15l17 -17q0 -14 0.5 -23
t2.5 -17h-10l13 -13q1 -3 2 -5.5t3 -5.5q6 -6 10 -9q17 14 30.5 25.5t20.5 20.5h20l-7 7h-9q7 11 11 18.5t6 10.5q1 2 1.5 4t1.5 4q2 6 4 9h25l-11 11h-7l8 25v-1q0 1 0.5 1.5t0.5 1.5q1 2 1 4q0 3 5 12h23l-13 13h-6l1 5t2 8q2 8 3 10l2 4v14h27l-15 15h-7l11 39h165l-2 -6
l21 -20l-9 -33h-26v-1l21 -20l-4 -24q-1 -1 -1 -11h-24l19 -19q-3 -6 -5 -12.5t-3 -9.5l-5 -15h-23l17 -17q-5 -14 -7.5 -18.5t-3.5 -6.5h1q-1 -2 -3 -7.5t-3 -7.5h-18l13 -13q-9 -13 -10 -17q-2 -5 -7 -13.5t-7 -12.5h-21l11 -11q-15 -28 -31 -45h-23l9 -9
q6 -10 10.5 -21.5t10.5 -26.5h-3l5 -5q4 -14 5 -26.5t3 -24.5h-4l3 -3q2 -7 2.5 -11.5t0.5 -7.5v-34h-3l1 -1q0 -2 -0.5 -10t-0.5 -10q-1 -8 -2.5 -22l-1.5 -14h-2q-2 -11 -2.5 -21.5t-2.5 -15.5l-5 -19l-10 -54h-159l-20 20h-7l10 54h-1l2 8l4 12q2 7 3.5 17.5t3.5 27.5
q1 4 1 11q1 10 1.5 21t0.5 21h1q-1 11 -3 23.5t-7 30.5q-2 4 -3 5q-2 1 -4 1h-2q-13 0 -25.5 -8t-23.5 -21h-7l3 -3q-6 -9 -11.5 -17.5t-9.5 -18.5q-2 -4 -4 -8.5t-4 -8.5h-1l1 -1q-7 -14 -10 -23l-6 -18l-5 -15q-2 -5 -3 -11t-2 -8q-2 -9 -4 -16t-4 -12l-3 -9l-10 -54h-159
l-20 20h-7l12 65l4 13q2 6 3 10q1 2 1 4q0 3 1 5q1 3 3 13h-1l1 5q0 1 0.5 2t0.5 2h1l3 10q2 5 3 9.5t2 6.5q2 5 4.5 13.5t4.5 13.5h1zM306 617l4 15h-140l-4 -15h140zM614 617l4 15h-140l-4 -15h140zM294 561q1 9 3 15v2h-140l-2 -12q-1 -1 -1 -5h140zM602 561q0 4 1 5
l2 12h-140v-2q-1 -3 -2 -7l-2 -8h141zM287 505q1 3 1 9q0 7 1 10h-142q-1 -5 -1.5 -9.5t-0.5 -9.5h142zM586 505q2 5 3 9.5t3 9.5h-143q-2 -5 -3 -9.5t-3 -9.5h143zM289 448q-1 5 -1.5 10.5t-0.5 11.5h-144v-11v-11h146zM564 448q2 5 5 10.5t5 11.5h-146q-3 -6 -5.5 -11.5
t-5.5 -10.5h147zM312 392q-5 4 -8.5 10.5t-7.5 14.5h-151q1 -7 2 -13l2 -12h163zM536 392q4 6 7 12t7 13h-154q-6 -8 -12 -14t-13 -11h165zM95 202q-4 -9 -7.5 -17.5t-7.5 -17.5h144q5 9 9.5 18t9.5 17h-148zM511 167v15v10q0 7 -1 10h-150q2 -8 3 -17l2 -18h146zM72 148
q-3 -10 -6 -19t-6 -19h142q3 9 6 18.5t8 19.5h-144zM505 110q2 10 2.5 19.5t1.5 18.5h-144q0 -10 -0.5 -19.5t-1.5 -18.5h142zM183 41h-140l-8 -41h140zM491 41h-140l-8 -41h140zM497 67q2 7 3 14l2 14h-141q-3 -23 -6 -38l-1 -3h140zM56 95q-2 -8 -3.5 -14.5t-3.5 -13.5
l-3 -13h140l1 3q2 7 4.5 16.5t5.5 21.5h-141zM497 336q13 15 20 27h-360q2 -7 4.5 -13.5t6.5 -13.5h329zM496 279q-3 8 -6 15t-8 15h-313q-7 -8 -13.5 -15t-12.5 -15h353zM508 223q-1 8 -2 16.5t-3 16.5h-377q-5 -8 -10 -16.5t-10 -16.5h153q11 13 24.5 21t28.5 8h2
q15 0 24.5 -8t15.5 -21h154z" />
    <glyph glyph-name="FL0079h" unicode="y" horiz-adv-x="538" 
d="M345 375h7l-5 5h-7zM161 536l-13 13h-6q0 5 -0.5 9t1.5 8l3 24h26l-15 15h-7l11 39h165l-2 -6l21 -20l-9 -33h-27v-1l20 -20v-13q-1 -3 -2 -10t-2 -12h-19l19 -19q-4 -11 -4.5 -14t-0.5 -5q0 -4 -0.5 -7.5t-2.5 -10.5h-15l17 -17q0 -14 0.5 -23t2.5 -17h-10l13 -13
q1 -3 2 -5.5t3 -5.5q6 -6 10 -9q17 14 30.5 25.5t20.5 20.5h20l-7 7h-9q7 11 11 18.5t6 10.5q1 2 1.5 4t1.5 4q2 6 4 9h25l-11 11h-7l8 25v-1q0 1 0.5 1.5t0.5 1.5q1 2 1 4q0 3 5 12h23l-13 13h-6l1 5t2 8q2 8 3 10l2 4v14h27l-15 15h-7l11 39h165l-2 -6l21 -20l-9 -33h-26
v-1l21 -20l-4 -24q-1 -1 -1 -11h-23l19 -19q-3 -6 -5 -12.5t-3 -9.5l-5 -15h-24l17 -17q-2 -6 -7.5 -20.5t-7.5 -19.5h-20l13 -13q-8 -16 -13 -25.5t-10 -17.5h-17l11 -11q-10 -15 -18.5 -25.5t-17.5 -19.5h-17l9 -9q-18 -18 -32.5 -29.5t-25.5 -18.5h-48l5 -5l-13 -51h-1
l3 -3q-5 -14 -6 -19.5t-2 -9.5t-2 -11.5t-2 -12.5l1 -1q-1 -5 -2 -14.5t-2 -14.5t-1.5 -10t-0.5 -17h-1q-1 -9 -1 -16v-11v-36q0 -3 1 -7q0 -2 0.5 -6.5t0.5 -6.5l-33 -22l-11 -7l-71 -45l1 -1l-97 -63l-21 21l-7 -5l15 73l9 40l13 67h1l10 45l12 62h1l10 54h1l7 34
q-8 5 -13 11l-8 8h-2q-11 7 -22.5 20.5t-23.5 33.5h8l-3 3h-5q-4 9 -8.5 20.5t-9.5 30.5h10l-5 5h-6q-2 6 -3 12t-1 12q0 2 -0.5 6t-3.5 19h14l-7 7h-6v46h19l-11 11h-6q0 26 1 31v2q0 2 0.5 5.5t0.5 4.5h26zM166 -100l52 34h-45zM306 617l4 15h-140l-4 -15h140zM614 617
l4 15h-140l-4 -15h140zM297 578h-140l-2 -12q-1 -1 -1 -5h140q1 9 3 15v2zM605 578h-140v-2q-1 -3 -2 -7l-2 -8h141q0 4 1 5zM147 524q-1 -5 -1.5 -9.5t-0.5 -9.5h142q1 3 1 9q0 7 1 10h-142zM587 505q2 5 3 9.5t3 9.5h-144q-2 -5 -3 -9.5t-3 -9.5h144zM143 470v-13v-9h146
q-1 5 -1.5 10.5t-0.5 11.5h-144zM566 448q2 5 4.5 10.5t4.5 11.5h-147q-3 -6 -5.5 -11.5t-5.5 -10.5h149zM228 -59l71 46h-115l-10 -46h54zM145 417q1 -5 1 -13q0 -4 2 -12h164q-5 4 -8.5 10.5t-7.5 14.5h-151zM537 392q4 6 7.5 12t6.5 13h-155q-6 -8 -12 -14t-13 -11h166z
M371 223l8 33h-138l-7 -33h137zM229 202l-7 -35h138q2 10 3.5 18.5t3.5 16.5h-138zM218 148l-8 -38h144q1 9 2 19t2 19h-140zM352 74v10q0 6 1 11h-146l-9 -41h154v2v18zM354 23q-1 5 -1.5 9t-0.5 6v3h-157l-9 -43h130zM431 279q11 7 21.5 14.5t18.5 15.5h-291
q12 -20 28 -30h223zM497 336q6 6 11.5 12.5t10.5 14.5h-364q4 -15 10 -27h332z" />
    <glyph glyph-name="FL007Ah" unicode="z" horiz-adv-x="432" 
d="M42 74q1 9 6 24h-1q14 35 23 48l6 9h-1l37 56l2 3l38 53l36 54h13l-3 3h-8l34 51h16l-5 5h-8l34 49h19l-7 7h-9l26 37h-136l-20 20h-7l8 43h23l-13 13h-7l11 41h23l-15 15h-7l11 39h364l-2 -6l21 -20l-9 -33h-24v-1l20 -20l-5 -26q-1 -1 -1 -9h-26l19 -19q-6 -25 -13 -37
h-29l17 -17l-28 -40h-22l13 -13l-30 -43h-19l11 -11l-30 -45h-16l9 -9l-32 -48h-8l5 -5l-36 -51h-4l3 -3l-31 -44h142l-1 -6l20 -20l-9 -37h1l-12 -54l-1 -5l-10 -54h-357l-20 20h-7l11 54h-1zM438 448l15 22h-151l-15 -22h151zM399 392l17 25h-150l-17 -25h150zM361 336
l18 27h-150l-18 -27h150zM322 279l20 30h-149l-20 -30h149zM283 223l23 33h-148l-23 -33h148zM505 617l4 15h-339l-4 -15h339zM245 167l24 35h-148l-23 -35h147zM497 578h-339l-4 -17h339q0 2 1 3zM146 524l-4 -19h334q4 6 7 19h-337zM221 132l11 16h-147l-6 -9
q-9 -12 -15 -29h336l5 22h-184zM50 54h338l9 41h-337q-5 -12 -6 -25zM385 41h-337l-9 -41h338z" />
    <glyph glyph-name="FL007Bh" unicode="{" 
d="M27 -12h-7l12 65h1l10 45l12 62h1l10 54h1l11 54h1l10 53h12l-3 3h-7l11 51h12l-5 5h-7l13 49h13l-7 7h-7l11 46h20l-11 11h-7l8 43h23l-13 13h-7l11 41h23l-15 15h-7l11 39h163l-2 -6l21 -20l-9 -33h-24v-1l21 -20l-9 -35h-23l19 -19l-7 -37h-21l17 -17l-9 -40h-14
l13 -13l-11 -43h-13l11 -11l-10 -45h-11l9 -9l-9 -48h-7l5 -5l-10 -51h-5l3 -3l-10 -53h-2l1 -1l-11 -56h-1l-11 -51l-1 -5l-10 -54h-157zM304 617l4 15h-138l-4 -15h138zM292 561l4 17h-138l-4 -17h138zM280 505l4 19h-138l-4 -19h138zM268 448l5 22h-138l-5 -22h138z
M256 392l6 25h-138l-6 -25h138zM244 336l6 27h-138l-6 -27h138zM232 279l6 30h-138l-6 -30h138zM220 223l7 33h-138l-7 -33h138zM208 167l7 35h-138l-7 -35h138zM196 110l8 38h-138l-8 -38h138zM184 54l9 41h-138l-9 -41h138zM181 41h-138l-8 -41h138z" />
    <glyph glyph-name="FL007Ch" unicode="|" horiz-adv-x="228" 
d="M181 718h-7l7 33h163l-1 -6l20 -20l-6 -27h-156zM-3 -154h-7l8 46h1l8 37l15 70l11 54h1l10 54l10 48l1 5l12 51l11 56v1l13 53h10l-3 3h-7l11 51h13l-5 5h-7l9 49h17l-7 7h-7l8 46h22l-11 11h-7l8 43h24l-13 13h-7l7 41h27l-15 15h-7l7 39h27l-17 17h-7l10 36h163l-2 -6
l21 -20l-8 -30h-24v-3l20 -20l-6 -33h-26v-1l20 -20l-6 -35h-24l19 -19l-7 -37h-22l17 -17l-7 -40h-17l13 -13l-8 -43h-14l11 -11l-10 -45h-9l9 -9l-12 -48h-6l5 -5l-10 -51h-3l3 -3l-13 -53h-1l1 -1l-11 -56h-1l-10 -56h-1l-11 -56h-2l-10 -45l1 -1l-12 -54l-7 -40h-157z
M327 730l2 9h-138l-2 -9h138zM315 673l3 12h-138l-3 -12h138zM304 617l3 15h-138l-3 -15h138zM292 561l3 17h-138l-3 -17h138zM280 505l4 19h-138l-4 -19h138zM268 448l4 22h-138l-4 -22h138zM143 -142l4 22h-138l-4 -22h138zM256 392l5 25h-138l-5 -25h138zM244 336l6 27
h-138l-6 -27h138zM232 279l7 30h-138l-7 -30h138zM220 223l7 33h-138l-7 -33h138zM208 167l8 35h-138l-8 -35h138zM196 110l8 38h-138l-8 -38h138zM185 54l8 41h-138l-8 -41h138zM173 -2l9 43h-138l-9 -43h138zM160 -59l10 46h-138l-10 -46h138zM148 -115l11 49h-138
l-11 -49h138z" />
    <glyph glyph-name="FL0076h" unicode="}" horiz-adv-x="454" 
d="M186 -4q-4 4 -6 5q-11 8 -23.5 21t-25.5 31h1q-8 11 -13 22l-10 22l-5 10h1q-4 11 -7 22.5t-7 25.5q-5 15 -6.5 28.5t-2.5 27.5h-1v57h2v10q0 2 0.5 4.5t0.5 3.5q0 3 2 11q0 3 1 5l2 19h12l-3 3h-7l11 51h12l-5 5h-7l13 49h13l-7 7h-7l11 46h20l-11 11h-7l8 43h23l-13 13
h-7l11 41h23l-15 15h-7l11 39h163l-2 -6l21 -20l-9 -33h-24v-1l21 -20l-9 -35h-23l19 -19l-7 -37h-21l17 -17l-9 -40h-14l13 -13l-11 -43h-13l11 -11l-10 -45h-11l9 -9l-9 -48h-5l5 -5v-27q0 -4 0.5 -8.5t2.5 -15.5h-2l3 -3q2 -10 4.5 -20t7.5 -21l2 9l1 4l10 54h1l11 54h1
l10 53h12l-3 3h-7l9 51h13l-5 5h-7l13 49h13l-7 7h-7l11 46h20l-11 11h-7l8 43h23l-13 13h-7l11 41h23l-15 15h-7l11 39h164l-2 -6l21 -20l-9 -33h-24v-1l21 -20l-9 -35h-23l19 -19l-7 -37h-21l17 -17l-9 -40h-14l13 -13l-11 -43h-13l11 -11l-10 -45h-11l9 -9l-9 -48h-7
l5 -5l-10 -51h-5l3 -3l-10 -53h-2l1 -1l-11 -56h-1l-12 -56l-10 -54h-192q-24 0 -52 28zM304 617l4 15h-138l-4 -15h138zM530 617l4 15h-139l-4 -15h139zM292 561l4 17h-138l-4 -17h138zM518 561l4 17h-139l-4 -17h139zM280 505l4 19h-138l-4 -19h138zM506 505l4 19h-139
l-4 -19h139zM268 448l5 22h-138l-5 -22h138zM494 448l5 22h-139l-5 -22h139zM256 392l6 25h-138l-6 -25h138zM482 392l6 25h-139l-6 -25h139zM244 336l6 27h-138l-6 -27h138zM470 336l6 27h-139l-5 -27h138zM232 279l6 30h-138l-1 -8q-2 -6 -2.5 -11.5t-1.5 -10.5h137z
M458 279l6 30h-138l-6 -30h138zM446 223l7 33h-138l-7 -33h138zM231 256h-138q-1 -5 -0.5 -8.5t0.5 -7.5v-17h139q-1 5 -1 15v15v3zM434 167l7 35h-138l-7 -35h138zM95 202l2 -18t3 -17h148q-9 15 -12 35h-141zM399 0l8 41h-253q30 -41 61 -41h184zM410 54l9 41h-296
q5 -11 10.5 -21.5t11.5 -19.5h265zM283 130q-7 3 -12 8l-10 10h-156q5 -22 12 -38h305l8 38h-138l-2 -9z" />
    <glyph glyph-name="FL007Eh" unicode="~" horiz-adv-x="486" 
d="M149 375h191l1 -8l19 -18v-4l18 30h143l-4 -6l21 -20l-26 -45h-15l9 -9l-31 -48h-10l5 -5l-12 -24h-169l-20 20h-6l-5 27l-10 -18h-10l5 -5l-12 -24h-134l-20 20h-8l13 29l35 54h14l-3 3h-9zM206 256h-115l-3 -6h115zM430 250l3 6h-160l1 -6h156zM483 336l16 27h-113
l-16 -27h113zM220 279l17 30h-113l-19 -30h115zM259 336h75l-5 27h-172l-16 -27h112l5 9zM264 309l5 -30h178l19 30h-112l-12 -21l-4 21h-74z" />
    <glyph glyph-name="FL007Fh" horiz-adv-x="158" 
 />
    <glyph glyph-name="FL20ACh" unicode="&#x20ac;" horiz-adv-x="523" 
d="M124 471h97q2 6 5 11h26l-11 11h-9l18 28v-1l8 16h37l-13 13h-9q7 9 11 14.5t6 8t3.5 4l3.5 3.5q2 1 9 11h73l-15 15h-5l-6 20q27 16 60 19h206l-2 -6l21 -20l-9 -33h-24v-1l21 -20l-9 -35h-23l19 -19l-7 -37h-181l2 -2h108l-2 -6l21 -20l-8 -29h-14l13 -13l-11 -43h-13
l11 -11l-10 -45h-25v-1l21 -20l-8 -36h-6l5 -5l-10 -51h-4l3 -3l-9 -44h22l-1 -6l20 -20l-9 -37h1l-12 -54l-1 -5l-10 -54h-148q-36 0 -65.5 14t-58.5 41q-9 7 -17.5 14t-16.5 16h3q-7 10 -13 20.5t-11 24.5q-2 4 -2 6q-1 1 -1 3q-3 8 -5 16.5t-4 17.5h-76l-20 20h-7l10 53
l11 54h1l9 41h25l-15 15h-7l11 51h12l-5 5h-7l13 49h13l-7 7h-7zM599 617l4 15h-189q-26 -3 -49 -15h234zM587 561l4 17h-280q-4 -5 -8 -8.5t-8 -8.5h292zM130 448h386l3 11h-131q2 3 5 5.5t5 5.5h-164q-2 -3 -2.5 -6t-2.5 -5h-96zM575 505l4 19h-313q-3 -5 -6 -9.5t-6 -9.5
h321zM94 279h386l4 18h-168q0 7 1 8l1 4h-141l-2 -12h-77zM468 0l8 41h-255q20 -20 46 -30.5t61 -10.5h140zM504 392l6 25h-386l-6 -25h386zM491 110l5 22h-125q-21 0 -34 16h-165q3 -18 9 -38h310zM492 336l6 27h-386l-6 -27h386zM479 54l9 41h-302q7 -21 24 -41h269z
M169 167h157l-2 6h134l6 29h-386l-6 -29h97v-6zM468 223l7 33h-386l-7 -33h386z" />
    <glyph glyph-name="FL201Ah" unicode="&#x201a;" 
d="M10 -88q-2 0 -3 -0.5t-3 -0.5l3 18v2l3 15l12 53l11 54l10 45h-1l11 46h164l-1 -6l20 -20l-9 -37h1l-12 -54l-1 -5l-8 -43l-1 -1q0 -1 -1 -2l3 -3q-22 -17 -49 -35t-53 -29h-14l1 -6q-27 -9 -62 -12zM19 -76q10 1 21.5 3.5t23.5 6.5h-43zM63 132l-5 -22h139l5 22h-139z
M32 -13l-10 -46h60q23 10 43 22.5t34 23.5h-127zM185 54l9 41h-139l-9 -41h139zM182 41h-138l-9 -43h135q3 3 5 8z" />
    <glyph glyph-name="FL0192h" unicode="&#x192;" horiz-adv-x="446" 
d="M290 375h130l-1 -6l20 -20l-10 -45h-9l9 -9l-12 -48h-6l5 -5l-4 -24h-155l-6 -27h-4l3 -3l-10 -53h-2l1 -1l-11 -56h-1l-11 -50l1 -1l-12 -61h-2l-10 -45l1 -1l-12 -61l-21 19v-2l-59 53l-19 17l-59 53l-24 22q1 1 3 4.5t4 5.5q1 1 4 7l0.5 1t2.5 3h-4q11 18 15 27t6 16
q1 1 1.5 2.5t1.5 2.5l-1 -2q0 -1 1 2.5t2 6.5q0 1 2 5q1 2 1.5 5t1.5 5t1.5 3.5t1.5 3.5v1q2 4 2 7q1 3 2.5 9t5.5 24q5 14 8.5 27t5.5 27l11 54l13 53h10l-3 3h-7l11 51h13l-5 5h-7l9 49h17l-7 7h-7l8 46h22l-11 11h-7l8 43h24l-13 13h-7l7 41h26l-15 15h-7l7 29v10h384
l-2 -6l21 -20l-9 -33h-24v-1l21 -20l-9 -35h-23l19 -19l-7 -37h-239l17 -17l-7 -40h-17l13 -13zM160 -66h-45l38 -34zM269 448l4 22h-138l-4 -22h138zM257 392l5 25h-138l-5 -25h138zM161 -59l10 46h-115l51 -46h54zM209 167l7 35h-137q-3 -14 -9 -35h139zM522 617l4 15
h-356v-2l-3 -13h355zM197 110l8 38h-140q-2 -10 -5 -19t-6 -19h143zM381 250l1 6h-292l-7 -33h138l6 27h154zM510 561l4 17h-356l-3 -17h355zM185 54l9 41h-146q-4 -11 -7.5 -21.5t-8.5 -19.5h153zM44 -2h130l9 43h-157q-3 -5 -5.5 -9.5t-4.5 -8.5zM498 505l4 19h-355
l-4 -19h355zM399 336l6 27h-292l-6 -27h292zM387 279l7 30h-292l-7 -30h292z" />
    <glyph glyph-name="FL201Eh" unicode="&#x201e;" horiz-adv-x="403" 
d="M10 -88q-2 0 -3 -0.5t-3 -0.5l3 18v2l3 15l12 53l11 54l10 45h-1l11 46h164l-2 -6l8 -9l4 15h164l-1 -6l20 -20l-9 -37h1l-13 -59l-8 -43l-1 -1q0 -1 -1 -2l3 -3q-22 -17 -49 -35t-53 -29h-14l1 -6q-27 -9 -62 -12l-21 21q-2 0 -3 -0.5t-3 -0.5l3 18v2l3 15l2 11
q-19 -14 -39.5 -26.5t-40.5 -21.5h-14l1 -6q-27 -9 -62 -12zM193 -76q10 1 21.5 3.5t23.5 6.5h-43zM19 -76q10 1 21.5 3.5t23.5 6.5h-43zM63 132l-5 -22h139l5 22h-139zM237 132l-5 -22h139l5 22h-139zM206 -13l-10 -46h60q23 10 43 22.5t34 23.5h-127zM32 -13l-10 -46h60
q23 10 43 22.5t34 23.5h-127zM359 54l9 41h-139l-9 -41h139zM185 54l9 41h-139l-9 -41h139zM356 41h-138l-9 -43h135q3 3 5 8zM182 41h-138l-9 -43h135q3 3 5 8z" />
    <glyph glyph-name="FL2026h" unicode="&#x2026;" horiz-adv-x="607" 
d="M221 53h1l10 45h-1l-4 -17h1zM410 53h1l10 45h-1l-4 -17h1zM405 -12h-7l8 44l-1 -5l-1 -5l-10 -54h-158l-20 20h-7l8 44l-1 -5l-1 -5l-10 -54h-158l-20 20h-7l12 65h1l10 45h-1l11 46h164l-1 -6l20 -20l6 26h164l-1 -6l20 -20l6 26h164l-1 -6l20 -20l-9 -37h1l-13 -59
l-10 -54h-158zM63 132l-5 -22h139l5 22h-139zM441 132l-5 -22h139l5 22h-139zM252 132l-5 -22h139l5 22h-139zM363 0l8 41h-139l-8 -41h139zM185 54l9 41h-139l-9 -41h139zM552 0l8 41h-139l-8 -41h139zM174 0l8 41h-139l-8 -41h139zM563 54l9 41h-139l-9 -41h139zM374 54
l9 41h-139l-9 -41h139z" />
    <glyph glyph-name="FL2020h" unicode="&#x2020;" horiz-adv-x="415" 
d="M104 -54l12 53l11 54h1l10 54l10 48l1 5l12 51l11 57l11 47h-62l-20 20h-7l7 40h13l-5 5h-7l13 49h13l-7 7h-7l11 46h114l-11 11h-7l8 43h23l-13 13h-7l11 41h23l-15 15h-7l11 39h163l-2 -6l21 -20l-9 -33h-24v-1l21 -20l-9 -35h-23l19 -19l-6 -28h69l-2 -6l21 -20
l-9 -40h-14l13 -13l-11 -43h-13l11 -11l-6 -34h-94l-3 -11h-9l9 -9l-12 -48h-6l5 -5l-10 -51h-2l3 -3q-5 -14 -6 -19.5t-2 -9.5t-2 -11.5t-2 -12.5l1 -1q-1 -5 -2 -14.5t-2 -14.5t-1.5 -10t-0.5 -17h-1q-1 -9 -1 -16v-11v-36q0 -3 1 -7q0 -2 0.5 -6.5t0.5 -6.5l-34 -22
l-81 -53l-17 -11l-80 -52l-21 21l-7 -5zM108 -100l52 34h-45zM398 617l4 15h-138l-4 -15h138zM386 561l4 17h-138l-4 -17h138zM374 505l4 19h-138l-4 -19h138zM171 -59l70 46h-115l-10 -46h55zM326 279l7 30h-138l-7 -30h138zM314 223l7 33h-138l-7 -33h138zM172 202l-8 -35
h139q2 10 3.5 18.5t3.5 16.5h-138zM160 148l-8 -38h145q1 9 2 19t2 19h-141zM295 74v10q0 6 1 11h-147l-8 -41h154v2v18zM297 23q-1 5 -1.5 9t-0.5 6v3h-157l-9 -43h129zM200 336h138l3 11h93l3 16h-325l-3 -16h94zM455 448l5 22h-325l-5 -22h325zM443 392l6 25h-325l-6 -25
h325z" />
    <glyph glyph-name="FL2021h" unicode="&#x2021;" horiz-adv-x="415" 
d="M104 -54h1l9 40l13 67h1l8 45l1 5l8 32h-62l-20 20h-7l11 59h1l11 54h1l5 29h94l3 18h-61l-20 20h-7l7 40h13l-5 5h-7l13 49h13l-7 7h-7l11 46h114l-11 11h-7l8 43h23l-13 13h-7l11 41h23l-15 15h-7l11 39h163l-2 -6l21 -20l-9 -33h-24v-1l21 -20l-9 -35h-23l19 -19
l-6 -28h69l-2 -6l21 -20l-9 -40h-14l13 -13l-11 -43h-13l11 -11l-6 -34h-94l-3 -11h-10l7 -7h70l-1 -5l21 -21l-4 -24h-7l5 -5l-10 -51h-5l3 -3l-10 -53h-92l1 -1q-5 -20 -6.5 -32l-2.5 -20l2 -1q-2 -14 -2.5 -19t-0.5 -8v-32h-1q2 -7 3 -15.5t2 -11.5l-35 -22l-81 -53
l-17 -11l-80 -52l-21 21l-7 -5zM108 -100l52 34h-45zM398 617l4 15h-138l-4 -15h138zM386 561l4 17h-138l-4 -17h138zM374 505l4 19h-138l-4 -19h138zM171 -59l70 46h-114l-10 -46h54zM95 279h325l1 6h-93l5 24h-138l-5 -24h-94zM161 148l-9 -38h144q1 9 2 18.5t3 19.5h-140
zM294 77v9t1 9h-146l-8 -41h153v7v16zM297 23q-2 7 -3 18h-156l-9 -43h129zM200 336h138l3 11h93l3 16h-325l-3 -16h94zM455 448l5 22h-325l-5 -22h325zM443 392l6 25h-325l-6 -25h325zM408 223l7 33h-325l-7 -33h325zM396 167l7 35h-325l-7 -35h325z" />
    <glyph glyph-name="FL02C6h" unicode="&#x2c6;" horiz-adv-x="394" 
d="M451 750l2 -7l19 -19l7 -26h-233l-20 20h-9l25 32h209zM184 661h-9l28 36h263l2 -8l19 -18l10 -30h-135l-13 13l-9 -13h-136zM313 673l8 12h-113l-9 -12h114zM461 673l-4 12h-114l3 -12h115zM247 738l-6 -8h203l-2 8h-195z" />
    <glyph glyph-name="FL2030h" unicode="&#x2030;" horiz-adv-x="912" 
d="M280 484q-1 -1 -2 -1l-1 -1h5zM394 463l6 10h-15zM258 463q1 2 1.5 5t2.5 5h-19l13 -14zM856 321q18 -10 36 -35l5 -5q7 -6 12.5 -14.5t11.5 -19.5h-4l5 -5q4 -14 5 -26.5t3 -24.5h-3l3 -3q-2 -13 -3 -25t-5 -28l1 -1q-8 -32 -16 -53h1q-8 -17 -15 -30.5t-14 -23.5h1
q-25 -27 -51 -43t-54 -16h-20q-34 0 -58 24l-6 6q-24 13 -41 44l-2 4h-1v1q-3 -6 -6 -10.5t-6 -9.5h1q-25 -27 -51 -43t-54 -16h-20q-34 0 -58 24l-6 6q-24 13 -41 44l-2 4t-3 7h2q-6 22 -6 54v13q0 7 1 15h-1l1 -1l-33 -56h-1l-32 -56h-1l-31 -54h-159l-20 20h-8l37 65h1
l31 54l29 48l3 5l32 54h2l30 53l22 37h-125l-20 20h-4q-17 16 -30 51h11l-5 5h-5q-3 9 -3.5 13.5t-0.5 9.5v26h11l-7 7h-7q5 14 5.5 17t0.5 5q0 6 1 12t3 12h19l-11 11h-7l8 25q1 2 2 5.5t6 12.5h28l-13 13h-8q8 15 11 20t5 9q2 2 3.5 4.5t3.5 6.5v1h62l-15 15h-5l-6 20
q32 19 69 19h23q31 -2 76 -39h-5l20 -20h-11v-1l20 -20q0 -14 1 -16q0 -2 2 -7t4 -12h-20l19 -19q0 -3 -0.5 -10t-0.5 -9v-9h27l-11 11h-8l24 43h30l-13 13h-8l23 41h33l-15 15h-8l22 39h167l-3 -5l21 -21l-19 -33h-34l21 -21l-20 -35h-31l19 -19l-21 -37h-28l17 -17
l-23 -40h-22l13 -13l-25 -43h-18l11 -11l-18 -31q1 1 5 3h99q18 -10 36 -35l5 -5q-1 1 -2 1l-1 1l3 -2q7 -6 12.5 -14.5t11.5 -19.5h-4l3 -4q4 7 7 13t6 11h-1q22 22 39 35t30 19h99zM277 632q-17 0 -31 -4t-26 -11h122q-17 13 -42 15h-23zM226 453q0 4 0.5 8t1.5 9h-93
q-2 -8 -2 -12q0 -7 -1 -10h94v5zM638 617l9 15h-138l-9 -15h138zM271 462q-3 -7 -7 -14h97q2 5 3 10.5t3 11.5h-93q-1 -1 -3 -8zM605 561l10 17h-138l-10 -17h138zM572 505l11 19h-138l-11 -19h138zM538 448l13 22h-138l-13 -22h138zM179 578q-3 -5 -6 -8.5t-5 -8.5h203
q-1 5 -1.5 8.5t-1.5 8.5h-189zM556 167h92q2 9 3 17.5t2 17.5h-112q8 -2 11.5 -10t3.5 -18v-7zM800 167h92q2 9 3 17.5t2 17.5h-112q8 -2 11.5 -10t3.5 -18v-7zM427 202q-4 -9 -6.5 -18t-4.5 -17h94q3 11 10.5 21.5t19.5 13.5h-113zM671 202q-4 -9 -6.5 -18t-4.5 -17h94
q3 11 10.5 21.5t19.5 13.5h-113zM504 392l15 25h-137l-15 -25h137zM505 141q0 5 1 7h-93q-2 -10 -3 -19.5t-1 -18.5h108q-8 1 -10 8.5t-2 16.5v6zM749 141q0 5 1 7h-93q-2 -10 -3 -19.5t-1 -18.5h108q-8 1 -10 8.5t-2 16.5v6zM471 336l16 27h-137l-16 -27h137zM877 110
q7 16 12 38h-94q-1 -1 -1 -2q-5 -11 -12 -22.5t-15 -13.5h110zM633 110q7 16 12 38h-94q-1 -1 -1 -2q-5 -11 -12 -22.5t-15 -13.5h110zM262 518q10 -3 13 -13h98q0 5 0.5 9.5t0.5 9.5h-224q-2 -5 -3.5 -9.5t-3.5 -9.5h99q9 10 19 13h1zM437 279l18 30h-137l-18 -30h137z
M760 309q-25 -11 -44 -30h167q-11 19 -30 30h-93zM516 309q-25 -11 -44 -30h167q-11 19 -30 30h-93zM138 363q6 -16 17 -27h134q17 11 29 27h-180zM404 223l19 33h-137l-19 -33h137zM370 167l21 35h-137l-21 -35h137zM336 110l23 38h-137l-23 -38h137zM752 0q25 0 46 11
t38 30h-172q9 -19 25.5 -30t42.5 -11h20zM508 0q25 0 46 11t38 30h-172q9 -19 25.5 -30t42.5 -11h20zM130 417v-2v-12q0 -8 1 -11h207q3 6 6.5 12t5.5 13h-220zM295 41h-137l-24 -41h137zM303 54l24 41h-137l-24 -41h137zM697 256q-11 -17 -18 -33h218q-1 8 -2 16.5t-3 16.5
h-195zM453 256q-11 -17 -18 -33h218q-1 8 -2 16.5t-3 16.5h-195zM653 95q0 -23 6 -41h188q13 16 24 41h-218zM409 95q0 -23 6 -41h188q13 16 24 41h-218z" />
    <glyph glyph-name="FL0160h" unicode="&#x160;" horiz-adv-x="432" 
d="M226 774h-5l-9 31h141l2 -7l19 -19l7 -25h-135zM386 774h-9l23 31h143l-4 -5l21 -21l-18 -25h-136zM243 718h-6l-7 33h276l-4 -5l21 -21l-21 -27h-239zM146 566l1 1q0 1 0.5 2t0.5 2t0.5 1.5t0.5 1.5q1 2 1 4q0 3 5 12h24l-15 15h-14q25 16 42.5 26.5t28.5 12.5h307
l-2 -6l21 -20l-9 -33h-24v-1l21 -20l-9 -35h-23l19 -19l-7 -37h-193l17 -17l9 -40h-9l13 -13l12 -43h-9l11 -11l12 -45h-7l9 -9l13 -48h-5l5 -5l14 -51h-3l3 -3l14 -53h-2l1 -1l5 -15l-1 1q2 -4 2 -15v-23l1 -1q-1 -4 -2 -13t-2 -12q-2 -8 -2 -9v-3q-1 -1 -1 -2t-1 -2l3 -2
l-1.5 -3t-5.5 -8q-12 -19 -24.5 -30.5t-25.5 -18.5q-8 -8 -18.5 -9t-16.5 -1h-283l-20 20h-7l12 65h1l10 45h-1l11 46h177l-5 16h1l-14 54h1l-15 54l-14 53h8l-3 3h-5l-14 51h10l-5 5h-5l-14 49h11l-7 7h-5l-13 46h14l-11 11h-6v23q0 2 0.5 6.5t3.5 13.5h22l-13 13h-6v17z
M515 786l5 7h-115l-5 -7h115zM346 786l-2 7h-116l2 -7h116zM360 730l-2 9h-113l2 -9h113zM474 730l7 9h-114l-6 -9h113zM314 448l-5 22h-151l6 -22h150zM329 392l-7 25h-150l7 -25h150zM343 336l-7 27h-150l7 -27h150zM358 279l-8 30h-150l8 -30h150zM508 617l4 15h-288
q-8 -2 -15.5 -6t-15.5 -9h315zM372 223l-9 33h-149l9 -33h149zM386 167l-9 35h-149l9 -35h149zM159 564q0 -1 -0.5 -1.5t-0.5 -1.5h338l4 17h-337q-2 -4 -2.5 -7.5t-1.5 -6.5zM151 505h333l4 19h-336q-1 -3 -1 -8v-6v-5zM63 132l-5 -22h336v8v10q0 10 -1 11l-3 9h-148l5 -16
h-184zM307 0q5 0 13.5 1t15.5 7q25 10 40 33h-333l-8 -41h272zM389 70l2 12t2 13h-338l-9 -41h338q2 4 2.5 7.5t2.5 8.5z" />
    <glyph glyph-name="FL2039h" unicode="&#x2039;" horiz-adv-x="196" 
d="M83 212l-14 9l9 47h1l10 53h12l-3 3h-7l11 51h13l-5 5h-7l9 49h73l-7 7h-6l-4 20l56 26h31l-1 -6l20 -20l-7 -40h-17l13 -13l-8 -43h-16l11 -11v-17l-58 -25l23 -11l-1 -4l21 -21l-4 -24h-7l5 -5l-10 -51h-4l3 -3l-11 -53l-90 53l-3 3h-3l-15 9zM236 448l4 22h-13
l-48 -22h57zM184 202h-56l50 -29zM218 363h-106l-6 -27h53l59 25v2zM224 392l5 25h-106l-5 -25h106zM164 309h-64l-6 -30h106l2 10zM91 223h97l7 33h-106l-6 -28z" />
    <glyph glyph-name="FL0152h" unicode="&#x152;" horiz-adv-x="788" 
d="M270 188q3 -25 11 -41q6 -3 13 -3h100l2 11l1 5l12 51l11 56v1l13 53h10l-3 3h-7l11 51h13l-5 5h-7l9 49h17l-7 7h-7l6 37h-114l17 -17q-3 -3 -8 -8.5t-11 -11.5t-11 -11.5t-8 -8.5h-22l13 -13q-12 -18 -13.5 -22.5t-4.5 -9.5l-6 -11h-14l11 -11l-4.5 -12.5t-6.5 -17.5
l-5 -15h-11l9 -9q-1 -7 -2.5 -23.5t-2.5 -24.5h-5l5 -5v-51h-2zM274 -32q-67 0 -124 55q-17 13 -33 30h2q-8 11 -15 25t-13 29h1q-4 11 -6.5 22.5t-4.5 25.5q-3 24 -3 59q0 30 3 54h1q0 2 0.5 4.5t0.5 4.5q2 13 3.5 24.5t3.5 19.5h10l-3 3h-6v4q0 3 1 5q2 5 3 10.5t2 8.5v1
q0 2 1 5.5t7 16.5h12l-5 5h-6q0 5 4 15q2 4 3.5 8.5t0.5 2.5l10 23h19l-7 7h-7q5 14 7 19t4 9q1 2 3 8l2 4l3 6h26l-11 11h-9l19 29l1.5 2t6.5 12h32l-13 13h-10l27 27l11 14h74l-15 15h-5l-6 20q30 16 61 19h547l-2 -6l21 -20l-9 -33h-24v-1l21 -20l-9 -35h-23l19 -19
l-7 -37h-239l17 -17l-7 -40h-17l13 -13l-6 -28h130l-1 -6l20 -20l-10 -45h-9l9 -9l-12 -48h-6l5 -5l-4 -24h-155l-6 -27h-2l3 -3l-11 -44h193l-1 -6l20 -20l-9 -37h1l-13 -59l-10 -54h-490zM611 448l4 22h-139l-4 -22h139zM599 392l5 25h-139l-5 -25h139zM301 448
q5 6 10.5 11.5l10.5 10.5h-166q-2 -5 -5 -11t-5 -11h155zM267 392q3 6 6 12.5t7 12.5h-148q-2 -7 -5 -13t-5 -12h145zM246 336q2 7 4 13t5 14h-142q-2 -7 -3.5 -13.5t-3.5 -13.5h140zM238 279q1 16 3 30h-141q-2 -8 -3 -15t-2 -15h143zM237 223v22v11h-145q-1 -8 -1.5 -16.5
t-0.5 -16.5h147zM551 167l8 35h-139l-8 -35h139zM249 167q-7 13 -10 35h-149q0 -9 0.5 -18t1.5 -17h157zM723 250l1 6h-293l-7 -33h139l6 27h154zM741 336l6 27h-293l-6 -27h293zM864 617l4 15h-530q-26 -3 -50 -15h576zM729 279l7 30h-293l-7 -30h293zM852 561l4 17h-622
q-4 -5 -7.5 -8.5l-8.5 -8.5h634zM840 505l4 19h-655q-3 -5 -6.5 -9.5t-6.5 -9.5h664zM544 132l3 16h-139l-3 -16h-111q-21 0 -34 16h-165q3 -18 9 -38h652l5 22h-217zM741 41h-597q39 -41 107 -41h482zM744 54l9 41h-644q9 -23 24 -41h611z" />
    <glyph glyph-name="FL017Dh" unicode="&#x17d;" horiz-adv-x="432" 
d="M226 774h-5l-9 31h141l2 -7l19 -19l7 -25h-135zM386 774h-9l23 31h143l-4 -5l21 -21l-18 -25h-136zM243 718h-6l-7 33h276l-4 -5l21 -21l-21 -27h-239zM158 536l-13 13h-7l11 41h23l-15 15h-7l11 39h364l-2 -6l21 -20l-9 -33h-24v-1l20 -20l-5 -26q-1 -1 -1 -9h-26
l19 -19q-6 -25 -13 -37h-29l17 -17l-28 -40h-22l13 -13l-30 -43h-19l11 -11l-30 -45h-16l9 -9l-32 -48h-8l5 -5l-36 -51h-4l3 -3l-31 -44h142l-1 -6l20 -20l-9 -37h1l-12 -54l-1 -5l-10 -54h-357l-20 20h-7l11 54h-1l8 32q1 9 6 24h-1q14 35 23 48l6 9h-1l37 56l2 3l38 53
l36 54h13l-3 3h-8l34 51h16l-5 5h-8l34 49h19l-7 7h-9l26 37h-136l-20 20h-7l8 43h23zM515 786l5 7h-115l-5 -7h115zM346 786l-2 7h-116l2 -7h116zM474 730l7 9h-114l-6 -9h113zM360 730l-2 9h-113l2 -9h113zM438 448l15 22h-151l-15 -22h151zM399 392l17 25h-150l-17 -25
h150zM361 336l18 27h-150l-18 -27h150zM322 279l20 30h-149l-20 -30h149zM283 223l23 33h-148l-23 -33h148zM505 617l4 15h-339l-4 -15h339zM245 167l24 35h-148l-23 -35h147zM497 578h-339l-4 -17h339q0 2 1 3zM146 524l-4 -19h334q4 6 7 19h-337zM232 148h-147l-6 -9
q-9 -12 -15 -29h336l5 22h-184zM388 54l9 41h-337q-5 -12 -6 -25l-4 -16h338zM385 41h-337l-9 -41h338z" />
    <glyph glyph-name="FL2018h" unicode="&#x2018;" 
d="M117 404h-6v25h16l-7 7h-7l11 46h21l-11 11h-7l8 43h17l-13 13h-10q2 2 8 7.5t11 10.5t10 9.5t7 6.5l7 7h87l-15 15h-6l-4 20q32 14 56 19h33l-1 -6l20 -20l-6 -33h-26v-1l20 -20l-6 -35h-24l19 -19l-7 -37h-22l17 -17l-9 -40h-17l13 -13v-19h-157zM262 417h-139v-1h139
v1zM305 617l3 15h-15q-26 -5 -48 -15h60zM293 561l3 17h-120q-6 -5 -10.5 -9t-8.5 -8h136zM281 505l4 19h-139l-4 -19h139zM268 448l5 22h-139l-5 -22h139z" />
    <glyph glyph-name="FL2019h" unicode="&#x2019;" 
d="M145 482l-11 11h-7l8 43h23l-13 13h-7l11 41h23l-15 15h-7l11 39h164l-2 -6l21 -20l-9 -33h-24v-1l21 -20l-9 -35h-23l19 -19l-7 -37h-25l17 -17q-15 -12 -30.5 -22.5t-28.5 -17.5h-96l13 -13v-18q-2 0 -2.5 -0.5t-1.5 -0.5q-4 -1 -21 -1l-20 20h-6v26h17l-7 7h-7l11 46
h20zM123 415q4 0 7.5 0.5t8.5 1.5h-16v-2zM305 617l4 15h-139l-4 -15h139zM135 470l-5 -22h90q19 10 34 22h-119zM293 561l4 17h-139l-4 -17h139zM281 505l4 19h-139l-4 -19h139z" />
    <glyph glyph-name="FL201Ch" unicode="&#x201c;" horiz-adv-x="404" 
d="M324 536h2l-1 1zM300 429h2l-1 1zM286 411v5h-5zM313 482h6l-5 5zM295 467l2 6h-7zM307 521l2 8h-9zM310 585v-1l15 -16l15 15l7 7h87l-15 15h-6l-4 20q32 14 56 19h33l-1 -6l20 -20l-6 -33h-26v-1l20 -20l-6 -35h-24l19 -19l-7 -37h-22l17 -17l-9 -40h-17l13 -13v-19
h-157l-18 18v-18h-157l-20 20h-6v25h16l-7 7h-7l11 46h21l-11 11h-7l8 43h17l-13 13h-10q2 2 8 7.5t11 10.5t10 9.5t7 6.5l7 7h87l-15 15h-6l-4 20q32 14 56 19h33l-1 -6l20 -20l-6 -33h-26zM262 417h-139v-1h139v1zM437 417h-139v-1h139v1zM305 617l3 15h-15
q-26 -5 -48 -15h60zM480 617l3 15h-15q-26 -5 -48 -15h60zM468 561l3 17h-120q-6 -5 -10.5 -9t-8.5 -8h136zM293 561l3 17h-120q-6 -5 -10.5 -9t-8.5 -8h136zM456 505l4 19h-139l-4 -19h139zM281 505l4 19h-139l-4 -19h139zM443 448l5 22h-139l-5 -22h139zM268 448l5 22
h-139l-5 -22h139z" />
    <glyph glyph-name="FL201Dh" unicode="&#x201d;" horiz-adv-x="404" 
d="M313 482h6l-5 5zM324 536h8l-6 6zM307 521l2 8h-9zM336 590h10l-8 8zM295 463l3 10h-11zM311 584l9 -9l2 10h-11v-1zM145 482l-11 11h-7l8 43h23l-13 13h-7l11 41h23l-15 15h-7l11 39h164l-2 -6l9 -9l4 15h164l-2 -6l21 -20l-9 -33h-24v-1l21 -20l-9 -35h-23l19 -19
l-7 -37h-25l17 -17q-15 -12 -30.5 -22.5t-28.5 -17.5h-96l13 -13v-18q-2 0 -2.5 -0.5t-1.5 -0.5q-4 -1 -21 -1l-20 20h-6v26h17l-7 7h-7l2 10q-25 -20 -46 -30h-96l13 -13v-18q-2 0 -2.5 -0.5t-1.5 -0.5q-4 -1 -21 -1l-20 20h-6v26h17l-7 7h-7l11 46h20zM123 415
q4 0 7.5 0.5t8.5 1.5h-16v-2zM298 415q4 0 7.5 0.5t8.5 1.5h-16v-2zM480 617l4 15h-139l-4 -15h139zM305 617l4 15h-139l-4 -15h139zM310 470l-5 -22h90q19 10 34 22h-119zM135 470l-5 -22h90q19 10 34 22h-119zM468 561l4 17h-139l-4 -17h139zM293 561l4 17h-139l-4 -17
h139zM281 505l4 19h-139l-4 -19h139zM456 505l4 19h-139l-4 -19h139z" />
    <glyph glyph-name="FL2022h" unicode="&#x2022;" horiz-adv-x="553" 
d="M445 644q31 -5 61 -19l-1 -5l20 -20l-3 -10h23q5 -7 6.5 -10t3.5 -5l12 -11q4 -6 6 -10t4 -6h1l9 -19h-11l19 -19l2.5 -9t3.5 -13q0 -1 0.5 -7t0.5 -8h-11l17 -17v-20q0 -3 0.5 -10.5t0.5 -9.5h-9l13 -13q-3 -12 -3.5 -16t-0.5 -6q0 -4 -0.5 -8t-2.5 -13h-10l11 -11
q-1 -4 -2 -13t-2 -12q-1 -4 -1.5 -7t-0.5 -13h-11l9 -9q-4 -12 -5.5 -17.5t-2.5 -8.5l-4 -22h-8l5 -5l-18 -51h-3l3 -3q-4 -8 -12.5 -25.5t-13.5 -27.5h-2l1 -1q-11 -22 -16 -30t-10 -15q-2 -2 -6 -8h1q-28 -37 -55 -59h-1q-74 -54 -141 -54h-39q-65 0 -121 54l-1 1
q-1 0 -1 1q-15 11 -33 29h3q-8 12 -15 25.5t-13 28.5h1q-4 11 -6.5 22.5t-4.5 25.5q-3 24 -3 59q0 30 3 54h1q0 2 0.5 4.5t0.5 4.5q2 13 3.5 24.5t3.5 19.5h10l-3 3h-6v4q0 3 1 5q2 5 3 10.5t2 8.5v1q0 2 1 5.5t7 16.5h13l-5 5h-8q2 6 5.5 15.5t5.5 16.5l6 17h16l-7 7h-8
q2 3 5 9.5t5 10.5v-1q2 3 3 5l2 4l9 18h26l-11 11h-9l19 29l1.5 2t6.5 12h34l-13 13h-10l17 17q4 4 7.5 7t5.5 5q3 2 13 12h82l-15 15h-6l-4 21q18 8 37 12t37 6h80zM366 632q-35 -3 -65 -15h194q-23 10 -51 15h-78zM238 578q-5 -5 -9.5 -8.5t-9.5 -8.5h331q-2 4 -4.5 8
t-5.5 9h-302zM188 524q-3 -5 -6.5 -9.5t-6.5 -9.5h395q-1 5 -1.5 9.5t-2.5 9.5h-378zM288 0q35 0 65 10.5t57 30.5h-267q39 -41 106 -41h39zM155 470q-3 -5 -5.5 -11t-5.5 -11h433q0 5 -0.5 11t-0.5 11h-421zM131 417q-2 -7 -4.5 -13t-4.5 -12h454q1 4 1 12q0 9 1 13h-447z
M113 363q-2 -7 -3.5 -13.5t-3.5 -13.5h463q1 7 2 13.5t2 13.5h-460zM109 95q5 -11 10.5 -21t12.5 -20h294q24 21 40 41h-357zM100 309q-2 -8 -3 -15t-2 -15h461q2 8 3.5 15t3.5 15h-463zM95 148q3 -18 9 -38h374l12 18t12 20h-407zM92 256q-1 -8 -1.5 -16.5t-0.5 -16.5h447
l12 33h-457zM90 202q0 -9 0.5 -18t1.5 -17h420q5 10 9 18.5t8 16.5h-439z" />
    <glyph glyph-name="FL2013h" unicode="&#x2013;" horiz-adv-x="343" 
d="M80 238h-7l5 30l13 53h10l-3 3h-7l11 51h278l-1 -6l20 -20l-10 -45h-9l9 -9l-12 -48h-6l5 -5l-4 -24h-272zM342 256h-253l-1 -6h253zM359 336l6 27h-253l-6 -27h253zM347 279l7 30h-253l-7 -30h253z" />
    <glyph glyph-name="FL2014h" unicode="&#x2014;" horiz-adv-x="456" 
d="M80 238h-7l5 30l13 53h10l-3 3h-7l11 51h391l-1 -6l20 -20l-10 -45h-9l9 -9l-12 -48h-6l5 -5l-4 -24h-385zM455 256h-366l-1 -6h366zM472 336l6 27h-366l-6 -27h366zM460 279l7 30h-366l-7 -30h366z" />
    <glyph glyph-name="FL02DCh" unicode="&#x2dc;" horiz-adv-x="491" 
d="M616 750l-4 -5l21 -21l-19 -26h-138l-20 20h-9l25 32h144zM242 750h172l2 -7l19 -19l7 -26h-196l-20 20h-9zM184 661h-9l28 36h225l1 -7l1 -1l5 8h142l-4 -5l21 -21l-22 -30h-210l-13 13l-9 -13h-136zM422 673l-3 12h-76l3 -12h76zM477 738l-6 -8h116l6 8h-116zM241 730
h166l-2 8h-158zM545 673l9 12h-114l-8 -12h113zM313 673l8 12h-113l-9 -12h114z" />
    <glyph glyph-name="FL2122h" unicode="&#x2122;" horiz-adv-x="350" 
d="M361 637l4 -5l4 9h-8v-4zM318 644h23l-15 15zM309 687l-3 -6l8 -7q0 8 6 8q2 6 4 6q7 0 34 -27h-4l17 -17h65l-17 17h-6l-2 24q4 1 8.5 1.5t12.5 0.5h25l-3 -6l21 -20l-10 -20h-23v-3l20 -20l-6 -33h-25v-1l20 -20l-6 -35h-34l-12 11l-4 -6t-4 -5h-40l-16 15l-2 -15h-33
l-20 20h-7l7 41h27l-15 15h-7l6 36h-42v-3l20 -20l-6 -33h-26v-1l20 -20l-6 -35h-39l-20 20h-7l7 41h27l-15 15h-7l6 36h-17l-20 20h-8l12 26h139zM324 676q-1 0 -2 -0.5t0 -0.5l1 -1q0 -1 -2 -1h9q-3 3 -6 3zM432 675q-4 0 -14 -2h19l1 2h-6zM411 617h14l3 15h-15l1 -1z
M320 632h-17l-3 -15h14l3 12zM178 675l-1 -2h112l1 2h-112zM302 561l3 17h-14l-3 -17h14zM414 561l3 17h-15l-3 -17h15zM232 617l3 15h-20l-3 -15h20zM220 561l3 17h-20l-3 -17h20zM349 632h-25l3 -15h24q-2 10 -2 14v1zM379 632l-3 -6l-2 -4t-2 -5h26q2 3 4 6.5t4 8.5h-27z
M333 578l3 -17h28q2 3 4.5 7.5t5.5 9.5h-41z" />
    <glyph glyph-name="FL0161h" unicode="&#x161;" horiz-adv-x="432" 
d="M226 774h-5l-9 31h141l2 -7l19 -19l7 -25h-135zM386 774h-9l23 31h143l-4 -5l21 -21l-18 -25h-136zM243 718h-6l-7 33h276l-4 -5l21 -21l-21 -27h-239zM146 566l1 1q0 1 0.5 2t0.5 2t0.5 1.5t0.5 1.5q1 2 1 4q0 3 5 12h24l-15 15h-14q25 16 42.5 26.5t28.5 12.5h307
l-2 -6l21 -20l-9 -33h-24v-1l21 -20l-9 -35h-23l19 -19l-7 -37h-193l17 -17l9 -40h-9l13 -13l12 -43h-9l11 -11l12 -45h-7l9 -9l13 -48h-5l5 -5l14 -51h-3l3 -3l14 -53h-2l1 -1l5 -15l-1 1q2 -4 2 -15v-23l1 -1q-1 -4 -2 -13t-2 -12q-2 -8 -2 -9v-3q-1 -1 -1 -2t-1 -2l3 -2
l-1.5 -3t-5.5 -8q-12 -19 -24.5 -30.5t-25.5 -18.5q-8 -8 -18.5 -9t-16.5 -1h-283l-20 20h-7l12 65h1l10 45h-1l11 46h177l-5 16h1l-14 54h1l-15 54l-14 53h8l-3 3h-5l-14 51h10l-5 5h-5l-14 49h11l-7 7h-5l-13 46h14l-11 11h-6v23q0 2 0.5 6.5t3.5 13.5h22l-13 13h-6v17z
M515 786l5 7h-115l-5 -7h115zM346 786l-2 7h-116l2 -7h116zM360 730l-2 9h-113l2 -9h113zM474 730l7 9h-114l-6 -9h113zM314 448l-5 22h-151l6 -22h150zM329 392l-7 25h-150l7 -25h150zM343 336l-7 27h-150l7 -27h150zM358 279l-8 30h-150l8 -30h150zM508 617l4 15h-288
q-8 -2 -15.5 -6t-15.5 -9h315zM372 223l-9 33h-149l9 -33h149zM386 167l-9 35h-149l9 -35h149zM159 564q0 -1 -0.5 -1.5t-0.5 -1.5h338l4 17h-337q-2 -4 -2.5 -7.5t-1.5 -6.5zM151 505h333l4 19h-336q-1 -3 -1 -8v-6v-5zM63 132l-5 -22h336v8v10q0 10 -1 11l-3 9h-148l5 -16
h-184zM307 0q5 0 13.5 1t15.5 7q25 10 40 33h-333l-8 -41h272zM389 70l2 12t2 13h-338l-9 -41h338q2 4 2.5 7.5t2.5 8.5z" />
    <glyph glyph-name="FL203Ah" unicode="&#x203a;" horiz-adv-x="196" 
d="M111 348l-11 6v21h15l-5 5h-7l9 49h17l-7 7h-7l8 46h28l48 -26l-2 -5l21 -20l-1 -2h27l-1 -6l20 -20l-8 -43h-14l11 -11l-10 -45h-11l9 -9l-9 -48h-7l5 -5l-9 -43l-17 -8h-45l3 -3l3 -15l-82 -39l-20 20l-7 -3l12 63l11 54h1l6 29l54 24h9l-22 12zM187 448l-39 22h-14
l-4 -22h57zM134 202h-56l-6 -29zM159 336h53l6 27h-106v-2zM224 392l5 25h-106l-5 -25h106zM200 279l6 30h-64l-46 -20l-2 -10h106zM195 256h-106l-7 -33h96l11 5z" />
    <glyph glyph-name="FL0153h" unicode="&#x153;" horiz-adv-x="788" 
d="M270 188q3 -25 11 -41q6 -3 13 -3h100l2 11l1 5l12 51l11 56v1l13 53h10l-3 3h-7l11 51h13l-5 5h-7l9 49h17l-7 7h-7l6 37h-114l17 -17q-3 -3 -8 -8.5t-11 -11.5t-11 -11.5t-8 -8.5h-22l13 -13q-12 -18 -13.5 -22.5t-4.5 -9.5l-6 -11h-14l11 -11l-4.5 -12.5t-6.5 -17.5
l-5 -15h-11l9 -9q-1 -7 -2.5 -23.5t-2.5 -24.5h-5l5 -5v-51h-2zM274 -32q-67 0 -124 55q-17 13 -33 30h2q-8 11 -15 25t-13 29h1q-4 11 -6.5 22.5t-4.5 25.5q-3 24 -3 59q0 30 3 54h1q0 2 0.5 4.5t0.5 4.5q2 13 3.5 24.5t3.5 19.5h10l-3 3h-6v4q0 3 1 5q2 5 3 10.5t2 8.5v1
q0 2 1 5.5t7 16.5h12l-5 5h-6q0 5 4 15q2 4 3.5 8.5t0.5 2.5l10 23h19l-7 7h-7q5 14 7 19t4 9q1 2 3 8l2 4l3 6h26l-11 11h-9l19 29l1.5 2t6.5 12h32l-13 13h-10l27 27l11 14h74l-15 15h-5l-6 20q30 16 61 19h547l-2 -6l21 -20l-9 -33h-24v-1l21 -20l-9 -35h-23l19 -19
l-7 -37h-239l17 -17l-7 -40h-17l13 -13l-6 -28h130l-1 -6l20 -20l-10 -45h-9l9 -9l-12 -48h-6l5 -5l-4 -24h-155l-6 -27h-2l3 -3l-11 -44h193l-1 -6l20 -20l-9 -37h1l-13 -59l-10 -54h-490zM611 448l4 22h-139l-4 -22h139zM599 392l5 25h-139l-5 -25h139zM301 448
q5 6 10.5 11.5l10.5 10.5h-166q-2 -5 -5 -11t-5 -11h155zM267 392q3 6 6 12.5t7 12.5h-148q-2 -7 -5 -13t-5 -12h145zM246 336q2 7 4 13t5 14h-142q-2 -7 -3.5 -13.5t-3.5 -13.5h140zM238 279q1 16 3 30h-141q-2 -8 -3 -15t-2 -15h143zM237 223v22v11h-145q-1 -8 -1.5 -16.5
t-0.5 -16.5h147zM551 167l8 35h-139l-8 -35h139zM249 167q-7 13 -10 35h-149q0 -9 0.5 -18t1.5 -17h157zM723 250l1 6h-293l-7 -33h139l6 27h154zM741 336l6 27h-293l-6 -27h293zM864 617l4 15h-530q-26 -3 -50 -15h576zM729 279l7 30h-293l-7 -30h293zM852 561l4 17h-622
q-4 -5 -7.5 -8.5l-8.5 -8.5h634zM840 505l4 19h-655q-3 -5 -6.5 -9.5t-6.5 -9.5h664zM544 132l3 16h-139l-3 -16h-111q-21 0 -34 16h-165q3 -18 9 -38h652l5 22h-217zM741 41h-597q39 -41 107 -41h482zM744 54l9 41h-644q9 -23 24 -41h611z" />
    <glyph glyph-name="FL017Eh" unicode="&#x17e;" horiz-adv-x="432" 
d="M226 774h-5l-9 31h141l2 -7l19 -19l7 -25h-135zM386 774h-9l23 31h143l-4 -5l21 -21l-18 -25h-136zM243 718h-6l-7 33h276l-4 -5l21 -21l-21 -27h-239zM158 536l-13 13h-7l11 41h23l-15 15h-7l11 39h364l-2 -6l21 -20l-9 -33h-24v-1l20 -20l-5 -26q-1 -1 -1 -9h-26
l19 -19q-6 -25 -13 -37h-29l17 -17l-28 -40h-22l13 -13l-30 -43h-19l11 -11l-30 -45h-16l9 -9l-32 -48h-8l5 -5l-36 -51h-4l3 -3l-31 -44h142l-1 -6l20 -20l-9 -37h1l-12 -54l-1 -5l-10 -54h-357l-20 20h-7l11 54h-1l8 32q1 9 6 24h-1q14 35 23 48l6 9h-1l37 56l2 3l38 53
l36 54h13l-3 3h-8l34 51h16l-5 5h-8l34 49h19l-7 7h-9l26 37h-136l-20 20h-7l8 43h23zM515 786l5 7h-115l-5 -7h115zM346 786l-2 7h-116l2 -7h116zM474 730l7 9h-114l-6 -9h113zM360 730l-2 9h-113l2 -9h113zM438 448l15 22h-151l-15 -22h151zM399 392l17 25h-150l-17 -25
h150zM361 336l18 27h-150l-18 -27h150zM322 279l20 30h-149l-20 -30h149zM283 223l23 33h-148l-23 -33h148zM505 617l4 15h-339l-4 -15h339zM245 167l24 35h-148l-23 -35h147zM497 578h-339l-4 -17h339q0 2 1 3zM146 524l-4 -19h334q4 6 7 19h-337zM232 148h-147l-6 -9
q-9 -12 -15 -29h336l5 22h-184zM388 54l9 41h-337q-5 -12 -6 -25l-4 -16h338zM385 41h-337l-9 -41h338z" />
    <glyph glyph-name="FL0178h" unicode="&#x178;" horiz-adv-x="538" 
d="M345 375h7l-5 5h-7zM453 774h-7l9 31h141l-2 -6l21 -20l-7 -25h-135zM265 774h-7l9 31h141l-2 -6l21 -20l-7 -25h-135zM254 718h-7l7 33h141l-1 -6l20 -20l-6 -27h-134zM442 718h-7l7 33h141l-1 -6l20 -20l-6 -27h-134zM161 536l-13 13h-6q0 5 -0.5 9t1.5 8l3 24h26
l-15 15h-7l11 39h165l-2 -6l21 -20l-9 -33h-27v-1l20 -20v-13q-1 -3 -2 -10t-2 -12h-19l19 -19q-4 -11 -4.5 -14t-0.5 -5q0 -4 -0.5 -7.5t-2.5 -10.5h-15l17 -17q0 -14 0.5 -23t2.5 -17h-10l13 -13q2 -6 4 -10l5 -5t6 -5q17 14 30.5 25.5t20.5 20.5h20l-7 7h-9q7 11 11 18.5
t6 10.5q1 2 1.5 4t1.5 4q2 6 4 9h25l-11 11h-7l8 25v-1q0 1 0.5 1.5t0.5 1.5q1 2 1 4q0 3 5 12h23l-13 13h-6l1 5t2 8q2 8 3 10l2 4v14h27l-15 15h-7l11 39h165l-2 -6l21 -20l-9 -33h-26v-1l21 -20l-4 -24q-1 -1 -1 -11h-23l19 -19q-3 -6 -5 -12.5t-3 -9.5l-5 -15h-24
l17 -17q-2 -6 -7.5 -20.5t-7.5 -19.5h-20l13 -13q-8 -16 -13 -25.5t-10 -17.5h-17l11 -11q-10 -15 -18.5 -25.5t-17.5 -19.5h-17l9 -9q-18 -18 -32.5 -29.5t-25.5 -18.5h-48l5 -5l-13 -51h-1l3 -3q-5 -14 -6 -19.5t-2 -9.5t-2 -11.5t-2 -12.5l1 -1q-1 -5 -2 -14.5t-2 -14.5
t-1.5 -10t-0.5 -17h-1q-1 -9 -1 -16v-11v-36q0 -3 1 -7q0 -2 0.5 -6.5t0.5 -6.5l-33 -22l-11 -7l-71 -45l1 -1l-97 -63l-21 21l-7 -5l15 73l9 40l13 67h1l10 45l12 62h1l10 54h1l7 34q-8 5 -13 11l-8 8h-2q-11 7 -22.5 20.5t-23.5 33.5h8l-3 3h-5q-4 9 -8.5 20.5t-9.5 30.5
h10l-5 5h-6q-2 6 -3 12t-1 12q0 2 -0.5 6t-3.5 19h14l-7 7h-6v46h19l-11 11h-6q0 26 1 31v2q0 2 0.5 5.5t0.5 4.5h26zM218 -66h-45l-7 -34zM578 786l2 7h-116l-2 -7h116zM390 786l2 7h-116l-2 -7h116zM566 730l2 9h-116l-2 -9h116zM378 730l2 9h-116l-2 -9h116zM306 617
l4 15h-140l-4 -15h140zM614 617l4 15h-140l-4 -15h140zM297 578h-140l-2 -12q-1 -1 -1 -5h140q1 9 3 15v2zM605 578h-140v-2q-1 -3 -2 -7l-2 -8h141q0 4 1 5zM147 524q-1 -5 -1.5 -9.5t-0.5 -9.5h142q1 3 1 9q0 7 1 10h-142zM587 505q2 5 3 9.5t3 9.5h-144q-2 -5 -3 -9.5
t-3 -9.5h144zM143 470v-13v-9h146q-1 5 -1.5 10.5t-0.5 11.5h-144zM566 448q2 5 4.5 10.5t4.5 11.5h-147q-3 -6 -5.5 -11.5t-5.5 -10.5h149zM299 -13h-115l-10 -46h54zM145 417q1 -5 1 -13q0 -4 2 -12h164q-5 4 -8.5 10.5t-7.5 14.5h-151zM537 392q4 6 7.5 12t6.5 13h-155
q-6 -8 -12 -14t-13 -11h166zM371 223l8 33h-138l-7 -33h137zM229 202l-7 -35h138q2 10 3.5 18.5t3.5 16.5h-138zM218 148l-8 -38h144q1 9 2 19t2 19h-140zM352 74v10q0 6 1 11h-146l-9 -41h154v2v18zM354 23q-1 5 -1.5 9t-0.5 6v3h-157l-9 -43h130zM431 279q11 7 21.5 14.5
t18.5 15.5h-291q12 -20 28 -30h223zM497 336q6 6 11.5 12.5t10.5 14.5h-364q4 -15 10 -27h332z" />
    <glyph glyph-name="FL00A1h" unicode="&#xa1;" 
d="M134 493h-7l8 43h23l-13 13h-7l11 41h23l-15 15h-7l11 39h164l-2 -6l21 -20l-9 -33h-24v-1l21 -20l-9 -35h-23l19 -19l-7 -37h-158zM27 -12h-7l12 65h1l10 45l12 62h1l10 54h1l11 54h1l10 53h12l-3 3h-7l11 51h12l-5 5h-7l13 49h163l-2 -6l21 -20l-11 -43h-13l11 -11
l-10 -45h-11l9 -9l-9 -48h-7l5 -5l-10 -51h-5l3 -3l-10 -53h-2l1 -1l-11 -56h-1l-11 -51l-1 -5l-10 -54h-157zM305 617l4 15h-139l-4 -15h139zM293 561l4 17h-139l-4 -17h139zM281 505l4 19h-139l-4 -19h139zM256 392l6 25h-138l-6 -25h138zM244 336l6 27h-138l-6 -27h138z
M232 279l6 30h-138l-6 -30h138zM220 223l7 33h-138l-7 -33h138zM208 167l7 35h-138l-7 -35h138zM196 110l8 38h-138l-8 -38h138zM184 54l9 41h-138l-9 -41h138zM181 41h-138l-8 -41h138z" />
    <glyph glyph-name="FL00A2h" unicode="&#xa2;" horiz-adv-x="446" 
d="M144 429l-7 7h-8l11 23l3 6q5 10 12 17h24l-11 11h-10q1 1 6.5 7t9.5 10l11 11q2 3 14 15h32l-13 13h-15q30 18 46.5 25.5l27.5 12.5l6 3h47l-15 15h-7l7 39h29l-17 17h-7l6 36h165l-2 -6l21 -20l-8 -30h-24v-3l20 -20l-6 -28h38l-2 -6l21 -20l-9 -35h-23l19 -19l-7 -37
h-21l17 -17l-7 -32h-127q-4 -2 -7 -2.5t-5 -1.5l-6 -2l-6 -2h-43l13 -13q-13 -13 -22.5 -23.5t-14.5 -19.5h-18l11 -11q-6 -14 -10 -24.5t-7 -20.5h-10l9 -9q-2 -11 -2.5 -16t-0.5 -8v-24h-5l5 -5q2 -21 10 -49q8 -4 22 -4h140l-1 -6l20 -20l-5 -28h-3l1 -1l-11 -56h-1
l-10 -56h-62l-11 -56h-2l-12 -57h-156l-20 20h-7l12 57l9 50q-19 10 -33 26q-25 17 -47 45h4q-16 24 -23 53q-7 28 -8 54h1v25v12t2 16h-3q5 18 6 21.5t2 7.5q0 13 3 25h11l-3 3h-6v4q0 3 1 5q2 5 3 10.5t2 8.5v1q0 2 1 5.5t7 16.5h12l-5 5h-6q0 5 4 13l3 6q2 8 5.5 16
t6.5 14h19zM472 673l3 12h-138l-2 -12h137zM461 617l3 15h-138l-3 -15h138zM113 363q-2 -7 -3.5 -13.5t-3.5 -13.5h140q2 7 4.5 13.5t5.5 13.5h-143zM133 417q-3 -6 -5.5 -12.5t-4.5 -12.5h149q7 11 21 25h-160zM510 561l4 17h-229l-18 -8t-18 -9h261zM100 309
q-2 -8 -2.5 -15.5t-2.5 -14.5h145v15q0 10 1 15h-141zM92 256q-1 -5 -1 -9v-8v-15v-1h156q-5 15 -6 33h-149zM498 505l4 19h-299q-5 -5 -8.5 -9.5t-8.5 -9.5h312zM330 -2l9 43h-139l-9 -43h139zM491 470h-330q-4 -5 -7 -11t-6 -11h194l12 4l12 4h122zM317 -59l10 46h-138
l-10 -46h138zM91 202q2 -19 6 -35h330l2 10h-125q-17 0 -28.5 7t-19.5 18h-165zM403 54l8 41h-280q24 -29 65 -41h207zM414 110l8 38h-320q6 -21 18 -38h294z" />
    <glyph glyph-name="FL00A3h" unicode="&#xa3;" horiz-adv-x="479" 
d="M324 113h1h-1zM115 160l3 9l2 4l2 4v3q2 5 4.5 12.5t10.5 18.5h-3q5 9 11 18l12 18h-52l-20 20h-7l13 54h9l-3 3h-7l12 50h99v1h1l-5 5h-5q-5 12 -6 21t-3 18q0 2 -0.5 5t-0.5 5h13l-7 7h-6v22q0 4 0.5 9.5t2.5 14.5h20l-11 11h-6q3 20 5.5 27.5t5.5 15.5h27l-13 13h-10
q3 3 5.5 7t5.5 9q2 4 4.5 6t3.5 4q1 1 2.5 4.5t5.5 10.5h41l-15 15h-12q49 36 64 39h162l-2 -6l21 -20l-9 -33h-24v-1l21 -20l-9 -35h-23l19 -19l-7 -37h-84l17 -17q-12 -23 -15 -40h-16l13 -13q3 -16 11 -28h63l-1 -6l20 -20l-10 -45h-11l9 -9l-9 -48h-78l5 -5l4 -15
q-14 -8 -24.5 -15.5t-18.5 -18.5l5 -5l-11.5 -11.5t-1.5 -2.5q-2 -8 -3 -11v-3q-1 -5 -1.5 -8.5t-0.5 -5.5v-4h149l-2 -6l21 -20l-9 -35l-11 -59h-1l-12 -54h-407l-20 20h-7l14 65l8 45l1 4l1 5l10 35h57q1 3 1 7q0 5 2 11h1zM450 617l4 15h-143q-15 -3 -31 -15h170z
M344 448q1 7 9 22h-158q-1 -4 -1 -12v-10h150zM438 561l4 17h-204q-3 -5 -6 -8.5t-6 -8.5h212zM352 392q-8 10 -11 25h-146q1 -7 2 -13t3 -12h152zM426 505l4 19h-223q-2 -5 -3.5 -9.5t-2.5 -9.5h225zM180 256q-14 -15 -24 -33h148q8 11 18 18.5t22 14.5h-164zM145 202
q-5 -8 -8 -17l-6 -18h156v2q0 4 0.5 8.5t1.5 9.5t2 9t2 6h-148zM106 336h319l6 27h-218v-1h1h-102zM413 279l6 30h-318l-7 -30h319zM125 148q-1 -9 -3 -14v-4h-59l-5 -20h389l5 20h-156q-5 5 -6.5 10t-1.5 8h-163zM436 54l8 41h-389l-8 -41h389zM433 41h-389l-9 -41h389z
" />
    <glyph glyph-name="FL00A4h" unicode="&#xa4;" horiz-adv-x="538" 
d="M286 242q0 -10 1 -20.5t4 -21.5h5h6q10 0 27 14h5l9 17v-1v1q1 0 1 1q5 6 9 13.5t9 21.5q5 12 8 20t5 12q0 1 0.5 2t0.5 2l6 18h9l-3 3h-7q5 14 5.5 18t0.5 6v27h11l-5 5h-6q-1 3 -2.5 9.5t-2.5 8.5q-2 11 -6 18h-39l13 -13q-17 -17 -24 -26t-12 -17h-17l11 -11
q-2 -4 -5.5 -13t-5.5 -14h1q-1 -3 -2.5 -9.5t-2.5 -8.5h-11l9 -9q-5 -25 -5 -48h-5zM161 536l-13 13h-6q0 5 -0.5 9t1.5 8l3 24h26l-15 15h-7l11 39h165l-2 -6l21 -20l-9 -33h-27v-1l20 -20v-14q-1 -2 -1.5 -4t-1.5 -4h1q-1 -2 -1.5 -2.5t-0.5 -3.5h138l-13 13h-8q1 2 5 13
t5 15h1v13h27l-15 15h-7l11 39h165l-2 -6l21 -20l-9 -33h-26v-1l21 -20l-4 -24q-1 -1 -1 -11h-24l19 -19q-3 -6 -5 -12.5t-3 -9.5l-5 -15h-24l17 -17q-2 -6 -7.5 -20.5t-7.5 -19.5h-20l13 -13q-8 -16 -13 -25.5t-10 -17.5h-18l11 -11q-12 -21 -25 -34v-11h-12l9 -9l-7 -24
l2 -4q0 -1 -0.5 -0.5t0 -1t4 -5.5t12.5 -13h-13l5 -5q7 -24 9 -51h-4l3 -3q2 -7 2.5 -11.5t0.5 -8.5v-33h-3l1 -1q0 -2 -0.5 -10t-0.5 -10q-1 -8 -2.5 -22l-1.5 -14h-2q-2 -11 -2.5 -21.5t-2.5 -15.5l-5 -19l-10 -54h-159l-20 20h-7l10 54h-1l2 7l1 4l3 8q2 7 2.5 9t0.5 4v3
v1h-115q-5 -12 -6.5 -20t-2.5 -11q-1 -5 -1.5 -9t-1.5 -7l-3 -9l-10 -54h-159l-20 20h-7l10 54l2 11l4 13q2 6 3 10q1 2 1 4q0 3 1 5q1 3 3 13h-1l1 5q0 1 0.5 2t0.5 2h1l3 10q2 5 3 9.5t2 6.5q2 5 4.5 13.5t4.5 13.5q5 15 6.5 18.5t3.5 5.5q1 1 3 5q1 3 5 11q1 2 2.5 5.5
t3.5 5.5q0 5 2 7q3 6 8 14.5t7 12.5t7 10.5t8 11.5h-5l21 21q1 1 1.5 2t1.5 2q0 1 0.5 1.5t0.5 1.5v3q0 1 0.5 2t0.5 3l2 18h10l-3 3h-7q1 5 3 10.5t4 10.5q-5 7 -2 9q-2 4 -4 9t-3 12h12l-5 5h-5q-5 12 -6 21t-3 18q0 2 -0.5 5t-0.5 5h12l-7 7h-6v46h19l-11 11h-6
q0 26 1 31v2q0 2 0.5 5.5t0.5 4.5h26zM306 617l4 15h-140l-4 -15h140zM614 617l4 15h-140l-4 -15h140zM297 578h-140l-2 -12q-1 -1 -1 -5h139q1 4 2 7.5t2 7.5v2zM605 578h-140v-2q-1 -3 -1.5 -7t-2.5 -8h141q0 4 1 5zM163 347q-1 -2 -2 -4.5t-2 -6.5h104q2 6 4 13t5 14
h-115q2 -5 3 -8.5t3 -7.5zM500 341q9 9 17 22h-118v-15q0 -9 -1 -12h102v3v2zM150 289q-2 -2 -4 -4.5t-4 -5.5h112q0 16 3 30h-104l-1 -7q-1 -5 -1.5 -8t-0.5 -5zM494 309h-103q-2 -7 -4.5 -14.5t-5.5 -15.5h115q-2 4 -3 7t-3 7zM287 392q5 7 9.5 13.5t9.5 11.5h-161
q1 -7 2 -13t3 -12h137zM389 417l4 -12t4 -13h139q4 6 7.5 12t6.5 13h-161zM259 223q-5 18 -5 33h-129q-5 -8 -9.5 -16.5t-9.5 -16.5h153zM371 256q-4 -9 -9 -17l-10 -16h156q-2 16 -6 33h-131zM491 41h-140l-8 -41h140zM183 41h-140l-8 -41h140zM46 54h140l1 3q2 7 3.5 16.5
t5.5 21.5h-140q-2 -8 -3.5 -14.5t-3.5 -13.5zM497 67q2 7 3 14l2 14h-141q-2 -11 -3 -20.5t-3 -17.5l-1 -3h140zM451 524q-1 -1 -1 -4q-2 1 -3.5 2t-3.5 2h-146l-4 -2l-4 -2v4h-142q-1 -5 -1.5 -9.5t-0.5 -9.5h441q2 5 3 9.5t3 9.5h-141zM143 470v-10v-12h422q2 5 4.5 10.5
t4.5 11.5h-431zM511 191q0 8 -1 11h-176q-17 -14 -32 -14h-6q-17 0 -28 14h-173q-4 -9 -8 -17.5t-8 -17.5h432v14v10zM72 148q-3 -10 -6 -19t-6 -19h141q0 2 1 3q2 -1 2.5 -1.5t2.5 -1.5h152q2 0 4 2q0 -1 -0.5 -1.5l-0.5 -0.5h143q2 10 2.5 19.5t1.5 18.5h-437z" />
    <glyph glyph-name="FL00A5h" unicode="&#xa5;" horiz-adv-x="538" 
d="M344 375h8l-5 5h-8zM464 536l-13 13h-6l1 5t2 8q2 8 3 10l2 4v14h27l-15 15h-7l11 39h165l-2 -6l21 -20l-9 -33h-26v-1l21 -20l-4 -24q-1 -1 -1 -11h-24l19 -19q-8 -18 -8 -22q-1 -2 -2 -7.5t-2 -7.5h-24l17 -17q-2 -6 -7.5 -20.5t-7.5 -19.5h-19l13 -13q-4 -7 -12 -22
t-11 -21h-18l11 -11q-11 -16 -19.5 -27t-14.5 -18h-16l9 -9q-9 -8 -16.5 -15t-14.5 -12h49l-1 -6l20 -20l-10 -51h-5l3 -3l-10 -53h-2l1 -1l-4 -23h-144l-2 -10h120l-2 -6l21 -20l-12 -48l-1 -5l-11 -56h-1l-5 -25h-122q1 -6 3 -15l-27 -17l-66 -42l1 -1l-120 -78l-21 21
l-7 -5l18 88h1l8 37l2 12h-104l-20 20h-7l7 38l11 54l12 48h135l1 6l1 4h-104l-20 20h-7l5 29h1l10 54h1l11 54h107q-11 7 -22 20.5t-22 32.5h8l-3 3h-5q-4 9 -8.5 20.5t-9.5 30.5h10l-5 5h-6q-2 6 -3 12t-1 12q0 2 -0.5 6t-3.5 19h14l-7 7h-6v46h19l-11 11h-6q0 26 1 31v2
q0 2 0.5 5.5t0.5 4.5h26l-13 13h-6q0 5 -0.5 9t1.5 8l3 24h26l-15 15h-7l11 39h165l-2 -6l21 -20l-9 -33h-27v-1l20 -20v-13q-1 -3 -2 -10t-2 -12h-18l19 -19q-4 -11 -4.5 -14t-0.5 -5q0 -4 -0.5 -7.5t-2.5 -10.5h-15l17 -17v-21q0 -2 0.5 -5t4.5 -14h-13l13 -13q2 -6 4 -10
q3 -4 11 -10q17 14 30.5 25.5t20.5 20.5h20l-7 7h-9q7 11 11 18.5t6 10.5q1 2 1.5 4t1.5 4q2 6 4 9h25l-11 11h-7l8 25v-1q0 1 0.5 1.5t0.5 1.5q1 2 1 4q0 3 5 12h23zM151 -169l75 49h-65zM614 617l4 15h-140l-4 -15h140zM306 617l4 15h-140l-4 -15h140zM294 561q1 9 3 15v2
h-140l-2 -12q-1 -1 -1 -5h140zM605 578h-140v-2q-1 -3 -2 -7l-2 -8h141q0 4 1 5zM288 505q1 3 1 9q0 7 1 10h-143q-1 -5 -1.5 -9.5t-0.5 -9.5h143zM449 524q-2 -5 -3 -9.5t-3 -9.5h144q2 5 2.5 9.5t2.5 9.5h-143zM289 448q-1 3 -1 10v12h-145v-13v-9h146zM428 470
q-3 -6 -5.5 -11.5t-5.5 -10.5h149q2 5 4.5 10.5t4.5 11.5h-147zM312 392q-10 9 -16 25h-151q1 -5 1 -13q0 -4 2 -12h164zM396 417q-6 -8 -12 -14t-13 -11h167l6 12t7 13h-155zM233 -115l75 49h-135l-11 -49h71zM498 148h-416l-1 -5h136l-7 -33h137l2 8l5 25h143zM180 309
q12 -20 28 -30h223q21 11 41 30h-292zM155 363q4 -15 10 -27h333q10 12 21 27h-364zM464 -13h-416l-3 -14h136l-7 -32h145l20 13l-1.5 7.5t-0.5 1.5q0 9 -1 10h125zM514 223l7 33h-416l-7 -33h416zM502 167l7 35h-416l-7 -35h416zM207 95l-1 -6h-136l-8 -35h416l8 35h-141v6
h-138zM466 -2l9 43h-416l-9 -43h416z" />
    <glyph glyph-name="FL00A6h" unicode="&#xa6;" horiz-adv-x="228" 
d="M195 774h-6l3 31h162l-1 -6l21 -20l-3 -25h-156zM182 718h-7l7 33h163l-1 -6l20 -20l-6 -27h-156zM-11 -192l-8 -5l17 89h1l8 37l15 70l11 54h1l10 54l10 48l1 5l12 51l11 56v1l13 53h10l-3 3h-7l11 51h13l-5 5h-7l9 49h17l-7 7h-7l8 46h22l-11 11h-7l8 43h24l-13 13h-7
l7 41h27l-15 15h-7l7 39h29l-17 17h-7l6 36h163l-1 -5l21 -21l-5 -30h-26v-3l20 -20l-6 -33h-26v-1l20 -20l-6 -35h-24l19 -19l-7 -37h-22l17 -17l-7 -40h-17l13 -13l-8 -43h-14l11 -11l-10 -45h-9l9 -9l-12 -48h-6l5 -5l-10 -51h-3l3 -3l-13 -53h-2l1 -1l-2 -18
q-2 -3 -2 -7q0 -3 -1 -8q-1 -3 -1.5 -8.5t-1.5 -10.5l1 -1q-5 -22 -6.5 -34.5t-2.5 -24.5h-1q-1 -13 -1.5 -30t-0.5 -26h-1q0 -25 4 -41l-8 -5l-84 -53l1 -1l-121 -79zM340 786l1 7h-138l-1 -7h138zM328 730l2 9h-138l-2 -9h138zM316 673l2 12h-138l-2 -12h138zM76 -120h-67
l-10 -50zM304 617l3 15h-138l-3 -15h138zM292 561l3 17h-138l-3 -17h138zM280 505l4 19h-138l-4 -19h138zM268 448l4 22h-138l-4 -22h138zM256 392l5 25h-138l-5 -25h138zM244 336l6 27h-138l-6 -27h138zM232 279l7 30h-138l-7 -30h138zM220 223l7 33h-138l-7 -33h138z
M208 167l8 35h-138l-8 -35h138zM159 -66h-138l-11 -49h73zM204 148h-138l-8 -38h139q2 9 3 17t3 14zM55 95l-8 -41h143q1 11 2 21t3 20h-140zM44 41l-9 -43h151q0 10 0.5 21t1.5 22h-144zM188 -47q-3 15 -3 34h-153l-10 -46h147z" />
    <glyph glyph-name="FL00A7h" unicode="&#xa7;" horiz-adv-x="538" 
d="M334 214l9 17v-1v1q1 0 1 1q5 6 9 13.5t9 21.5q5 12 8 20t5 12v-1q0 1 0.5 2.5t0.5 2.5l6 18h9l-3 3h-7q5 14 5.5 18t0.5 6v27h11l-5 5h-6q-1 3 -2.5 9.5t-2.5 8.5q-2 11 -6 18h-39l13 -13q-17 -17 -24 -26t-12 -17h-17l11 -11q-2 -4 -5.5 -13t-5.5 -14h1
q-1 -3 -2.5 -9.5t-2.5 -8.5h-11l9 -9q-5 -25 -5 -48h-5l5 -5q0 -10 1 -20.5t4 -21.5h5h6q10 0 27 14h5zM463 536l-13 13h-8q1 2 5 13t5 15h1v13h27l-15 15h-7l11 39h165l-2 -6l21 -20l-9 -33h-26v-1l21 -20l-4 -24q-1 -1 -1 -11h-24l19 -19q-3 -6 -5 -12.5t-3 -9.5l-5 -15
h-24l17 -17q-2 -6 -7.5 -20.5t-7.5 -19.5h-20l13 -13q-8 -16 -13 -25.5t-10 -17.5h-18l11 -11q-12 -21 -25 -34v-11h-11l9 -9q-4 -12 -5.5 -17.5t-2.5 -8.5q-1 -4 -2.5 -11t-2.5 -11h-8l5 -5q-5 -13 -8.5 -21.5t-7.5 -18.5l-6 -11h-5l3 -3q-15 -30 -18.5 -35.5t-4.5 -4.5h-1
l-2 -2q-2 -2 -4.5 -5.5t-4.5 -5.5l1 -1q-22 -22 -39.5 -35t-32.5 -21h-153q-5 -12 -6.5 -20t-2.5 -11q-1 -5 -1.5 -9t-1.5 -7l-3 -9l-10 -54h-159l-20 20h-7l10 54l2 11l4 13q2 6 3 10q1 2 1 4q0 3 1 5q1 3 3 13h-1l1 5q0 1 0.5 2t0.5 2h1l3 10q2 5 3 9.5t2 6.5
q2 5 4.5 13.5t4.5 13.5q5 15 6.5 18.5t3.5 5.5q1 1 3 5q1 3 5 11q1 2 2.5 5.5t3.5 5.5q0 5 3 8l-1 -1q3 6 8 14.5t7 12.5t7 10.5t8 11.5h-5l21 21q1 1 1.5 2t1.5 2q0 1 0.5 1.5t0.5 1.5v3q0 1 0.5 2t0.5 3l2 18h12l-3 3h-6v4q0 3 1 5q2 5 3 10.5t2 8.5v1q0 2 1 5.5t7 16.5
h13l-5 5h-8q2 5 3.5 8.5t3.5 7.5t3.5 7.5t2.5 5.5t1.5 4t2.5 5q1 2 2.5 5.5t2.5 5.5h16l-7 7h-10l14.5 14.5t7.5 5.5h-4q3 5 8.5 11.5t13.5 14.5h23l-11 11h-10q2 2 7.5 6.5t7.5 6.5q14 8 28 16.5t29 13.5h169zM614 617l4 15h-140l-4 -15h140zM605 578h-140v-2
q-1 -3 -1.5 -7t-2.5 -8h141q0 4 1 5zM263 336q2 6 4 13t5 14h-105q-2 -7 -3.5 -13.5t-3.5 -13.5h103zM287 392q5 7 9.5 13.5t9.5 11.5h-117q-3 -6 -5.5 -12.5t-5.5 -12.5h109zM500 341q9 9 17 22h-118v-15q0 -9 -1 -12h102v3v2zM391 309q-2 -7 -4.5 -14.5t-5.5 -15.5h105
q2 8 4 15t4 15h-103zM150 289q-2 -2 -4 -4.5t-4 -5.5h112q0 16 3 30h-104l-1 -7q-1 -5 -1.5 -8t-0.5 -5zM371 256q-4 -9 -9 -17l-10 -16h112q4 8 7.5 16t6.5 17h-107zM389 417l4 -12t4 -13h139q4 6 7.5 12t6.5 13h-161zM259 223q-5 18 -5 33h-129q-5 -8 -9.5 -16.5
t-9.5 -16.5h153zM183 41h-140l-8 -41h140zM46 54h140l1 3q2 7 3.5 16.5t5.5 21.5h-140q-2 -8 -3.5 -14.5t-3.5 -13.5zM451 524q-1 -1 -1 -4q-2 1 -3.5 2t-3.5 2h-147q-9 -4 -18 -9t-17 -10h325q2 5 3 9.5t3 9.5h-141zM224 470q-5 -5 -8.5 -11t-7.5 -11h357q2 5 4.5 10.5
t4.5 11.5h-350zM334 202q-17 -14 -32 -14h-6q-17 0 -28 14h-173q-4 -9 -8 -17.5t-8 -17.5h350q6 8 12.5 16.5t11.5 18.5h-119zM72 148q-3 -10 -6 -19t-6 -19h141q0 2 1 3q2 -1 2.5 -1.5t2.5 -1.5h152q28 13 53 38h-340z" />
    <glyph glyph-name="FL00A8h" unicode="&#xa8;" horiz-adv-x="394" 
d="M512 750l-2 -6l21 -20l-7 -26h-135l-20 20h-7l9 32h141zM324 750l-2 -6l21 -20l-7 -26h-135l-20 20h-7l9 32h141zM170 661h-7l6 36h141l-1 -5l21 -21l-5 -30h-135zM358 661h-7l6 36h141l-1 -5l21 -21l-5 -30h-135zM380 738l-2 -8h116l2 8h-116zM192 738l-2 -8h116l2 8
h-116zM482 673l2 12h-116l-2 -12h116zM294 673l2 12h-116l-2 -12h116z" />
    <glyph glyph-name="FL00A9h" unicode="&#xa9;" horiz-adv-x="271" 
d="M185 584l4 -4v5h-4v-1zM324 601q1 -3 3 -11h9zM294 641q3 -4 7 -12l9 -8q-2 5 -4.5 10t-5.5 10h-6zM206 541q0 -3 3 -10q11 -5 18 -5.5t11 -0.5q13 0 27 7l-15 15q2 -5 3.5 -9t3.5 -9h-39zM249 559q10 11 14 17.5t8 12.5l35 -11l-2 -5l1 -1q2 3 3.5 6.5t3.5 6.5h-15l-7 6
q-3 3 -8 3q-12 0 -22 -9h-31v-1l20 -20v-5zM270 690q15 0 35 -7l-1 -5l21 -20l-2 -14h21l3 -9l18 -17q2 -4 4 -10t3 -8q0 -1 0.5 -7.5t0.5 -7.5h-22v-1l21 -20q-2 -11 -6 -19t-10 -16h-27l19 -19q-17 -14 -24.5 -19t-14.5 -9h1l-1 -1q-4 -2 -10 -4t-8 -3q-1 0 -2.5 -0.5
t-2.5 -0.5h-69l-1 1q-2 1 -3.5 2t-6.5 4l-14 14q-1 0 -2.5 1t-8.5 6l-35 35h19l-13 13h-6v41h26l-15 15h-8q2 2 4.5 7.5t4.5 7.5h-1q3 5 7 10.5t10 13.5h84l-17 17h-6l-2 22q22 7 37 7zM276 574q-2 -4 -4.5 -7.5t-4.5 -5.5h17l2 4t3 5zM270 678q-8 0 -15 -1.5t-15 -3.5h57
q-17 5 -27 5zM320 632q4 -8 6 -15h15q-1 2 -2 6t-3 9h-16zM186 617q6 8 7 9t2 2.5t3 3.5h-18q-3 -4 -5.5 -7.5t-4.5 -7.5h16zM323 578q-2 -5 -4.5 -9t-4.5 -8h15q8 11 9 17h-15zM174 561q-1 3 -1 8v9h-15v-17h16zM201 578q0 -14 1 -17h18q-3 6 -3 17h-16zM259 626
q13 0 19 -9h17q-2 9 -8 15h-57q-9 -6 -16 -15h19q10 9 26 9zM188 510q3 -2 5 -3l4 -2h66q2 1 5.5 2t8.5 3l5 3q11 6 17 11h-23q-1 -1 -2 -1q-19 -10 -36 -10q-5 0 -15.5 1.5t-24.5 8.5q-1 0 -2 1h-22q3 -4 6.5 -7t7.5 -7z" />
    <glyph glyph-name="FL00AAh" unicode="&#xaa;" horiz-adv-x="464" 
d="M318 403q-7 -12 -13 -22t-11 -18h40v12h11l-5 5h-6q0 9 -1 19t-4 21q-1 -1 -2 -2.5l-1 -1.5h-21zM371 644q16 -3 61 -39h-5l20 -20h-5l6 -9l12 -12q5 -6 9.5 -14t9.5 -21h-8v-1l19 -18q1 -3 2.5 -8.5t2.5 -7.5q1 -4 3 -8t8 -13h-14l17 -17q0 -10 0.5 -12.5t1.5 -5.5
t3 -11.5t3 -10.5h-13l13 -13q0 -4 0.5 -11.5t0.5 -10.5v-21h-10l11 -11q-1 -4 -2 -13t-2 -12q-1 -4 -1.5 -7t-0.5 -13h-12l9 -9l-12 -48h-6l5 -5l-10 -51h-3l3 -3l-13 -53h-1l1 -1l-11 -56h-1l-10 -56h-1l-12 -54h-156l-20 20h-7l14 65l10 54l10 48l1 5l7 31h-50l3 -3
l-13 -53h-1l1 -1l-11 -56h-1l-10 -56h-1l-12 -54h-156l-20 20h-7l14 65l10 54l10 48l1 5l12 51l11 56v1l13 53h10l-3 3h-6v4q0 3 1 5q2 5 3 10.5t2 8.5v1q0 2 1 5.5t7 16.5h14l-5 5h-8l14 34q1 2 1 3t1 3q2 6 4 9h17l-7 7h-9q4 6 7 9t5 6t4.5 6.5t6.5 10.5v-2v1q1 0 1 1
l7 14h31l-11 11h-8l10 15l-1 -1q4 8 10 14q2 4 6 8q3 3 5 7h34l-13 13h-10l17 17q4 4 7.5 7t5.5 5l12 12h69l-15 15h-5l-6 19q14 8 25 13t19 7h30zM344 632q-14 -4 -35 -15h89q-15 12 -30 15h-24zM258 578q-5 -5 -9 -8.5t-9 -8.5h202q-4 10 -10 17h-174zM167 470
q-4 -6 -7 -11.5t-7 -10.5h147q5 6 10 11.5t10 10.5h-153zM481 448q-1 5 -2 11t-2 11h-154q6 -11 11 -22h147zM486 392q0 6 -0.5 12t-0.5 13h-142q3 -12 3 -25h140zM136 417q-3 -7 -6 -13t-5 -12h139q3 7 6.5 13t7.5 12h-142zM444 167l8 35h-138l-8 -35h138zM208 167l8 35
h-138l-8 -35h138zM207 524q-4 -5 -7.5 -9.5t-7.5 -9.5h275q-2 5 -3.5 9.5t-3.5 9.5h-253zM432 110l8 38h-138l-8 -38h138zM196 110l8 38h-138l-8 -38h138zM182 41h-138l-9 -41h138zM421 54l8 41h-138l-8 -41h138zM185 54l8 41h-138l-8 -41h138zM418 41h-138l-9 -41h138z
M248 355q1 1 3 8h-137q-2 -7 -3.5 -13.5t-3.5 -13.5h374q1 7 2 13.5t2 13.5h-139v-12h-98v4zM468 279l7 30h-374l-7 -30h374zM456 223l7 33h-374l-7 -33h374z" />
    <glyph glyph-name="FL00ABh" unicode="&#xab;" horiz-adv-x="335" 
d="M214 291l7 -7l7 37h11l-3 3h-4l-39 -17l22 -11zM83 212l-14 9l9 47h1l10 53h12l-3 3h-7l11 51h13l-5 5h-7l9 49h73l-7 7h-6l-4 20l56 26h31l-1 -6l20 -20l-6 -27h56l-7 7h-6l-4 20l56 26h31l-1 -6l20 -20l-7 -40h-17l13 -13l-8 -43h-16l11 -11v-17l-58 -25l23 -11l-1 -4
l21 -21l-4 -24h-7l5 -5l-10 -51h-4l3 -3l-11 -53l-90 53l-3 3h-3l-15 9l-12 12l-4 -21h-4l3 -3l-11 -53l-90 53l-3 3h-3l-15 9zM236 448l4 22h-13l-48 -22h57zM375 448l4 22h-13l-48 -22h57zM184 202h-56l50 -29zM323 202h-56l50 -29zM357 363h-106l-6 -27h53l59 25v2z
M218 363h-106l-6 -27h53l59 25v2zM363 392l5 25h-106l-5 -25h106zM224 392l5 25h-106l-5 -25h106zM303 309h-64l-6 -30h106l2 10zM164 309h-64l-6 -30h106l2 10zM230 223h97l7 33h-106l-6 -28zM188 223l7 33h-106l-6 -28l8 -5h97z" />
    <glyph glyph-name="FL00ACh" unicode="&#xac;" horiz-adv-x="456" 
d="M80 238h-7l5 30l13 53h10l-3 3h-7l11 51h391l-1 -6l20 -20l-10 -45h-11l9 -9l-9 -48h-7l5 -5l-10 -51h-5l3 -3l-10 -53h-2l1 -1l-6 -33h-151l-20 20h-7l7 39h1l10 54h1l1 4h-202zM432 148h-132l-3 -15h132zM436 167l7 35h-132l-7 -35h132zM316 223h132l7 33h-366l-1 -6
h234zM472 336l6 27h-366l-6 -27h366zM460 279l6 30h-365l-7 -30h366z" />
    <glyph glyph-name="FL00ADh" unicode="&#xad;" horiz-adv-x="282" 
d="M80 238h-7l5 30l13 53h10l-3 3h-7l11 51h217l-1 -6l20 -20l-10 -45h-9l9 -9l-12 -48h-6l5 -5l-4 -24h-211zM281 256h-192l-1 -6h192zM298 336l6 27h-192l-6 -27h192zM286 279l7 30h-192l-7 -30h192z" />
    <glyph glyph-name="FL00AEh" unicode="&#xae;" horiz-adv-x="271" 
d="M218 590h6l-3 3zM187 584l8 -9l2 10h-10v-1zM297 548l1.5 -3.5t3.5 -8.5h11l-13 13h-3q1 -1 1 -2l1 -1zM318 604l6 -14h11l-15 15h-3zM301 620l12 -12q-3 14 -14 33h-15q0 -2 1 -3q3 -2 6 -4.5t7 -5.5zM209 538q0 -3 3 -9q8 -3 13.5 -3.5t8.5 -0.5h1q7 0 14.5 1t17.5 6
l-12 12l-4 -15h-33zM264 589q9 -7 11 -10t3 -5v-2l14 -14l1 -2q1 0 2 -1q3 6 8 15t8 15h-21l-6 5q1 -1 -10 -1h-10zM200 484l-9 9h-1q-2 1 -4.5 2.5t-4.5 3.5q-14 9 -30 37h13l-13 13h-6v20q0 3 0.5 7.5t3.5 13.5h19l-15 15h-10l15 15q2 2 3.5 4t3.5 4q2 4 4 6v10h89l-17 17
h-6l-4 22q10 4 19 5t20 1q20 0 37 -8l-2 -5l21 -20l-3 -12h22l3 -9l18 -17q2 -4 4 -10t3 -8q0 -1 0.5 -7.5t0.5 -7.5h-20v-1l21 -20q-2 -3 -4.5 -10.5t-4.5 -10.5q-1 -2 -3 -7t-3 -7h-30l19 -19q-30 -25 -45 -32h-1q-2 -1 -4.5 -2.5t-3.5 -1.5t-2.5 -0.5t-2.5 -0.5h-76
q-2 1 -4 2.5t-4 3.5q-2 1 -6 5q-2 1 -3.5 2.5l-3.5 3.5zM270 677q-17 0 -29 -4h54q-8 4 -25 4zM180 629q-3 -4 -5 -7t-4 -5h16q4 4 7 8t6 7h-19v-1zM319 632q4 -8 6 -15h17q-1 2 -2 6t-3 9h-18zM209 578l-3 -17h15l4 17h-16zM322 578q-2 -5 -4.5 -9t-4.5 -8h17q2 5 4 8.5
t4 8.5h-16zM176 561q-1 3 -1 8v8v1h-17q-1 -3 -1 -9v-8h19zM245 574l8 -13h17l-4.5 10.5t-5.5 6.5h-22q2 -1 3.5 -2t3.5 -2zM287 623q-2 2 -4 3.5t-5 3.5q-1 0 -3 2h-54l-3 -15h15l1 4h17q15 0 16 -1l3 -3h20zM188 509q3 -3 6 -4h73q2 1 5 1.5t5 2.5q13 6 24 15h-24
q-2 -2 -3 -2q-11 -5 -20.5 -7t-18.5 -2h-1q-3 0 -12.5 1.5t-23.5 7.5q-2 0 -2 2h-23q6 -9 15 -15z" />
    <glyph glyph-name="FL00AFh" unicode="&#xaf;" horiz-adv-x="462" 
d="M158 605h-7l7 39h29l-17 17h-7l6 36h397l-1 -5l21 -21l-5 -30h-26v-3l20 -20l-6 -33h-391zM550 673l2 12h-372l-2 -12h372zM538 617l3 15h-372l-3 -15h372z" />
    <glyph glyph-name="FL00B0h" unicode="&#xb0;" horiz-adv-x="206" 
d="M183 750h141l-2 -6l21 -20l-7 -26h-135l-20 20h-7zM170 661h-7l6 36h67l-2 -6l8 -8l4 14h64l-1 -5l21 -21l-5 -30h-62l-13 12l-3 -12h-57zM217 673l3 12h-40l-2 -12h39zM294 673l2 12h-41l-3 -12h42zM190 730h116l2 8h-116z" />
    <glyph glyph-name="FL00B1h" unicode="&#xb1;" horiz-adv-x="456" 
d="M27 -12h-7l12 65h1l10 45h-1l11 46h391l-1 -6l20 -20l-9 -37h1l-12 -54l-1 -5l-10 -54h-385zM411 429h95l-2 -6l21 -20l-11 -43h-13l11 -11l-10 -45h-126l9 -9l-12 -48h-6l5 -5l-10 -51h-4l3 -3l-5 -28h-151l-20 20h-7l6 34l11 53v1l9 36h-86l-20 20h-7l11 51h12l-5 5h-7
l13 49h130l-7 7h-7l11 46h20l-11 11h-7l8 43h158l-1 -6l20 -20l-7 -37h-21l17 -17zM327 202h-132l-2 -10h132zM391 505l4 19h-132l-4 -19h132zM379 448l5 22h-132l-5 -22h132zM343 279l7 30h-132l-7 -30h132zM331 223l7 33h-132l-7 -33h132zM63 132l-5 -22h366l5 22h-366z
M484 392l6 25h-366l-6 -25h366zM472 336l6 27h-366l-6 -27h366zM412 54l9 41h-366l-9 -41h366zM409 41h-366l-8 -41h366z" />
    <glyph glyph-name="FL00B2h" unicode="&#xb2;" horiz-adv-x="269" 
d="M368 661l9 -9l5 -5t5 -6h-25q0 -1 -0.5 -1.5t-0.5 -1.5l21 -20q-2 -9 -4 -17.5t-6 -15.5h-33l21 -21l-20 -35h-30l19 -19l-17 -28h17l-2 -6l21 -20l-9 -40h-14l13 -13l-11 -43h-198l-20 20h-7l6 23v4q0 3 1 5v-1q0 1 0.5 1.5t0.5 1.5q1 2 1.5 5t0.5 10h22l-7 7h-8l25 46
h26l-11 11h-8l23 43h28l-5 5h-28l-20 20h-7l5 29h26l-15 15h-7l7 39h28l-17 17h-7l9 32h156q19 0 43 -32h-2zM345 673q-6 8 -18 8h-147l-2 -8h167zM279 505l11 19h-109l-10 -19h108zM311 561l10 17h-163l-1 -5h52l-7 -12h109zM169 632l-3 -15h177q2 4 3 7.5t2 7.5h-179z
M309 448l5 22h-163l-12 -22h170zM297 392l6 25h-179l-2 -8t-2 -9l-2 -8h179z" />
    <glyph glyph-name="FL00B3h" unicode="&#xb3;" horiz-adv-x="454" 
d="M248 177q8 9 13 17t11 17v1l2 2q14 20 16 26t4 9q1 1 1 2t1 2l2 6q2 6 4 9h3l10 53h12l-3 3h-7l11 51h12l-5 5h-7l13 49h13l-7 7h-7l11 46h20l-11 11h-7l8 43h23l-13 13h-7l11 41h23l-15 15h-7l11 39h163l-2 -6l21 -20l-9 -33h-24v-1l21 -20l-9 -35h-23l19 -19l-7 -37
h-21l17 -17l-9 -40h-14l13 -13l-11 -43h-13l11 -11l-10 -45h-12l9 -9l-2 -20q-1 -3 -3 -7l2 -1l-1.5 -4t-7.5 -16h-6l5 -5q-3 -8 -9.5 -25.5t-10.5 -25.5h-3l3 -3q-2 -2 -7 -10.5t-7 -12.5l-1 -1q-3 -5 -6.5 -11t-11.5 -18l1 -1q-17 -29 -38 -53h1q-32 -36 -51 -54h1
q-68 -59 -103 -59h-195l-20 20h-7l12 65h1l10 45l12 62h1l10 54h1l11 54h1l10 53h12l-3 3h-7l11 51h12l-5 5h-7l13 49h13l-7 7h-7l11 46h20l-11 11h-7l8 43h23l-13 13h-7l11 41h23l-15 15h-7l11 39h164l-2 -6l21 -20l-9 -33h-24v-1l21 -20l-9 -35h-23l19 -19l-7 -37h-21
l17 -17l-9 -40h-14l13 -13l-11 -43h-13l11 -11l-8 -45h-12l9 -9l-9 -48h-7l5 -5l-10 -51h-5l3 -3zM530 617l4 15h-138l-4 -15h138zM305 617l4 15h-139l-4 -15h139zM518 561l4 17h-138l-4 -17h138zM293 561l4 17h-139l-4 -17h139zM506 505l4 19h-138l-4 -19h138zM281 505
l4 19h-139l-4 -19h139zM494 448l5 22h-138l-5 -22h138zM269 448l5 22h-139l-5 -22h139zM482 392l6 25h-138l-6 -25h138zM257 392l6 25h-139l-6 -25h139zM470 336l6 27h-138l-6 -27h138zM246 336l5 27h-139l-6 -27h140zM464 309h-138l-6 -30h137q2 5 3 10.5t3 11.5zM234 279
l6 30h-140l-6 -30h140zM435 223q4 8 7.5 16.5t6.5 16.5h-138q-4 -8 -7.5 -16.5t-8.5 -16.5h140zM222 223l7 33h-140l-7 -33h140zM210 167l7 35h-140l-7 -35h140zM404 167q6 8 11 17l10 18h-143q-6 -10 -12 -18.5t-14 -16.5h148zM43 41l-8 -41h184q32 0 79 41h-255zM55 95
l-9 -41h266q10 9 20 19.5t20 21.5h-297zM204 139l2 9h-140l-8 -38h306q17 20 28 38h-156q-14 -13 -29 -18z" />
    <glyph glyph-name="FL00B4h" unicode="&#xb4;" horiz-adv-x="258" 
d="M219 718h-9l25 32h151l-4 -5l21 -21l-23 -26h-141zM183 661h-8l24 36h142l-4 -5l21 -21l-22 -30h-133zM353 730l7 8h-120l-6 -8h119zM309 673l9 12h-114l-8 -12h113z" />
    <glyph glyph-name="FL00B6h" unicode="&#xb5;" horiz-adv-x="538" 
d="M-3 -154h-7l8 46h1l8 37l15 70l11 54h1l10 54l10 48l1 5l12 51l11 57l13 53h10l-3 3h-7l11 51h12l-5 5h-7l13 49h13l-7 7h-7l11 46h20l-11 11h-7l8 43h23l-13 13h-7l11 41h23l-15 15h-7l11 39h165l-2 -6l21 -20l-9 -33h-24v-1l21 -20l-9 -35h-23l19 -19l-7 -37h-21
l17 -17l-9 -40h-16l13 -13l-8 -43h-14l11 -11l-10 -45h-13l9 -9q0 -11 -0.5 -15.5t-1.5 -7.5q-1 -5 -1.5 -13t-1.5 -12h-6l5 -5v-51h-3l3 -3q1 -4 2 -10t2 -9l2 -10t3 -13q4 -2 11 -2h2q14 0 33 16h1q12 15 20.5 27t14.5 24q2 4 5.5 11.5t7 16t6.5 16l5 12.5q5 14 9.5 27
t6.5 27h12l-3 3h-7l11 51h13l-5 5h-7l9 49h16l-7 7h-7l11 46h20l-11 11h-7l8 43h23l-13 13h-7l11 41h23l-15 15h-7l11 39h165l-2 -6l21 -20l-9 -33h-24v-1l21 -20l-9 -35h-23l19 -19l-7 -37h-21l17 -17l-9 -40h-14l13 -13l-11 -43h-13l11 -11l-10 -45h-9l9 -9
q-4 -12 -5.5 -17.5t-2.5 -8.5l-4 -22h-8l5 -5l-18 -51h-3l3 -3q-4 -8 -12.5 -25.5t-13.5 -27.5h-1l1 -1q-8 -15 -17 -28t-17 -25h1q-34 -42 -54 -59h-1q-72 -54 -142 -54h-23q-39 0 -66 12l-2 -6l1 -1l-12 -52l1 -1l-12 -54l-7 -40h-158zM306 617l4 15h-140l-4 -15h140z
M614 617l4 15h-140l-4 -15h140zM294 561l4 17h-140l-4 -17h140zM602 561l4 17h-140l-4 -17h140zM282 505l4 19h-140l-4 -19h140zM590 505l4 19h-140l-4 -19h140zM148 -120h-139l-4 -22h139zM270 448l5 22h-140l-5 -22h140zM578 448l5 22h-140l-5 -22h140zM258 392l5 25h-139
l-6 -25h140zM566 392l6 25h-141l-5 -25h140zM246 336l6 27h-140l-6 -27h140zM554 336l6 27h-140l-6 -27h140zM101 309l-7 -30h142q1 8 2 15.5t2 14.5h-139zM541 279q2 8 3.5 15t3.5 15h-141q-3 -14 -9 -30h143zM522 223l12 33h-144q-3 -8 -6.5 -16.5t-7.5 -16.5h146zM89 256
l-7 -33h152v8v25h-145zM497 167q5 10 9 18.5t8 16.5h-148q-11 -20 -23 -35h154zM78 202l-8 -35h173q-3 8 -4.5 16.5t-3.5 18.5h-157zM161 -59l10 46h-139l-10 -46h139zM149 -115l11 49h-139l-11 -49h139zM44 41l-9 -43h138l4 18q28 -16 72 -16h23q69 0 122 41h-350zM66 148
l-8 -38h404q7 9 13.5 18.5t11.5 19.5h-161q-19 -16 -38 -16h-2q-20 0 -33 16h-187zM55 95l-8 -41h364q18 15 39 41h-395z" />
    <glyph glyph-name="FL0193h" unicode="&#xb6;" horiz-adv-x="1244" 
d="M264 243l1 -1v1h-1zM968 324h-1l3 -3h1zM1068 251v1l-7 1zM720 536h7l-2 2zM1037 262l12 -4l-10 10zM507 272q0 -1 -1 -1v-1q9 11 15 19.5t11 16.5q-2 -2 -3 -2h-23l9 -9q-5 -14 -7 -17zM1087 250l80 -13q-1 3 -4.5 10.5t-9.5 20.5h1q-3 4 -8 11t-10.5 15t-11 15.5
t-8.5 11.5l-7 -17h-14l9 -9zM759 575l-2 -4l21 -20l-11 -22h-33l-5 5v-4l20 -20l1 -18l-18 -2l-21 20h-5v20l-3 -1h-40l-20 20h-6l-4 21l50 20h54zM551 549l13 -13h32l1 -8l19 -18l3 -16l-44 -18l-43 34l-7 7l-16 12h-4l-5 4l-3 -2l22 -21l-47 -37h-54l-20 20h-10l17 17
q4 4 7.5 7t5.5 5l14 14h66l-13 13h-5l-6 20q5 2 11.5 5.5t11.5 5.5q3 1 6 1.5t5 2.5l49 -35h-6zM659 102l7 -12l3 -5l52 22h30l-2 12l55 22l50 -34h4l5 -4l4 4l53 48h-2l4 3l-2 2h4l31 24l25 -7l-1 -5l12 -12h44l5 -2v2h2l8 29l-21 21l-3 -2l-9 10q-7 2 -12.5 3.5t-11.5 5.5
l-15 15q-4 1 -7 2.5t-5 3.5l1 3l-11 11l-3 -15h-7l5 -5l-4 -24l-40 -2l-3 3l-1 -4l-29 11l-18 17l-9 4l1 5q-3 -1 -5.5 -2t-5.5 -3h-57l-3 3l-1 -3h-23l5 -5l2 -17l-44 -12l-5 4v-3q-24 0 -61 28l-12 11l-1 1l-2 -7h-5l5 -5l-5 -26l-41 -7l-20 20l-7 -1v1q-20 -15 -31 -15
q-12 -3 -24 -3q-27 0 -45 18l-12 12q-13 8 -26 27h9v7q0 2 0.5 5t0.5 4q1 2 2 4.5t2 5.5q2 5 3 10t3 10l-9 -4.5t-10 -5.5h-18l9 -9q-7 -8 -11.5 -15t-7.5 -12h27l-1 -6l21 -20l-2 -31q-3 -1 -9.5 -2.5t-8.5 -2.5q-11 -3 -19 -3q-19 0 -34 15l-10 10q-10 5 -17 12l-4 -19
l-53 -15l-13 13l-34 -14l119 -24l-7 -4l21 -20l-23 -13l141 -5l-4 -5l21 -21l-5 -7l6 1h87v14l42 7l6 -12zM1144 509l-1 -1l20 -22q-3 -3 -3.5 -7t-0.5 -6h-33l57 -15l-1 -5l21 -20l-1 -4h46l-3 -6l21 -20q-10 -24 -26 -35q20 -11 28 -29l8 -8h-1v1l4 -3q11 -11 14 -25h-19
l9 -9l-19 -26h-57l14 -22h-2l5 -5l11 -16v-11l-1 -5q-1 -4 -2.5 -7.5t-7.5 -11.5h-99l3 -3l-17 -53h-2l1 -1l-6 -23q-16 -22 -41 -22q-15 0 -33 5.5t-41 18.5l-38 -32l-47 -40l-48 -9l-21 20h-3l-23 26h-13l3 -13l-100 -43h-27l3 -10l-11 -6l-13 4l-12 12h-8l-20 20h-7l1 7
l-156 -22l-27 20l-9 8l-18 14l4 10l-159 13l-20 19l-7 1l7 37l-55 11q-11 0 -18 9l-12 12q-13 3 -24 22l-7 8h-15l59 36h-3l-26 12l-17 16l-9 5l-1 41h36l65 -34l-2 -5l15 -14h21l39 -21l6 20l17 54h11l-3 3h-7l13 43l-88 5v-12h-6l11 -11l29 -45h-43l-20 20h-6l-1 8l-31 43
h4l-5 5h-8l20 49h105l-7 7h-7q1 3 3.5 14.5t3.5 13.5l2.5 7.5t5.5 10.5h21l-11 11h-10q35 35 50 35h5l40 -14l-1 -5l20 -20l-2 -7h31v-7l20 -19l2 -18q-7 -2 -10 0t-5 3l-9 9v-17q-11 0 -29 6l-19 18q-2 1 -3.5 1.5t-3.5 1.5l1 13h-29l17 -17l-14 -40h-17l13 -13l-10 -28h42
l-2 -6l14 -13q8 6 17 10.5t18 8.5h68l-2 -6l12 -12q5 5 10 9.5t10 8.5h69l6 -8t5 -9l4 -4l4 21h20l16 -21l6 -5l25 -32l2 4h10l-3 3h-7l14 51h50l-1 -6l8 -9l5 15h52l-2 -6l20 -19q7 8 13 14.5t9 10.5h69q0 -2 0.5 -3.5t0.5 -3.5l9 -9l3 16h25l14 -19l8 -7l22 -29v1h10l-3 3
h-7l16 51h46l-1 -6l9 -10l5 16h59l-3 -6l21 -20l-11 -28h102l-27 13l-16 15l-11 6l1 5h-24l-20 20h-6l-2 22l54 14h-49l-89 18l-20 19l-12 3l31 17h-120l-20 20h-8l16 36h-35l-20 20h-6l-2 23l63 11l69 -10l-2 -5l21 -20l-4 -13h140zM725 524h-7v-1zM644 41h-12l8 -2z
M970 167l-13 4l-5 -4h18zM874 256h-17l16 -6zM999 256h-21q10 -6 20 -6zM634 110l-3 5l-30 -5h33zM733 256h-25l-2 -7zM383 465q-2 0 2.5 1.5t17.5 3.5h-44q17 -5 24 -5zM917 256h-21l-1 -7l21 1zM682 256h-28q13 -10 26 -10zM521 561l-14 10q-5 -2 -10.5 -4.5t-10.5 -5.5
h35zM601 256h-22l-2 -13l22 4zM310 256h-28l-4 -13l31 9zM315 516q-11 0 -22 -11h57l-31 11h-4zM590 524h-55l19 -15zM623 336l-22 27h-3l-5 -27h30zM1036 250l-19 -11l12 -15l27 19zM184 336h25l-17 27h-21l19 -26zM1069 309h-23l-6 -24l19 -3zM946 336l-21 27h-8l-5 -27
h34zM548 309q-5 -15 -18 -30h21q4 6 8 13.5t8 16.5h-19zM446 505l24 19h-34q-5 -5 -10 -9.5t-10 -9.5h30zM897 571l-57 -10h108l1 3zM331 336l7 27h-23l-8 -27h24zM1016 336l6 27h-22l-8 -27h24zM830 110l-27 18l-44 -18h71zM922 279l6 30h-21l-6 -30h21zM297 448l8 22h-32
q-2 -5 -3.5 -10.5t-3.5 -11.5h31zM699 336l6 27h-26l-7 -27h27zM474 279q-2 9 1 18l2 8l0.5 1l1.5 3h-23q-4 -8 -6.5 -15.5t-4.5 -14.5h29zM761 336l7 27h-27l-8 -27h28zM340 297q-2 -8 -1 -9v-9h22q0 3 1 4q1 12 12 26h-31q-1 -1 -1 -5zM316 279l8 30h-26l-9 -30h27z
M1080 336l11 27h-32l-7 -27h28zM484 243q10 0 22 3q15 0 25 10h-86q9 -13 39 -13zM1081 167l11 35h-25l-10 -35h24zM746 279l8 30h-30l-9 -30h31zM734 578h-49l-42 -17h37l25 10l15 -7v-3h19l5 10zM382 235q5 0 11.5 2t16.5 4l1 15h-65q10 -21 36 -21zM1175 363l55 -26v-1
h30q-2 11 -35 27h-50zM931 148l-42 -38h31l45 38h-34zM1243 309h-104q12 -17 21 -30h21l-14 22h70zM1206 417l2 -5h-9l-79 -20h82q21 8 28 25h-24zM124 279h57l-56 30h-21l1 -21zM399 336q19 12 34 12h6q-1 -1 8 -2l5 17h-50q-28 -10 -43 -27h40zM877 73l26 22h-31l-8 -7
l-11 7h-43l26 -30zM1176 448l-87 22h-41l-16 -9l65 -13h79zM1203 240q1 2 0.5 4t-0.5 3l-6 9h-24q8 -15 6 -23l-1 -1.5t-2 -7.5l-98 16l-5 -17h124q3 4 5 12zM890 341q-1 13 -5 22h-56q-6 -7 -12 -13.5t-11 -13.5h32l14 15l2 -15h35zM134 223h43l64 24l-17 9h-51l9 -4z
M930 309q6 -9 11.5 -16.5t10.5 -13.5h52l7 30h-27l-5 -16l-13 16h-36zM1040 121q21 0 32 15l3 12h-24l-1 -6l-19 6h-66q23 -14 40.5 -20.5t34.5 -6.5zM280 399l6 18h-119l-10 -25h26v13zM502 363q-14 -10 -28 -27h30q10 7 20 7q13 0 19 -7h33q-2 17 -13 27h-61zM589 309
l-6 -30h22l6 26q5 -8 9.5 -14.5t9.5 -11.5h57l6 30h-27l-5 -21l-17 21h-55zM812 279q9 6 18 6q10 0 16 -6h32l6 30h-97q-5 -8 -8.5 -15l-7.5 -15h41zM262 171l-5 -4h51l16 9l-127 26h-71q4 -10 18 -10zM1115 523h-182v1h-25l-9 -19h228q0 3 1 4zM398 110h55l14 18l-212 8
l20 12h-42l-5 -25zM626 88l-7 -34h55l95 41h-46l-87 -36l15 29l-6 7h-135l-78 -13l10 13h-24l-9 -22l19 -14z" />
    <glyph glyph-name="FL00B8h" unicode="&#xb7;" 
d="M80 238h-7l5 30l13 53h10l-3 3h-7l11 51h164l-1 -6l20 -20l-10 -45h-9l9 -9l-12 -48h-6l5 -5l-4 -24h-158zM227 250l1 6h-139l-1 -6h139zM245 336l6 27h-139l-6 -27h139zM233 279l7 30h-139l-7 -30h139z" />
    <glyph glyph-name="FL00B9h" unicode="&#xb8;" horiz-adv-x="193" 
d="M-53 -175h-7l13 67h1l12 54h44l9 40h-4l12 26h130l-3 -5l21 -21l-7 -12l1 -1l-14 -64l-11 -56h-1l-9 -48h-167zM35 0l-1 -2h103l1 2h-103zM125 -59l10 46h-103l-10 -46h103zM112 -120h-148l-9 -43h148zM113 -115l10 49h-147l-11 -49h148z" />
    <glyph glyph-name="FL00BCh" unicode="&#xb9;" horiz-adv-x="231" 
d="M148 557h-7l7 33h25l-15 15h-7l7 39h28l-17 17h-7l9 32h166l-2 -6l21 -20l-7 -26h-25v-3l20 -20l-6 -33h-25v-1l21 -20l-9 -35h-23l19 -19l-7 -37h-21l17 -17l-9 -40h-14l13 -13l-11 -43h-65l-52 28l-15 14l-12 7l6 20h18l-7 7h-7q1 2 4 12.5t4 13.5q1 4 2.5 8.5
t5.5 11.5h20l-11 11h-7l8 43h23l-1 1h-35zM319 673l2 8h-141l-2 -8h141zM283 505l4 19h-95l-4 -19h95zM202 569l-2 -8h95l4 17h-141l-2 -9h46zM259 392l6 25h-108l46 -25h56zM307 617l3 15h-141l-3 -15h141zM271 448l5 22h-97q-2 -5 -3.5 -11t-3.5 -11h99z" />
    <glyph glyph-name="FL00BAh" unicode="&#xba;" horiz-adv-x="322" 
d="M269 482h9l-9 9v-9zM272 523q0 2 1 3v3h-21l16 -17q2 4 2.5 6.5t1.5 4.5zM307 693q23 0 47 -12l-1 -5l20 -20l-3 -12h19v-6l20 -20q0 -14 2 -17h1q2 -8 6 -16h-21v-1l20 -20v-18q0 -4 -0.5 -7t-2.5 -10h-23l19 -19v-12q-1 -3 -1 -6q0 -2 -1 -4t-1.5 -5t-0.5 -10h-26
l17 -17q-7 -23 -11 -30q-1 -1 -4 -5t-4 -5h-16l13 -13q-10 -13 -20 -24t-20 -19h-156l-20 20h-4q-17 23 -25 49h14l-7 7h-5q-3 9 -3.5 14t-0.5 8v24h19l-11 11h-6v19l2 8q-2 -3 -0.5 1t2.5 7v8h22l-13 13h-8l9.5 19t2.5 6q0 1 2 7t4 9h31l-15 15h-9q10 17 15.5 24.5
t11.5 14.5h75l-17 17h-6l-4 21q31 11 53 11h19zM288 681q-21 0 -43 -8h98q-18 8 -36 8h-19zM239 524h-93v-1q-2 -5 -2.5 -9t-1.5 -9h95q0 5 0.5 9t1.5 9v1zM374 505q1 5 2 9t2 9v1h-93v-1q-1 -3 -2.5 -8t-3.5 -10h95zM193 632q-3 -4 -6 -7.5t-5 -7.5h199q-1 4 -2 7.5t-2 7.5
h-184zM273 567q6 -2 9 -6h102q1 3 1 8v9h-223q-2 -5 -3 -9t-3 -8h103q6 5 13 6h1zM147 417q5 -14 13 -25h149q7 5 13 11.5t11 13.5h-186zM140 470v-12q0 -7 1 -10h211q2 5 5 10t5 12h-222z" />
    <glyph glyph-name="FL00BBh" unicode="&#xbb;" horiz-adv-x="335" 
d="M233 301l6 3h-8zM242 305l36 16h9l-22 12l-14 13zM217 429h27l-1 -6l5 -7l3 13h17l-7 7h-7l8 46h28l48 -26l-2 -5l21 -20l-1 -2h27l-1 -6l20 -20l-8 -43h-14l11 -11l-10 -45h-11l9 -9l-9 -48h-7l5 -5l-9 -43l-17 -8h-45l3 -3l3 -15l-82 -39l-20 20l-7 -3l7 40h-43l3 -3
l3 -15l-82 -39l-20 20l-7 -3l12 63l11 54h1l6 29l54 24h9l-22 12l-15 15l-11 6v21h15l-5 5h-7l9 49h17l-7 7h-7l8 46h28l48 -26l-2 -5l21 -20zM326 448l-39 22h-14l-4 -22h57zM187 448l-39 22h-14l-4 -22h57zM273 202h-56l-6 -29zM134 202h-56l-6 -29zM351 336l6 27h-106v-2
l47 -25h53zM159 336h53l6 27h-106v-2zM363 392l5 25h-106l-5 -25h106zM224 392l5 25h-106l-5 -25h106zM200 279l6 30h-64l-46 -20l-2 -10h106zM339 279l6 30h-64l-46 -20l-2 -10h106zM334 256h-106l-7 -33h96l11 5zM195 256h-106l-7 -33h96l11 5z" />
    </font>
</defs>
</svg>
